<svg id="Layer_1" data-name="Layer 1" xmlns="http://www.w3.org/2000/svg" viewBox="0 0 200 200"><path id="Path_1138" data-name="Path 1138" d="M11.052,154.615S-.89,131.049,26.429,127.983s59.445,12.9,72.233,10.389,59.235-23.5,72.552-15.9,27.529,31.44,16.222,40.643S116.785,180.756,98.66,177.2s-63.3,1.114-72.233-3.277S11.052,154.615,11.052,154.615Z" fill="#fbf2d1"/><g id="Group_358" data-name="Group 358"><path id="Path_1139" data-name="Path 1139" d="M138.23,77.008h-5.683V58.654A35.066,35.066,0,0,0,97.568,23.676h-4.32A35.064,35.064,0,0,0,58.27,58.654V77.008H52.587a8.238,8.238,0,0,0-8.214,8.214v27.4a51.187,51.187,0,0,0,51.036,51.036h0a51.186,51.186,0,0,0,51.036-51.036v-27.4A8.237,8.237,0,0,0,138.23,77.008Zm-69.6,0V58.654A24.706,24.706,0,0,1,93.249,34.036h4.32a24.706,24.706,0,0,1,24.619,24.618V77.008Z" fill="#e5dcc0"/><path id="Path_1140" data-name="Path 1140" d="M139.938,75.3h-5.683V56.946A35.066,35.066,0,0,0,99.276,21.968h-4.32A35.066,35.066,0,0,0,59.977,56.946V75.3H54.294a8.238,8.238,0,0,0-8.214,8.214v27.4A51.187,51.187,0,0,0,97.116,161.95h0a51.186,51.186,0,0,0,51.036-51.036v-27.4A8.238,8.238,0,0,0,139.938,75.3Zm-69.6,0V56.946A24.706,24.706,0,0,1,94.956,32.328h4.32a24.706,24.706,0,0,1,24.618,24.618V75.3Z" fill="#a6ce39"/><path id="Path_1141" data-name="Path 1141" d="M106.609,107.622a9.492,9.492,0,1,0-15.946,6.957V128.64a6.455,6.455,0,0,0,6.454,6.454h0a6.454,6.454,0,0,0,6.454-6.454V114.579A9.464,9.464,0,0,0,106.609,107.622Z" fill="#fbf2d1"/><path id="Path_1142" data-name="Path 1142" d="M54.3,75.3H97.116v86.649h0A51.187,51.187,0,0,1,46.08,110.913v-27.4A8.238,8.238,0,0,1,54.3,75.3Z" fill="#fff" opacity="0.5" style="isolation:isolate"/><g id="Group_356" data-name="Group 356"><circle id="Ellipse_70" data-name="Ellipse 70" cx="141.711" cy="141.491" r="22.387" fill="#fbf2d1" stroke="#a6ce39" stroke-miterlimit="10" stroke-width="2"/></g><g id="Group_357" data-name="Group 357"><path id="Path_1143" data-name="Path 1143" d="M138.658,145.65l-.039-1.011a8.471,8.471,0,0,1,2.216-5.792c1.05-1.244,2.1-2.41,2.1-3.537,0-1.05-.739-1.788-2.449-1.866a7.409,7.409,0,0,0-3.847,1.127l-1.478-5.014a14.827,14.827,0,0,1,6.919-1.594c5.4,0,7.892,2.877,7.892,6.181,0,3.148-2.021,5.053-3.343,6.491a6.152,6.152,0,0,0-1.865,4.431l-.04.583Zm-1.085,5.366a3.984,3.984,0,1,1,3.968,4h0a3.86,3.86,0,0,1-3.965-3.75C137.57,151.183,137.57,151.1,137.573,151.016Z" fill="#a6ce39"/></g></g></svg>