<svg id="Layer_1" data-name="Layer 1" xmlns="http://www.w3.org/2000/svg" viewBox="0 0 200 200"><path id="Path_1138" data-name="Path 1138" d="M12.125,152.682S.183,129.116,27.5,126.051s59.445,12.9,72.234,10.389,59.235-23.5,72.552-15.9,27.529,31.439,16.222,40.642-70.652,17.641-88.777,14.087-63.3,1.114-72.233-3.277S12.125,152.682,12.125,152.682Z" fill="#fbf2d1"/><g id="Group_358" data-name="Group 358"><path id="Path_1139" data-name="Path 1139" d="M138.942,76.231h-5.683V57.877A35.066,35.066,0,0,0,98.28,22.9H93.96A35.064,35.064,0,0,0,58.982,57.877V76.231H53.3a8.238,8.238,0,0,0-8.214,8.214v27.4a51.186,51.186,0,0,0,51.036,51.036h0a51.187,51.187,0,0,0,51.036-51.036v-27.4A8.238,8.238,0,0,0,138.942,76.231Zm-69.6,0V57.877A24.706,24.706,0,0,1,93.961,33.259h4.32A24.706,24.706,0,0,1,122.9,57.877V76.231Z" fill="#e5dcc0"/><path id="Path_1140" data-name="Path 1140" d="M140.65,74.523h-5.683V56.169A35.066,35.066,0,0,0,99.988,21.191h-4.32A35.066,35.066,0,0,0,60.689,56.169V74.523H55.006a8.238,8.238,0,0,0-8.214,8.214v27.4a51.186,51.186,0,0,0,51.036,51.036h0a51.187,51.187,0,0,0,51.036-51.036v-27.4A8.238,8.238,0,0,0,140.65,74.523Zm-69.6,0V56.169A24.706,24.706,0,0,1,95.668,31.551h4.319a24.706,24.706,0,0,1,24.618,24.618V74.523Z" fill="#a6ce39"/><path id="Path_1141" data-name="Path 1141" d="M107.321,106.845A9.492,9.492,0,1,0,91.374,113.8v14.061a6.455,6.455,0,0,0,6.454,6.454h0a6.454,6.454,0,0,0,6.454-6.454V113.8A9.465,9.465,0,0,0,107.321,106.845Z" fill="#fbf2d1"/><path id="Path_1142" data-name="Path 1142" d="M55.006,74.523H97.828v86.649h0a51.186,51.186,0,0,1-51.036-51.036v-27.4A8.236,8.236,0,0,1,55.006,74.523Z" fill="#fff" opacity="0.5" style="isolation:isolate"/><g id="Group_356" data-name="Group 356"><circle id="Ellipse_70" data-name="Ellipse 70" cx="142.423" cy="140.714" r="22.387" fill="#fbf2d1" stroke="#a6ce39" stroke-miterlimit="10" stroke-width="2"/></g><path id="Path_1144" data-name="Path 1144" d="M132.347,137.467l10.959,10.068L167.9,115.076" fill="none" stroke="#a6ce39" stroke-linecap="round" stroke-linejoin="round" stroke-width="8"/></g></svg>