<svg id="Camada_1" data-name="Camada 1" xmlns="http://www.w3.org/2000/svg" xmlns:xlink="http://www.w3.org/1999/xlink" viewBox="0 0 1080 960"><defs><clipPath id="clip-path"><path d="M185.879-857.611C480-869.82,663-751.936,889-769.7c72.6-5.708,151.323-40.174,190.64-59.548V-1749.5H-93.64v976.484C-60.981-807.507,14.019-850.477,185.879-857.611Z" fill="none"/></clipPath></defs><path d="M732.281,846.036c-66.8,19.063-146.87,7.516-304.281-16.357C291.087,808.915,222.078,798.03,194.969,773.41c-103.384-93.893-74.5-324.734,36.59-392.757,64.4-39.43,118.412-.885,218.341-55.3,71.783-39.09,65.907-70.96,128.645-101.506,77.78-37.87,187.418-37.871,269.678,7.652C990.012,309.963,983.1,486.4,981.131,536.751,979.507,578.21,975.7,649.725,923.35,720.73,858.589,808.576,762.461,837.424,732.281,846.036Z" fill="#b5682d"/><path d="M293.046,405.682H555.482v19.943H548.42q-54.343,0-108.687.015a41.442,41.442,0,0,0-7.1.382c-4.894.859-7.685,3.969-8.017,8.906-.348,5.172,2.035,8.814,7.106,10.2a26.946,26.946,0,0,0,7.037.76q112.251.055,224.5.022c11.2,0,14.492-3.355,14.532-14.552.025-7.125.05-14.25.112-21.375,0-.3.372-.593.914-1.4l64.715,57.487L678.388,524.06c-.261-2.179-.561-3.571-.571-4.966-.052-6.928.1-13.861-.062-20.786-.182-7.907-3.935-11.773-11.71-11.784q-69.487-.1-138.976,0c-7.03.01-11.534,4.218-11.448,10.142.083,5.692,4.395,9.833,11.118,9.994,9.463.226,18.935.057,28.843.057v40.167H495.154c0-10.944,0-21.582,0-32.22,0-2.376-.046-4.752-.015-7.127.06-4.595-1.775-8.145-6.022-10.02s-8.113-.751-11.507,2.267q-44.6,39.657-89.177,79.347c-6.205,5.547-6.184,11.758.01,17.293q44.284,39.568,88.741,78.944c3.479,3.092,7.29,4.775,11.928,2.633,4.537-2.1,6.082-5.845,6.055-10.609-.061-10.69-.015-21.381-.012-32.071V628.6h60.321V729.425H293.046Z" fill="#f4dbcb"/><path d="M839.434,648.22H576.856V628.231h7.257q84.933,0,169.868,0c10.117,0,15.036-3.443,14.837-10.33-.192-6.671-5.043-9.959-14.784-9.959q-132.153-.009-264.306,0c-11.552,0-14.845,3.3-14.867,14.833-.015,7.288,0,14.576,0,23.417-22.349-19.863-43.692-38.834-65.719-58.41l65.719-58.463c0,9-.027,16.605.007,24.206.047,10.471,3.459,13.914,13.88,13.918q67.413.024,134.825,0c8.616,0,13.411-3.59,13.5-9.97s-4.807-10.228-13.249-10.249c-13.661-.035-27.322-.01-40.983-.01h-6.128V507.186h80.827c0,6.885,0,13.928,0,20.972,0,5.939.069,11.879-.014,17.818-.064,4.556,1.471,8.262,5.7,10.218,4.414,2.04,8.481.927,12.057-2.252q19.748-17.562,39.509-35.11,23.967-21.309,47.918-42.637c8.163-7.3,8.161-12.973.074-20.165q-42.827-38.086-85.742-76.069c-2.424-2.138-5.506-4.18-8.577-4.793-6.036-1.206-10.821,3.854-10.884,10.968-.115,12.85-.033,25.7-.033,38.933a47.926,47.926,0,0,1-4.917.531c-23.758.032-47.515-.019-71.273.071-3.321.013-5.06-.618-5.044-4.513.126-31.281.08-62.562.108-93.843a19.685,19.685,0,0,1,.449-2.754h262.56Z" fill="#f4dbcb"/><path d="M839.379,668.8c0,19.328.886,37.756-.279,56.054-.942,14.808-14.91,24.932-31.8,25.165-11.674.16-23.353.033-35.029.033q-81.045,0-162.088-.018c-17.077-.015-28.932-8.254-32.647-22.849a50.031,50.031,0,0,1-1.113-11.758c-.129-13.259.2-26.526-.168-39.776-.148-5.382,1.322-6.993,6.877-6.977q102.714.289,205.429.126h50.816ZM707.913,739.712a30.317,30.317,0,1,0-30.084-30.365A30.392,30.392,0,0,0,707.913,739.712Z" fill="#f4dbcb"/><path d="M293.157,750.327H554.979c.383.574.774.887.775,1.2.029,17.007.547,34.035-.129,51.015-.629,15.824-12.385,27.048-28.16,28.419-1.377.12-2.767.141-4.15.141q-99.137.011-198.271-.023c-19.466-.023-32.1-12.337-32.422-31.675-.262-15.627-.028-31.263.01-46.895A11.756,11.756,0,0,1,293.157,750.327Zm161.4,40.469c.094-16.854-13.822-30.889-30.467-30.727a30.663,30.663,0,0,0-30.152,30.467,30.311,30.311,0,0,0,60.619.26Z" fill="#f4dbcb"/><path d="M840.2,303.542H577.38c-5.251-19.776,7.649-38.4,27.635-40.071,2.755-.23,5.539-.151,8.309-.151q96.812-.011,193.621.012c16.379.011,28.392,8.537,31.834,23.1C840.029,291.717,839.738,297.371,840.2,303.542ZM718.181,283.786a10.032,10.032,0,0,0-20.058-.345,10.03,10.03,0,0,0,20.058.345Z" fill="#f4dbcb"/><path d="M555.272,384.614H293.346c-4.331-22.854,9.122-40.1,31.7-40.17q99.174-.287,198.349,0C545.981,344.5,559.343,361.47,555.272,384.614Zm-131.029-9.791a10.356,10.356,0,0,0,10.042-9.777,9.979,9.979,0,0,0-9.963-10.309,10.243,10.243,0,0,0-10.091,9.65A10.455,10.455,0,0,0,424.243,374.823Z" fill="#f4dbcb"/><path d="M707.983,719.434a10.04,10.04,0,0,1,.3-20.078,10.447,10.447,0,0,1,9.911,9.9A10.327,10.327,0,0,1,707.983,719.434Z" fill="#f4dbcb"/><path d="M424.368,800.434a10.058,10.058,0,0,1-10.151-10.109,10.4,10.4,0,0,1,9.952-9.863,10.256,10.256,0,0,1,10.11,10.254A9.995,9.995,0,0,1,424.368,800.434Z" fill="#f4dbcb"/><g clip-path="url(#clip-path)"><rect x="-92.847" y="-1747.5" width="1172.695" height="2007" fill="#bcd855"/></g></svg>