<svg xmlns="http://www.w3.org/2000/svg" xmlns:xlink="http://www.w3.org/1999/xlink" viewBox="0 0 1080 960"><defs><clipPath id="clip-path"><path d="M761.121-835.611C467-847.82,284-729.936,58-747.7c-72.6-5.708-151.323-40.174-190.64-59.548V-1727.5H1040.64v976.484C1007.981-785.507,932.981-828.477,761.121-835.611Z" fill="none"/></clipPath></defs><g style="isolation:isolate"><g id="Camada_1" data-name="Camada 1"><path d="M329.079,290.545c59.532-35.8,139.845-45.506,298.04-63.451,137.6-15.609,207.06-23.072,239.645-6.362,124.269,63.729,156.5,294.126,66.958,388.734-51.9,54.84-114.1,31.692-196.4,110.256-59.126,56.436-45.153,85.675-97.771,131.507C574.314,908.048,468.46,936.6,377.183,914.073,219.852,875.241,180.572,703.089,169.364,653.966c-9.23-40.451-24.174-110.491,7.873-192.679C216.885,359.607,302.183,306.72,329.079,290.545Z" fill="#b5682d"/><path d="M674.586,843.659H358.242v-358.7c6.595-.734,13.31-1.08,19.869-2.278,46-8.4,78.34-34.228,97-77.032,1.785-4.094,3.555-5.8,8.275-5.766,33.575.242,67.153.125,100.73.14,1.887,0,3.773.154,6.283.264v6.508q0,31.841.011,63.68c.016,10.2,3.77,14.051,13.931,14.087,21.227.073,42.454.023,63.681.024h6.564Zm-157.728-126.7q-60.744,0-121.488.025a41.649,41.649,0,0,0-8.038.62c-5.271,1.048-7.936,4.672-7.98,9.864s2.556,8.836,7.789,10.042a30.877,30.877,0,0,0,6.86.7q122.357.052,244.711,0a31.56,31.56,0,0,0,7.428-.788c4.977-1.217,7.5-5,7.516-9.742.022-5-2.565-8.916-7.855-10.037a39.12,39.12,0,0,0-8.034-.656Q577.313,716.931,516.858,716.962Zm-.015-84.58q-61.036,0-122.074.036a30.257,30.257,0,0,0-8.571.9c-4.538,1.365-6.842,4.9-6.878,9.615s2.2,8.265,6.713,9.739a26.074,26.074,0,0,0,7.976.968q122.364.071,244.727.007a31.76,31.76,0,0,0,7.432-.782c4.989-1.214,7.485-5.01,7.493-9.753.008-5-2.567-8.918-7.872-10.027a39.667,39.667,0,0,0-8.029-.675Q577.3,632.35,516.843,632.382ZM515.635,695.8q61.325,0,122.648,0c10.428,0,15.517-3.473,15.488-10.541-.029-7.051-5.121-10.486-15.575-10.487q-121.779,0-243.56.011a38.276,38.276,0,0,0-6.916.32,10.385,10.385,0,0,0,.65,20.491,49.246,49.246,0,0,0,6.353.2Q455.179,695.806,515.635,695.8Zm.627-84.551q61.32,0,122.639,0c9.844,0,14.942-3.648,14.87-10.586s-5.066-10.412-15.052-10.413q-122.349,0-244.7.006a37.339,37.339,0,0,0-5.771.215c-6.1.96-9.689,6.014-8.747,12.1.889,5.737,5.164,8.666,12.964,8.671Q454.364,611.271,516.262,611.247Zm.348,169.076h82.147c14.27,0,28.539-.03,42.809.01,5.287.014,9.49-1.673,11.436-6.977,2.839-7.737-2.61-14.02-12.315-14.023q-124.087-.045-248.175,0a23.019,23.019,0,0,0-5.169.4,10.21,10.21,0,0,0-8.028,10.556,10.06,10.06,0,0,0,8.882,9.8,45.682,45.682,0,0,0,6.35.222Q455.579,780.332,516.61,780.323ZM548.276,547.8q20.8,0,41.6-.01c4.042-.007,8.105.113,12.12-.252a9.794,9.794,0,0,0,9.293-9.321,9.912,9.912,0,0,0-7.586-10.8,21.451,21.451,0,0,0-5.69-.692q-49.98-.06-99.962.018a18.329,18.329,0,0,0-6.764,1.114c-4.6,1.884-6.8,5.643-6.243,10.592.556,4.906,3.409,8.092,8.361,8.982a36.2,36.2,0,0,0,6.332.352Q524.007,547.827,548.276,547.8Zm-105.991-.22v-.027c4.027,0,8.084.315,12.072-.079,5.221-.514,8.255-3.749,8.9-8.977.638-5.148-2.088-10.35-7.19-10.815a160.249,160.249,0,0,0-26.866-.106c-5.028.392-8.19,5.822-7.749,10.57a10.144,10.144,0,0,0,9.328,9.367C434.589,547.857,438.449,547.583,442.285,547.583Z" fill="#f4dbcb"/><path d="M785.226,337.947c-6.161,23.111-12.125,45.432-18.06,67.762-2.831,10.652-.336,14.9,10.376,17.763,22.31,5.965,44.622,11.919,67.526,18.037Q798.532,615.2,752.08,788.571c-17.989-4.815-35.468-9.44-52.89-14.269-1.25-.347-2.916-2.146-2.976-3.34-.3-6.085-.139-12.194-.139-19.152,10.7,2.806,20.473,5.528,30.331,7.907,8.523,2.057,15.43-4.776,13.224-12.864-1.343-4.926-5.32-6.811-9.765-8.006-9.673-2.6-19.324-5.3-29.055-7.665-3.617-.879-5.086-2.454-4.845-6.3.336-5.331.085-10.7.085-16.857,11.683,3.085,22.609,5.965,33.532,8.855,2.421.64,4.808,1.431,7.253,1.948,7.108,1.5,12.43-1.461,13.975-7.666,1.418-5.7-1.948-10.912-8.8-12.83-13.17-3.686-26.339-7.435-39.66-10.5-5.282-1.214-6.875-3.474-6.4-8.585.445-4.737.1-9.549.1-15.07,14.417,3.825,28.138,7.461,41.856,11.109,3.165.842,6.3,1.8,9.482,2.572,7.077,1.713,12.815-1.188,14.281-7.129,1.522-6.171-1.777-11.319-8.857-13.256-17.094-4.676-34.19-9.361-51.374-13.689-4.108-1.034-5.811-2.566-5.48-6.924.392-5.151.092-10.355.092-16.37,12.522,3.314,24.369,6.439,36.211,9.589,8.749,2.327,17.472,4.758,26.242,7.007,6.972,1.789,12.424-1.136,14.081-7.329,1.553-5.8-1.62-11.007-8.486-12.9-20.982-5.795-41.987-11.512-63.067-16.932-4.031-1.036-5.319-2.7-5.061-6.689.331-5.138.08-10.313.08-16.2,3.156.693,5.555,1.122,7.9,1.75q30.983,8.3,61.949,16.651c1.489.4,2.971.834,4.478,1.156,5.926,1.267,11.215-1.564,12.939-6.888,1.807-5.581-1-11.242-7.13-13.209-6.965-2.233-14.093-3.957-21.163-5.856-17.86-4.8-35.7-9.693-53.615-14.255-4.124-1.05-5.45-2.812-5.411-7.078.213-23.348-.051-46.7.2-70.047.071-6.632-1.843-11.669-6.646-16.406q-39.154-38.619-77.8-77.751a20.451,20.451,0,0,0-15.929-6.474c-18.329.23-36.664.081-55,.081h-7.168c9.069-33.829,17.964-67,27.048-100.886Z" fill="#f4dbcb"/><path d="M789.291,404.676c4.131-15.386,8.134-30.292,12.543-46.715,11.607,20.076,22.508,38.93,34.23,59.207Z" fill="#f4dbcb"/><path d="M611.849,416.873q23.02,22.959,46.01,45.89h-46.01Z" fill="#f4dbcb"/><circle cx="352.354" cy="345.854" r="117.354" fill="#f4dbcb"/><path d="M400.939,329.462H394.6V309a39.1,39.1,0,0,0-38.994-39H350.8A39.095,39.095,0,0,0,311.8,309v20.466h-6.335a9.183,9.183,0,0,0-9.156,9.159v30.552a56.893,56.893,0,1,0,113.786,0V338.621A9.184,9.184,0,0,0,400.939,329.462ZM362.3,371.355v15.678a7.195,7.195,0,1,1-14.389,0V371.355a10.582,10.582,0,1,1,14.389,0Zm20.754-41.893h-59.7V309a27.546,27.546,0,0,1,27.445-27.45h4.816A27.545,27.545,0,0,1,383.056,309Z" fill="#ce7e39" style="mix-blend-mode:multiply"/><g clip-path="url(#clip-path)"><rect x="-131.64" y="-1712.5" width="1173.279" height="2008" fill="#bcd855"/></g></g></g></svg>