<svg xmlns="http://www.w3.org/2000/svg" xmlns:xlink="http://www.w3.org/1999/xlink" viewBox="0 0 1080 995"><defs><clipPath id="clip-path"><path d="M232.879,854.889C527,842.68,710,960.564,936,942.8c72.6-5.708,151.323-40.174,190.64-59.548V-37H-46.64V939.484C-13.981,904.993,61.019,862.023,232.879,854.889Z" fill="none"/></clipPath></defs><g style="isolation:isolate"><g id="Camada_1" data-name="Camada 1"><g clip-path="url(#clip-path)"><rect x="-18.216" y="-43" width="1173.279" height="2008" fill="#bcd855"/><path d="M508.281,111.808c69.473,8.275,175.116-14.434,306.3,89.486C928.683,291.683,986,337.756,998.894,380.82c49.183,164.234-86.088,433.818-218.794,464.627C703.177,863.305,672.509,790.4,556.34,809.8c-83.45,13.939-93.2,55.833-164.423,63.576-88.3,9.6-187.532-42.377-240.464-137.239-91.236-163.509-38.908-274.013-13.5-334.946C158.949,350.852,195.165,237.314,276.109,175,376.252,97.9,476.894,108.069,508.281,111.808Z" fill="#fff" opacity="0.35"/><path d="M847.655,316.888a17.377,17.377,0,0,0-9.9-14.808L561.992,171.1a17.365,17.365,0,0,0-14.887,0L271.332,302.08a17.376,17.376,0,0,0-9.891,14.808c-8.155,159.554,28.7,292.683,109.618,395.868,61.688,78.66,133.861,120.821,176.146,140.49a17.378,17.378,0,0,0,14.679,0c42.293-19.669,114.457-61.83,176.154-140.49,80.911-103.185,117.767-236.314,109.617-395.868Z" fill="#bcd855" style="mix-blend-mode:multiply"/><path d="M819.228,288.462a17.379,17.379,0,0,0-9.9-14.809L533.565,142.677a17.356,17.356,0,0,0-14.886,0L242.905,273.653a17.377,17.377,0,0,0-9.89,14.809c-8.156,159.554,28.7,292.682,109.617,395.867,61.689,78.661,133.862,120.821,176.146,140.49a17.38,17.38,0,0,0,14.68,0c42.292-19.669,114.457-61.829,176.154-140.49,80.911-103.185,117.767-236.313,109.616-395.867Z" fill="#bcd855" stroke="#618946" stroke-miterlimit="10" stroke-width="10"/><g id="Grupo_358" data-name="Grupo 358"><path id="Caminho_1139" data-name="Caminho 1139" d="M662.783,399.159H644.326V339.55a113.886,113.886,0,0,0-113.6-113.6h-14.03a113.882,113.882,0,0,0-113.6,113.6v59.609H384.636a26.756,26.756,0,0,0-26.677,26.677v88.989A166.24,166.24,0,0,0,523.712,680.577h0A166.24,166.24,0,0,0,689.464,514.825V425.836A26.755,26.755,0,0,0,662.783,399.159Zm-226.043,0V339.55A80.237,80.237,0,0,1,516.7,259.6h14.03a80.239,80.239,0,0,1,79.957,79.953v59.609Z" fill="#618946"/><path id="Caminho_1140" data-name="Caminho 1140" d="M668.33,393.612H649.873V334a113.886,113.886,0,0,0-113.6-113.6H522.24A113.887,113.887,0,0,0,408.637,334v59.609H390.18A26.756,26.756,0,0,0,363.5,420.289v88.989A166.24,166.24,0,0,0,529.255,675.03h0A166.24,166.24,0,0,0,695.008,509.278V420.289A26.756,26.756,0,0,0,668.33,393.612Zm-226.043,0V334A80.239,80.239,0,0,1,522.24,254.05h14.03A80.239,80.239,0,0,1,616.223,334v59.609Z" fill="#618946"/><path id="Caminho_1141" data-name="Caminho 1141" d="M560.086,498.586a30.828,30.828,0,1,0-51.789,22.6v45.666a20.961,20.961,0,0,0,20.961,20.961h0a20.961,20.961,0,0,0,20.961-20.961V521.181A30.739,30.739,0,0,0,560.086,498.586Z" fill="#618946" style="mix-blend-mode:multiply"/><path id="Caminho_1142" data-name="Caminho 1142" d="M386.027,393.612H525.1V675.026h0A166.239,166.239,0,0,1,359.347,509.274V420.286A26.756,26.756,0,0,1,386.027,393.612Z" fill="#618946" opacity="0.5" style="mix-blend-mode:multiply;isolation:isolate"/></g></g></g></g></svg>