<svg id="Camada_1" data-name="Camada 1" xmlns="http://www.w3.org/2000/svg" xmlns:xlink="http://www.w3.org/1999/xlink" viewBox="0 0 1080 995"><defs><clipPath id="clip-path"><path d="M231.879,849.389C526,837.18,709,955.064,935,937.3c72.6-5.708,151.323-40.174,190.64-59.548V-42.5H-47.64V933.984C-14.981,899.493,60.019,856.523,231.879,849.389Z" fill="none"/></clipPath></defs><g clip-path="url(#clip-path)"><rect x="-45.64" y="-43.5" width="1173.279" height="2008" fill="#bcd855"/><path d="M223,1027.5c-36.53-44.979-46.353-99.986-66-210-27.267-152.685-53.2-297.895,17-438,37.342-74.527,96.894-126.351,216-230,79.133-68.864,118.7-103.3,164-118,140.08-45.469,338.911,20.881,403,150,44.312,89.274,15.208,195.849-43,409-23.616,86.479-47.126,142.735-46,239,1.234,105.515,30.515,126.422,15,170C830.223,1147.735,379.493,1220.192,223,1027.5Z" fill="#fff" opacity="0.35"/><path d="M756.651,1209.6H323.35a77.719,77.719,0,0,1-77.492-77.49V179.688A77.721,77.721,0,0,1,323.35,102.2h433.3a77.719,77.719,0,0,1,77.491,77.493V1132.11a77.717,77.717,0,0,1-77.491,77.49Z" fill="#3c3c3b"/><path d="M804.991,187.023V1117.37c0,31.56-25.64,57.38-56.959,57.38H331.971c-31.322,0-56.951-25.82-56.951-57.38V187.023c0-31.563,25.629-57.379,56.951-57.379H748.032c31.319,0,56.959,25.816,56.959,57.379Z" fill="#d6ea7f"/><g id="Retângulo_5-2" data-name="Retângulo 5-2"><rect x="307.936" y="309.817" width="461.296" height="133.79" rx="13.936" fill="#fff"/></g><g id="Saber_sobre_meus_Dados_Pessoais" data-name="Saber sobre meus Dados Pessoais" style="isolation:isolate"><g style="isolation:isolate"><path d="M394.844,366.483a6.37,6.37,0,0,1-2.7-1.979,4.632,4.632,0,0,1-.975-2.648.571.571,0,0,1,.585-.585h2.48a.906.906,0,0,1,.516.125,1.3,1.3,0,0,1,.349.4,2.835,2.835,0,0,0,1.282,1.588,5.028,5.028,0,0,0,2.731.641,5.5,5.5,0,0,0,2.983-.655,2.063,2.063,0,0,0,1-1.825,1.71,1.71,0,0,0-.516-1.282,4.209,4.209,0,0,0-1.532-.865q-1.018-.362-3.025-.891a11.6,11.6,0,0,1-4.808-2.077,4.587,4.587,0,0,1-1.519-3.693,4.88,4.88,0,0,1,.878-2.871,5.867,5.867,0,0,1,2.536-1.979,9.577,9.577,0,0,1,3.861-.725,9.01,9.01,0,0,1,3.958.809A6.617,6.617,0,0,1,405.478,350a4.475,4.475,0,0,1,.933,2.41.571.571,0,0,1-.586.586h-2.592a.808.808,0,0,1-.808-.53,2.266,2.266,0,0,0-1.114-1.491,4.308,4.308,0,0,0-2.342-.6,4.429,4.429,0,0,0-2.452.585,1.906,1.906,0,0,0-.893,1.7,1.852,1.852,0,0,0,.446,1.282,3.755,3.755,0,0,0,1.408.893,23.762,23.762,0,0,0,2.773.863,19.281,19.281,0,0,1,3.916,1.255,5.138,5.138,0,0,1,2.16,1.756,4.823,4.823,0,0,1,.7,2.7,5.049,5.049,0,0,1-.989,3.108,6.142,6.142,0,0,1-2.788,2.021,11.409,11.409,0,0,1-4.139.7A10.929,10.929,0,0,1,394.844,366.483Z" fill="#d64933"/><path d="M411.5,366.665a4.726,4.726,0,0,1-1.867-1.548,3.784,3.784,0,0,1,.849-5.212,9.212,9.212,0,0,1,4.209-1.589l3.819-.557v-.585a2.5,2.5,0,0,0-.613-1.84,2.721,2.721,0,0,0-1.979-.613,2.837,2.837,0,0,0-1.491.348,4.9,4.9,0,0,0-.906.683c-.223.242-.373.4-.446.474a.423.423,0,0,1-.419.335h-2.145a.615.615,0,0,1-.433-.168.575.575,0,0,1-.18-.446,3.011,3.011,0,0,1,.682-1.589,5.157,5.157,0,0,1,2.021-1.532,7.825,7.825,0,0,1,3.344-.641q3.29,0,4.8,1.477a5.187,5.187,0,0,1,1.5,3.874v8.752a.67.67,0,0,1-.181.474.637.637,0,0,1-.488.195h-2.258a.667.667,0,0,1-.669-.669V365.2a4.546,4.546,0,0,1-1.742,1.464,6.177,6.177,0,0,1-2.8.571A5.928,5.928,0,0,1,411.5,366.665Zm6.063-3.081a4.032,4.032,0,0,0,.975-2.926v-.586l-2.787.447a6.056,6.056,0,0,0-2.439.808,1.624,1.624,0,0,0-.823,1.365,1.585,1.585,0,0,0,.753,1.394,3.2,3.2,0,0,0,1.812.5A3.351,3.351,0,0,0,417.561,363.584Z" fill="#d64933"/><path d="M429.378,365.257v1.031a.674.674,0,0,1-.181.474.635.635,0,0,1-.488.195h-2.2a.666.666,0,0,1-.669-.669V347.836a.633.633,0,0,1,.195-.487.671.671,0,0,1,.474-.182h2.369a.625.625,0,0,1,.669.669v6.188a5.382,5.382,0,0,1,4.293-1.839,5.264,5.264,0,0,1,4.32,1.839,7.773,7.773,0,0,1,1.616,4.767c.019.222.029.52.029.891q0,.585-.029.92a7.777,7.777,0,0,1-1.616,4.822,5.3,5.3,0,0,1-4.32,1.812A5.4,5.4,0,0,1,429.378,365.257Zm6.634-4.711c.018-.185.028-.464.028-.836s-.01-.65-.028-.836q-.195-3.707-3.2-3.707a2.925,2.925,0,0,0-2.384.989,3.861,3.861,0,0,0-.878,2.384l-.027,1.059.027,1.087a4.516,4.516,0,0,0,.864,2.536,2.814,2.814,0,0,0,2.4,1.031Q435.816,364.253,436.012,360.546Z" fill="#d64933"/><path d="M444.22,365.438a7.142,7.142,0,0,1-1.937-5.059l-.028-.7.028-.7A7.183,7.183,0,0,1,444.248,354a6.643,6.643,0,0,1,4.892-1.811,6.48,6.48,0,0,1,5.087,2.006,7.724,7.724,0,0,1,1.8,5.352v.585a.645.645,0,0,1-.195.474.679.679,0,0,1-.5.2h-9.253v.223a4.409,4.409,0,0,0,.85,2.578,2.6,2.6,0,0,0,2.188,1.046,3.2,3.2,0,0,0,2.648-1.283,1.658,1.658,0,0,1,.4-.39,1,1,0,0,1,.46-.083h2.4a.649.649,0,0,1,.432.153.477.477,0,0,1,.181.376,2.6,2.6,0,0,1-.794,1.575,6.573,6.573,0,0,1-2.272,1.575,8.239,8.239,0,0,1-3.428.669A6.706,6.706,0,0,1,444.22,365.438Zm8.013-6.982v-.084a4.048,4.048,0,0,0-.822-2.648,2.776,2.776,0,0,0-2.271-1,2.737,2.737,0,0,0-2.258,1,4.094,4.094,0,0,0-.808,2.648v.084Z" fill="#d64933"/><path d="M459.174,366.762a.641.641,0,0,1-.195-.474V353.16a.691.691,0,0,1,.195-.488.622.622,0,0,1,.473-.209h2.258a.669.669,0,0,1,.7.7V354.3a4.386,4.386,0,0,1,1.686-1.366,5.45,5.45,0,0,1,2.327-.474h1.143a.625.625,0,0,1,.669.669v2.007a.674.674,0,0,1-.181.474.634.634,0,0,1-.488.195h-2.174a2.6,2.6,0,0,0-2.815,2.815v7.665a.645.645,0,0,1-.195.474.682.682,0,0,1-.5.195h-2.425A.641.641,0,0,1,459.174,366.762Z" fill="#d64933"/><path d="M478.378,366.608a5.487,5.487,0,0,1-2.1-1.477,2.517,2.517,0,0,1-.682-1.463.554.554,0,0,1,.195-.446.662.662,0,0,1,.446-.167h2.2a.528.528,0,0,1,.418.195q.111.084.586.5a3.408,3.408,0,0,0,1.114.7,3.853,3.853,0,0,0,1.422.251,3.45,3.45,0,0,0,1.839-.446,1.46,1.46,0,0,0,.405-2.174,2.792,2.792,0,0,0-1.157-.655,20.325,20.325,0,0,0-2.481-.627,7.433,7.433,0,0,1-3.5-1.533,3.52,3.52,0,0,1-1.129-2.731,3.7,3.7,0,0,1,.669-2.105,4.811,4.811,0,0,1,1.993-1.616,7.332,7.332,0,0,1,3.163-.627,8,8,0,0,1,3.234.6,5.771,5.771,0,0,1,2.077,1.421,2.388,2.388,0,0,1,.71,1.463.594.594,0,0,1-.181.433.588.588,0,0,1-.432.181h-2.063a.785.785,0,0,1-.474-.2,7.173,7.173,0,0,1-.613-.529,3.1,3.1,0,0,0-.975-.613,3.513,3.513,0,0,0-1.31-.223,2.549,2.549,0,0,0-1.6.446,1.412,1.412,0,0,0-.571,1.17,1.309,1.309,0,0,0,.278.865,2.691,2.691,0,0,0,1.087.641,15.539,15.539,0,0,0,2.425.613A7.65,7.65,0,0,1,487.2,360.1a3.649,3.649,0,0,1,1.156,2.732,3.752,3.752,0,0,1-1.7,3.177,8.033,8.033,0,0,1-4.766,1.227A8.684,8.684,0,0,1,478.378,366.608Z" fill="#d64933"/><path d="M492.593,365.549a6.488,6.488,0,0,1-1.923-4.612l-.028-1.227.028-1.226a6.453,6.453,0,0,1,1.951-4.6,8.253,8.253,0,0,1,10.034,0,6.453,6.453,0,0,1,1.951,4.6q.029.334.028,1.226c0,.6-.009,1-.028,1.227a6.493,6.493,0,0,1-1.923,4.612,8.387,8.387,0,0,1-10.09,0Zm7.331-2.007a4.41,4.41,0,0,0,.891-2.745c.019-.185.029-.548.029-1.087s-.01-.9-.029-1.087a4.417,4.417,0,0,0-.891-2.746,3.266,3.266,0,0,0-4.571,0,4.411,4.411,0,0,0-.892,2.746l-.028,1.087.028,1.087a4.4,4.4,0,0,0,.892,2.745,3.261,3.261,0,0,0,4.571,0Z" fill="#d64933"/><path d="M511.3,365.257v1.031a.674.674,0,0,1-.181.474.635.635,0,0,1-.488.195h-2.2a.666.666,0,0,1-.669-.669V347.836a.633.633,0,0,1,.195-.487.671.671,0,0,1,.474-.182h2.369a.625.625,0,0,1,.669.669v6.188a5.382,5.382,0,0,1,4.293-1.839,5.264,5.264,0,0,1,4.32,1.839,7.773,7.773,0,0,1,1.616,4.767c.019.222.029.52.029.891q0,.585-.029.92a7.777,7.777,0,0,1-1.616,4.822,5.3,5.3,0,0,1-4.32,1.812A5.4,5.4,0,0,1,511.3,365.257Zm6.634-4.711c.018-.185.028-.464.028-.836s-.01-.65-.028-.836q-.2-3.707-3.2-3.707a2.925,2.925,0,0,0-2.384.989,3.861,3.861,0,0,0-.878,2.384l-.027,1.059.027,1.087a4.516,4.516,0,0,0,.864,2.536,2.814,2.814,0,0,0,2.4,1.031Q517.733,364.253,517.929,360.546Z" fill="#d64933"/><path d="M525.009,366.762a.642.642,0,0,1-.2-.474V353.16a.692.692,0,0,1,.2-.488.622.622,0,0,1,.473-.209h2.258a.669.669,0,0,1,.7.7V354.3a4.386,4.386,0,0,1,1.686-1.366,5.45,5.45,0,0,1,2.327-.474h1.143a.625.625,0,0,1,.669.669v2.007a.674.674,0,0,1-.181.474.634.634,0,0,1-.488.195h-2.174a2.6,2.6,0,0,0-2.815,2.815v7.665a.645.645,0,0,1-.2.474.682.682,0,0,1-.5.195h-2.425A.641.641,0,0,1,525.009,366.762Z" fill="#d64933"/><path d="M537.565,365.438a7.146,7.146,0,0,1-1.936-5.059l-.028-.7.028-.7A7.183,7.183,0,0,1,537.594,354a6.64,6.64,0,0,1,4.891-1.811,6.477,6.477,0,0,1,5.087,2.006,7.719,7.719,0,0,1,1.8,5.352v.585a.645.645,0,0,1-.2.474.679.679,0,0,1-.5.2H539.42v.223a4.4,4.4,0,0,0,.85,2.578,2.6,2.6,0,0,0,2.188,1.046,3.2,3.2,0,0,0,2.647-1.283,1.64,1.64,0,0,1,.4-.39,1,1,0,0,1,.46-.083h2.4a.649.649,0,0,1,.433.153.476.476,0,0,1,.18.376,2.594,2.594,0,0,1-.793,1.575,6.592,6.592,0,0,1-2.272,1.575,8.24,8.24,0,0,1-3.429.669A6.708,6.708,0,0,1,537.565,365.438Zm8.014-6.982v-.084a4.048,4.048,0,0,0-.822-2.648,2.777,2.777,0,0,0-2.272-1,2.737,2.737,0,0,0-2.257,1,4.088,4.088,0,0,0-.808,2.648v.084Z" fill="#d64933"/><path d="M558.9,366.762a.641.641,0,0,1-.2-.474V353.132a.666.666,0,0,1,.669-.669h2.174a.667.667,0,0,1,.669.669v.948a4.8,4.8,0,0,1,4.042-1.895,4.407,4.407,0,0,1,4.32,2.48,4.977,4.977,0,0,1,1.895-1.8,5.355,5.355,0,0,1,2.648-.682,4.865,4.865,0,0,1,3.734,1.56,6.444,6.444,0,0,1,1.451,4.544v8a.671.671,0,0,1-.182.474.633.633,0,0,1-.487.195h-2.286a.666.666,0,0,1-.669-.669v-7.776a3.673,3.673,0,0,0-.739-2.551,2.557,2.557,0,0,0-1.965-.794,2.464,2.464,0,0,0-1.853.808,3.583,3.583,0,0,0-.767,2.537v7.776a.666.666,0,0,1-.669.669h-2.286a.667.667,0,0,1-.669-.669v-7.776a3.58,3.58,0,0,0-.766-2.551,2.58,2.58,0,0,0-1.937-.794,2.5,2.5,0,0,0-1.882.808,3.592,3.592,0,0,0-.766,2.537v7.776a.667.667,0,0,1-.669.669h-2.341A.642.642,0,0,1,558.9,366.762Z" fill="#d64933"/><path d="M585.171,365.438a7.147,7.147,0,0,1-1.937-5.059l-.028-.7.028-.7A7.183,7.183,0,0,1,585.2,354a6.643,6.643,0,0,1,4.892-1.811,6.48,6.48,0,0,1,5.087,2.006,7.724,7.724,0,0,1,1.8,5.352v.585a.646.646,0,0,1-.2.474.679.679,0,0,1-.5.2h-9.253v.223a4.416,4.416,0,0,0,.85,2.578,2.6,2.6,0,0,0,2.188,1.046,3.2,3.2,0,0,0,2.648-1.283,1.658,1.658,0,0,1,.4-.39,1,1,0,0,1,.46-.083h2.4a.647.647,0,0,1,.432.153.477.477,0,0,1,.181.376,2.6,2.6,0,0,1-.794,1.575,6.578,6.578,0,0,1-2.271,1.575,8.244,8.244,0,0,1-3.429.669A6.706,6.706,0,0,1,585.171,365.438Zm8.014-6.982v-.084a4.049,4.049,0,0,0-.823-2.648,2.775,2.775,0,0,0-2.271-1,2.737,2.737,0,0,0-2.258,1,4.094,4.094,0,0,0-.808,2.648v.084Z" fill="#d64933"/><path d="M601.269,365.549a6.709,6.709,0,0,1-1.478-4.585v-7.832a.666.666,0,0,1,.669-.669h2.453a.627.627,0,0,1,.669.669V360.8q0,3.457,3.038,3.456a2.974,2.974,0,0,0,2.3-.92,3.591,3.591,0,0,0,.851-2.536v-7.665a.666.666,0,0,1,.668-.669h2.454a.627.627,0,0,1,.669.669v13.156a.671.671,0,0,1-.182.474.633.633,0,0,1-.487.195h-2.258a.666.666,0,0,1-.669-.669v-1.142a5.443,5.443,0,0,1-4.655,2.09A5.09,5.09,0,0,1,601.269,365.549Z" fill="#d64933"/><path d="M619.218,366.608a5.479,5.479,0,0,1-2.1-1.477,2.517,2.517,0,0,1-.682-1.463.554.554,0,0,1,.195-.446.662.662,0,0,1,.446-.167h2.2a.526.526,0,0,1,.418.195q.112.084.586.5a3.423,3.423,0,0,0,1.115.7,3.852,3.852,0,0,0,1.421.251,3.452,3.452,0,0,0,1.84-.446,1.46,1.46,0,0,0,.4-2.174,2.79,2.79,0,0,0-1.158-.655,20.25,20.25,0,0,0-2.48-.627,7.433,7.433,0,0,1-3.5-1.533,3.52,3.52,0,0,1-1.129-2.731,3.7,3.7,0,0,1,.669-2.105,4.811,4.811,0,0,1,1.993-1.616,7.332,7.332,0,0,1,3.163-.627,8,8,0,0,1,3.234.6,5.771,5.771,0,0,1,2.077,1.421,2.388,2.388,0,0,1,.71,1.463.618.618,0,0,1-.614.614h-2.062a.783.783,0,0,1-.474-.2,7.018,7.018,0,0,1-.613-.529,3.1,3.1,0,0,0-.976-.613,3.5,3.5,0,0,0-1.309-.223,2.549,2.549,0,0,0-1.6.446,1.409,1.409,0,0,0-.571,1.17,1.309,1.309,0,0,0,.278.865,2.691,2.691,0,0,0,1.087.641,15.539,15.539,0,0,0,2.425.613,7.65,7.65,0,0,1,3.833,1.644,3.649,3.649,0,0,1,1.156,2.732,3.752,3.752,0,0,1-1.7,3.177,8.037,8.037,0,0,1-4.767,1.227A8.682,8.682,0,0,1,619.218,366.608Z" fill="#d64933"/></g><g style="isolation:isolate"><path d="M392.53,400.208a.641.641,0,0,1-.195-.473V381.59a.707.707,0,0,1,.182-.5.631.631,0,0,1,.487-.2h6.8q8.2,0,8.362,7.581.056,1.617.056,2.174,0,.529-.056,2.146-.111,3.9-2.091,5.756t-6.132,1.854H393A.642.642,0,0,1,392.53,400.208Zm7.275-3.01a4.6,4.6,0,0,0,3.373-1.045,4.952,4.952,0,0,0,1.087-3.442q.056-1.673.055-2.09,0-.447-.055-2.063a3.983,3.983,0,0,0-4.6-4.46H396.21v13.1Z" fill="#d64933"/><path d="M413.2,400.111a4.724,4.724,0,0,1-1.867-1.547,3.783,3.783,0,0,1,.85-5.212,9.2,9.2,0,0,1,4.209-1.589l3.818-.557v-.585a2.5,2.5,0,0,0-.613-1.84,2.719,2.719,0,0,0-1.979-.614,2.837,2.837,0,0,0-1.491.349,4.9,4.9,0,0,0-.906.683c-.223.241-.372.4-.446.474a.421.421,0,0,1-.419.334h-2.145a.614.614,0,0,1-.433-.167.575.575,0,0,1-.18-.446,3.008,3.008,0,0,1,.682-1.589,5.175,5.175,0,0,1,2.021-1.533,7.842,7.842,0,0,1,3.345-.641q3.288,0,4.794,1.477a5.191,5.191,0,0,1,1.5,3.875v8.752a.666.666,0,0,1-.181.473.631.631,0,0,1-.488.2h-2.257a.667.667,0,0,1-.669-.669v-1.087a4.555,4.555,0,0,1-1.743,1.463,6.159,6.159,0,0,1-2.8.572A5.916,5.916,0,0,1,413.2,400.111Zm6.063-3.08a4.035,4.035,0,0,0,.975-2.927v-.585l-2.787.446a6.077,6.077,0,0,0-2.439.808,1.626,1.626,0,0,0-.822,1.366,1.585,1.585,0,0,0,.752,1.394,3.2,3.2,0,0,0,1.812.5A3.351,3.351,0,0,0,419.261,397.031Z" fill="#d64933"/><path d="M428.569,398.871a7.777,7.777,0,0,1-1.616-4.822l-.028-.92.028-.892a7.6,7.6,0,0,1,1.6-4.766,5.3,5.3,0,0,1,4.334-1.84,5.385,5.385,0,0,1,4.293,1.84v-6.188a.633.633,0,0,1,.195-.488.671.671,0,0,1,.474-.181h2.369a.625.625,0,0,1,.669.669v18.452a.667.667,0,0,1-.182.473.63.63,0,0,1-.487.2h-2.2a.667.667,0,0,1-.669-.669V398.7a5.4,5.4,0,0,1-4.46,1.979A5.3,5.3,0,0,1,428.569,398.871Zm7.749-2.2a4.52,4.52,0,0,0,.865-2.537c.017-.222.027-.585.027-1.087,0-.483-.01-.836-.027-1.059a3.867,3.867,0,0,0-.878-2.383,2.926,2.926,0,0,0-2.384-.989q-3.011,0-3.2,3.707l-.028.836.028.836q.195,3.707,3.2,3.707A2.813,2.813,0,0,0,436.318,396.669Z" fill="#d64933"/><path d="M445.962,399a6.491,6.491,0,0,1-1.923-4.613l-.028-1.226.028-1.226a6.453,6.453,0,0,1,1.951-4.6,8.249,8.249,0,0,1,10.034,0,6.458,6.458,0,0,1,1.952,4.6q.027.333.027,1.226t-.027,1.226A6.5,6.5,0,0,1,456.052,399a8.387,8.387,0,0,1-10.09,0Zm7.331-2.007a4.416,4.416,0,0,0,.892-2.745c.018-.185.028-.548.028-1.087s-.01-.9-.028-1.087a4.421,4.421,0,0,0-.892-2.746,3.266,3.266,0,0,0-4.571,0,4.415,4.415,0,0,0-.892,2.746l-.028,1.087.028,1.087a4.41,4.41,0,0,0,.892,2.745,3.263,3.263,0,0,0,4.571,0Z" fill="#d64933"/><path d="M463.075,400.055a5.474,5.474,0,0,1-2.1-1.477,2.52,2.52,0,0,1-.683-1.463.557.557,0,0,1,.195-.446.665.665,0,0,1,.447-.168h2.2a.527.527,0,0,1,.418.2c.074.055.269.223.586.5a3.408,3.408,0,0,0,1.114.7,3.878,3.878,0,0,0,1.422.251,3.457,3.457,0,0,0,1.84-.446,1.46,1.46,0,0,0,.4-2.174,2.792,2.792,0,0,0-1.157-.655,20.325,20.325,0,0,0-2.481-.627,7.443,7.443,0,0,1-3.5-1.533,3.522,3.522,0,0,1-1.129-2.732,3.692,3.692,0,0,1,.669-2.1,4.833,4.833,0,0,1,1.993-1.617,7.333,7.333,0,0,1,3.164-.627,8.007,8.007,0,0,1,3.233.6,5.764,5.764,0,0,1,2.077,1.422,2.382,2.382,0,0,1,.71,1.463.62.62,0,0,1-.613.614H469.82a.782.782,0,0,1-.473-.2,7.333,7.333,0,0,1-.614-.529,3.1,3.1,0,0,0-.975-.613,3.508,3.508,0,0,0-1.31-.224,2.542,2.542,0,0,0-1.6.447,1.41,1.41,0,0,0-.572,1.17,1.3,1.3,0,0,0,.279.864,2.672,2.672,0,0,0,1.087.642,15.521,15.521,0,0,0,2.424.613,7.646,7.646,0,0,1,3.833,1.644,3.65,3.65,0,0,1,1.157,2.732,3.755,3.755,0,0,1-1.7,3.177,8.037,8.037,0,0,1-4.767,1.227A8.684,8.684,0,0,1,463.075,400.055Z" fill="#d64933"/><path d="M482.837,400.208a.641.641,0,0,1-.195-.473V381.59a.707.707,0,0,1,.181-.5.632.632,0,0,1,.488-.2h7.469a8.078,8.078,0,0,1,5.269,1.575,5.617,5.617,0,0,1,1.923,4.613,5.554,5.554,0,0,1-1.91,4.585,8.167,8.167,0,0,1-5.282,1.546h-4.152v6.523a.667.667,0,0,1-.182.473.63.63,0,0,1-.487.2h-2.648A.642.642,0,0,1,482.837,400.208Zm7.805-10.089a3.62,3.62,0,0,0,2.48-.767,2.877,2.877,0,0,0,.864-2.271,3.043,3.043,0,0,0-.836-2.272,3.443,3.443,0,0,0-2.508-.822h-4.07v6.132Z" fill="#d64933"/><path d="M501.805,398.885a7.142,7.142,0,0,1-1.937-5.059l-.028-.7.028-.7a7.183,7.183,0,0,1,1.965-4.989,6.639,6.639,0,0,1,4.892-1.812,6.477,6.477,0,0,1,5.087,2.007,7.724,7.724,0,0,1,1.8,5.352v.585a.645.645,0,0,1-.2.474.679.679,0,0,1-.5.2h-9.253v.223a4.4,4.4,0,0,0,.85,2.578,2.6,2.6,0,0,0,2.188,1.045,3.2,3.2,0,0,0,2.648-1.282,1.64,1.64,0,0,1,.4-.39.984.984,0,0,1,.46-.084h2.4a.65.65,0,0,1,.433.154.476.476,0,0,1,.181.376,2.6,2.6,0,0,1-.794,1.575,6.586,6.586,0,0,1-2.272,1.575,8.255,8.255,0,0,1-3.428.669A6.709,6.709,0,0,1,501.805,398.885Zm8.013-6.982v-.084a4.048,4.048,0,0,0-.822-2.648,2.777,2.777,0,0,0-2.271-1,2.738,2.738,0,0,0-2.258,1,4.094,4.094,0,0,0-.808,2.648v.084Z" fill="#d64933"/><path d="M518.542,400.055a5.474,5.474,0,0,1-2.1-1.477,2.513,2.513,0,0,1-.683-1.463.554.554,0,0,1,.2-.446.664.664,0,0,1,.446-.168h2.2a.529.529,0,0,1,.418.2c.074.055.269.223.586.5a3.408,3.408,0,0,0,1.114.7,3.878,3.878,0,0,0,1.422.251,3.457,3.457,0,0,0,1.84-.446,1.46,1.46,0,0,0,.4-2.174,2.792,2.792,0,0,0-1.157-.655,20.325,20.325,0,0,0-2.481-.627,7.443,7.443,0,0,1-3.5-1.533,3.522,3.522,0,0,1-1.129-2.732,3.692,3.692,0,0,1,.669-2.1,4.82,4.82,0,0,1,1.993-1.617,7.332,7.332,0,0,1,3.163-.627,8.009,8.009,0,0,1,3.234.6,5.773,5.773,0,0,1,2.077,1.422,2.382,2.382,0,0,1,.71,1.463.62.62,0,0,1-.613.614h-2.063a.785.785,0,0,1-.474-.2A7.365,7.365,0,0,1,524.2,389a3.1,3.1,0,0,0-.975-.613,3.508,3.508,0,0,0-1.31-.224,2.545,2.545,0,0,0-1.6.447,1.412,1.412,0,0,0-.571,1.17,1.3,1.3,0,0,0,.279.864,2.667,2.667,0,0,0,1.086.642,15.57,15.57,0,0,0,2.425.613,7.65,7.65,0,0,1,3.833,1.644,3.65,3.65,0,0,1,1.157,2.732,3.753,3.753,0,0,1-1.7,3.177,8.031,8.031,0,0,1-4.766,1.227A8.684,8.684,0,0,1,518.542,400.055Z" fill="#d64933"/><path d="M533.37,400.055a5.474,5.474,0,0,1-2.1-1.477,2.52,2.52,0,0,1-.683-1.463.554.554,0,0,1,.2-.446.665.665,0,0,1,.447-.168h2.2a.529.529,0,0,1,.418.2c.074.055.269.223.586.5a3.408,3.408,0,0,0,1.114.7,3.878,3.878,0,0,0,1.422.251,3.457,3.457,0,0,0,1.84-.446,1.46,1.46,0,0,0,.4-2.174,2.792,2.792,0,0,0-1.157-.655,20.325,20.325,0,0,0-2.481-.627,7.443,7.443,0,0,1-3.5-1.533,3.522,3.522,0,0,1-1.129-2.732,3.692,3.692,0,0,1,.669-2.1,4.833,4.833,0,0,1,1.993-1.617,7.333,7.333,0,0,1,3.164-.627,8.007,8.007,0,0,1,3.233.6,5.773,5.773,0,0,1,2.077,1.422,2.382,2.382,0,0,1,.71,1.463.62.62,0,0,1-.613.614h-2.063a.782.782,0,0,1-.473-.2,7.333,7.333,0,0,1-.614-.529,3.1,3.1,0,0,0-.975-.613,3.508,3.508,0,0,0-1.31-.224,2.542,2.542,0,0,0-1.6.447,1.41,1.41,0,0,0-.572,1.17,1.3,1.3,0,0,0,.279.864,2.672,2.672,0,0,0,1.087.642,15.521,15.521,0,0,0,2.424.613,7.646,7.646,0,0,1,3.833,1.644,3.65,3.65,0,0,1,1.157,2.732,3.753,3.753,0,0,1-1.7,3.177,8.031,8.031,0,0,1-4.766,1.227A8.684,8.684,0,0,1,533.37,400.055Z" fill="#d64933"/><path d="M547.585,399a6.5,6.5,0,0,1-1.923-4.613l-.028-1.226.028-1.226a6.453,6.453,0,0,1,1.951-4.6,8.249,8.249,0,0,1,10.034,0,6.458,6.458,0,0,1,1.952,4.6q.027.333.027,1.226t-.027,1.226A6.5,6.5,0,0,1,557.675,399a8.387,8.387,0,0,1-10.09,0Zm7.331-2.007a4.416,4.416,0,0,0,.892-2.745c.018-.185.028-.548.028-1.087s-.01-.9-.028-1.087a4.421,4.421,0,0,0-.892-2.746,3.266,3.266,0,0,0-4.571,0,4.415,4.415,0,0,0-.892,2.746l-.028,1.087.028,1.087a4.41,4.41,0,0,0,.892,2.745,3.263,3.263,0,0,0,4.571,0Z" fill="#d64933"/><path d="M564.323,400.111a4.724,4.724,0,0,1-1.867-1.547,3.783,3.783,0,0,1,.85-5.212,9.2,9.2,0,0,1,4.209-1.589l3.818-.557v-.585a2.5,2.5,0,0,0-.613-1.84,2.719,2.719,0,0,0-1.979-.614,2.837,2.837,0,0,0-1.491.349,4.9,4.9,0,0,0-.906.683c-.223.241-.372.4-.446.474a.421.421,0,0,1-.419.334h-2.145a.614.614,0,0,1-.433-.167.575.575,0,0,1-.18-.446,3.008,3.008,0,0,1,.682-1.589,5.175,5.175,0,0,1,2.021-1.533,7.842,7.842,0,0,1,3.345-.641q3.288,0,4.794,1.477a5.191,5.191,0,0,1,1.5,3.875v8.752a.666.666,0,0,1-.181.473.631.631,0,0,1-.488.2h-2.257a.667.667,0,0,1-.669-.669v-1.087a4.555,4.555,0,0,1-1.743,1.463,6.159,6.159,0,0,1-2.8.572A5.916,5.916,0,0,1,564.323,400.111Zm6.063-3.08a4.035,4.035,0,0,0,.975-2.927v-.585l-2.787.446a6.077,6.077,0,0,0-2.439.808,1.627,1.627,0,0,0-.823,1.366,1.586,1.586,0,0,0,.753,1.394,3.2,3.2,0,0,0,1.812.5A3.351,3.351,0,0,0,570.386,397.031Z" fill="#d64933"/><path d="M578.719,383.318a.645.645,0,0,1-.2-.474v-2.007a.666.666,0,0,1,.669-.669h2.536a.692.692,0,0,1,.488.195.627.627,0,0,1,.209.474v2.007a.645.645,0,0,1-.2.474.679.679,0,0,1-.5.195h-2.536A.645.645,0,0,1,578.719,383.318Zm.112,16.89a.638.638,0,0,1-.2-.473V386.579a.666.666,0,0,1,.669-.669h2.313a.625.625,0,0,1,.669.669v13.156a.662.662,0,0,1-.182.473.63.63,0,0,1-.487.2H579.3A.639.639,0,0,1,578.831,400.208Z" fill="#d64933"/><path d="M587.973,400.055a5.471,5.471,0,0,1-2.1-1.477,2.517,2.517,0,0,1-.682-1.463.554.554,0,0,1,.195-.446.663.663,0,0,1,.446-.168h2.2a.527.527,0,0,1,.418.2c.075.055.27.223.586.5a3.429,3.429,0,0,0,1.114.7,3.882,3.882,0,0,0,1.422.251,3.452,3.452,0,0,0,1.84-.446,1.458,1.458,0,0,0,.4-2.174,2.778,2.778,0,0,0-1.157-.655,20.3,20.3,0,0,0-2.48-.627,7.443,7.443,0,0,1-3.5-1.533,3.522,3.522,0,0,1-1.129-2.732,3.692,3.692,0,0,1,.669-2.1,4.82,4.82,0,0,1,1.993-1.617,7.329,7.329,0,0,1,3.163-.627,8.007,8.007,0,0,1,3.233.6,5.768,5.768,0,0,1,2.078,1.422,2.388,2.388,0,0,1,.71,1.463.62.62,0,0,1-.614.614h-2.062a.783.783,0,0,1-.474-.2,7.2,7.2,0,0,1-.613-.529,3.1,3.1,0,0,0-.976-.613,3.5,3.5,0,0,0-1.309-.224,2.543,2.543,0,0,0-1.6.447,1.409,1.409,0,0,0-.571,1.17,1.307,1.307,0,0,0,.278.864,2.679,2.679,0,0,0,1.087.642,15.539,15.539,0,0,0,2.425.613,7.654,7.654,0,0,1,3.833,1.644,3.652,3.652,0,0,1,1.156,2.732,3.752,3.752,0,0,1-1.7,3.177,8.037,8.037,0,0,1-4.767,1.227A8.682,8.682,0,0,1,587.973,400.055Z" fill="#d64933"/></g></g><g id="Retângulo_20-2" data-name="Retângulo 20-2"><path d="M321.872,309.817h25.086v133.79H321.872a13.936,13.936,0,0,1-13.936-13.936V323.754A13.936,13.936,0,0,1,321.872,309.817Z" fill="#d64933"/></g><g id="botão"><g id="Elipse_1" data-name="Elipse 1"><circle cx="704.427" cy="374.622" r="28.57" fill="#d64933"/></g><g id="Caminho_37" data-name="Caminho 37"><path d="M699.32,389.212a1,1,0,0,1-.707-1.707l13.057-13.056-13.057-13.057a1,1,0,0,1,1.414-1.414l13.764,13.764a1,1,0,0,1,0,1.414l-13.764,13.763A.993.993,0,0,1,699.32,389.212Z" fill="#fff"/></g></g><g id="Retângulo_18-2" data-name="Retângulo 18-2"><rect x="307.936" y="647.079" width="461.296" height="133.79" rx="13.936" fill="#fff"/></g><g id="Acompanhar_as_minhas_solicitações_" data-name="Acompanhar as minhas solicitações " style="isolation:isolate"><g style="isolation:isolate"><path d="M390.732,709.625a.541.541,0,0,1-.18-.417l.055-.251,6.717-17.978a.906.906,0,0,1,.976-.7h3.038a.958.958,0,0,1,.975.7l6.718,17.978a.831.831,0,0,1,.028.251.566.566,0,0,1-.167.417.535.535,0,0,1-.39.168h-2.426a.823.823,0,0,1-.556-.168.744.744,0,0,1-.251-.362l-1.311-3.4H395.68l-1.31,3.4a.807.807,0,0,1-.808.53h-2.425A.582.582,0,0,1,390.732,709.625Zm12.25-6.967-3.177-8.613-3.15,8.613Z" fill="#398fce"/><path d="M412.529,708.372a6.469,6.469,0,0,1-1.937-4.711l-.029-1.115.029-1.115a6.465,6.465,0,0,1,1.937-4.71,6.887,6.887,0,0,1,4.892-1.7,8,8,0,0,1,3.692.78,5.749,5.749,0,0,1,2.258,1.909,4.406,4.406,0,0,1,.8,2.132.541.541,0,0,1-.182.474.688.688,0,0,1-.487.195h-2.453a.662.662,0,0,1-.432-.125,1.2,1.2,0,0,1-.293-.432,3.242,3.242,0,0,0-1.1-1.561,2.989,2.989,0,0,0-1.742-.474,2.836,2.836,0,0,0-2.231.906,4.22,4.22,0,0,0-.863,2.745l-.029,1.032.029.919q.11,3.653,3.094,3.652a2.972,2.972,0,0,0,1.755-.474,3.281,3.281,0,0,0,1.087-1.561,1.206,1.206,0,0,1,.293-.432.668.668,0,0,1,.432-.125H423.5a.688.688,0,0,1,.487.195.542.542,0,0,1,.182.474,4.37,4.37,0,0,1-.78,2.09,5.913,5.913,0,0,1-2.231,1.923,7.816,7.816,0,0,1-3.734.809A6.892,6.892,0,0,1,412.529,708.372Z" fill="#398fce"/><path d="M428.43,708.385a6.489,6.489,0,0,1-1.923-4.613l-.028-1.226.028-1.226a6.453,6.453,0,0,1,1.951-4.6,8.253,8.253,0,0,1,10.034,0,6.453,6.453,0,0,1,1.951,4.6c.019.222.028.632.028,1.226s-.009,1-.028,1.226a6.493,6.493,0,0,1-1.923,4.613,8.387,8.387,0,0,1-10.09,0Zm7.331-2.007a4.41,4.41,0,0,0,.891-2.745c.019-.185.029-.548.029-1.087s-.01-.9-.029-1.087a4.415,4.415,0,0,0-.891-2.746,3.267,3.267,0,0,0-4.572,0,4.415,4.415,0,0,0-.891,2.746l-.028,1.087.028,1.087a4.41,4.41,0,0,0,.891,2.745,3.265,3.265,0,0,0,4.572,0Z" fill="#398fce"/><path d="M443.761,709.6a.642.642,0,0,1-.2-.474V695.968a.667.667,0,0,1,.669-.669h2.174a.666.666,0,0,1,.669.669v.948a4.8,4.8,0,0,1,4.042-1.9,4.406,4.406,0,0,1,4.32,2.48,4.992,4.992,0,0,1,1.895-1.8,5.355,5.355,0,0,1,2.648-.682,4.867,4.867,0,0,1,3.735,1.56,6.444,6.444,0,0,1,1.45,4.544v8a.671.671,0,0,1-.182.474.633.633,0,0,1-.487.2h-2.286a.666.666,0,0,1-.669-.669v-7.776a3.673,3.673,0,0,0-.738-2.551A2.559,2.559,0,0,0,458.84,698a2.461,2.461,0,0,0-1.854.808,3.588,3.588,0,0,0-.766,2.537v7.776a.667.667,0,0,1-.669.669h-2.286a.666.666,0,0,1-.669-.669v-7.776a3.575,3.575,0,0,0-.767-2.551,2.578,2.578,0,0,0-1.936-.794,2.488,2.488,0,0,0-1.882.808,3.588,3.588,0,0,0-.767,2.537v7.776a.666.666,0,0,1-.669.669h-2.341A.641.641,0,0,1,443.761,709.6Z" fill="#398fce"/><path d="M468.93,714.908a.636.636,0,0,1-.2-.488V695.968a.637.637,0,0,1,.2-.488.674.674,0,0,1,.473-.181h2.2a.623.623,0,0,1,.669.669v1.115a5.26,5.26,0,0,1,4.46-2.062,5.358,5.358,0,0,1,4.321,1.77,7.588,7.588,0,0,1,1.616,4.779c.018.223.028.549.028.976,0,.446-.01.781-.028,1a7.59,7.59,0,0,1-1.616,4.725,5.32,5.32,0,0,1-4.321,1.8,5.029,5.029,0,0,1-4.293-1.979v6.327a.623.623,0,0,1-.669.669H469.4A.674.674,0,0,1,468.93,714.908Zm9.978-11.526q.029-.277.029-.836c0-.372-.01-.65-.029-.836Q478.713,698,475.7,698a2.813,2.813,0,0,0-2.4,1.031,4.511,4.511,0,0,0-.865,2.536l-.027,1.06.027,1.087a3.867,3.867,0,0,0,.878,2.383,2.922,2.922,0,0,0,2.384.989Q478.713,707.089,478.908,703.382Z" fill="#398fce"/><path d="M487.423,709.5a4.715,4.715,0,0,1-1.867-1.547,3.784,3.784,0,0,1,.849-5.212,9.212,9.212,0,0,1,4.209-1.589l3.819-.557v-.585a2.494,2.494,0,0,0-.614-1.84,2.716,2.716,0,0,0-1.978-.613,2.834,2.834,0,0,0-1.491.348,4.949,4.949,0,0,0-.907.683c-.222.242-.372.4-.445.474a.422.422,0,0,1-.419.334h-2.145a.614.614,0,0,1-.433-.167.576.576,0,0,1-.181-.446,3.014,3.014,0,0,1,.683-1.589,5.153,5.153,0,0,1,2.02-1.532,7.833,7.833,0,0,1,3.345-.641q3.289,0,4.8,1.477a5.187,5.187,0,0,1,1.5,3.874v8.752a.671.671,0,0,1-.182.474.633.633,0,0,1-.487.2h-2.258a.667.667,0,0,1-.669-.669v-1.087a4.535,4.535,0,0,1-1.742,1.463,6.164,6.164,0,0,1-2.8.572A5.915,5.915,0,0,1,487.423,709.5Zm6.062-3.08a4.03,4.03,0,0,0,.976-2.926v-.586l-2.787.446a6.065,6.065,0,0,0-2.44.809,1.625,1.625,0,0,0-.822,1.365,1.585,1.585,0,0,0,.753,1.394,3.2,3.2,0,0,0,1.812.5A3.347,3.347,0,0,0,493.485,706.42Z" fill="#398fce"/><path d="M501.931,709.6a.642.642,0,0,1-.2-.474V695.968a.667.667,0,0,1,.669-.669h2.285a.666.666,0,0,1,.669.669v1.143a5.581,5.581,0,0,1,4.656-2.09,5.182,5.182,0,0,1,4.069,1.686,6.636,6.636,0,0,1,1.5,4.585v7.832a.674.674,0,0,1-.181.474.635.635,0,0,1-.488.2h-2.453a.666.666,0,0,1-.669-.669v-7.665a3.746,3.746,0,0,0-.794-2.55,2.894,2.894,0,0,0-2.3-.906,3.015,3.015,0,0,0-2.327.919,3.6,3.6,0,0,0-.851,2.537v7.665a.674.674,0,0,1-.18.474.634.634,0,0,1-.489.2H502.4A.641.641,0,0,1,501.931,709.6Z" fill="#398fce"/><path d="M519.351,709.6a.646.646,0,0,1-.2-.474V690.672a.634.634,0,0,1,.2-.487.668.668,0,0,1,.473-.182h2.482a.627.627,0,0,1,.669.669v6.355a5.567,5.567,0,0,1,4.514-2.006,5.27,5.27,0,0,1,4.1,1.686,6.562,6.562,0,0,1,1.533,4.585v7.832a.666.666,0,0,1-.182.474.633.633,0,0,1-.487.2h-2.509a.667.667,0,0,1-.669-.669v-7.665a3.741,3.741,0,0,0-.794-2.55,2.9,2.9,0,0,0-2.3-.906,3.061,3.061,0,0,0-2.342.919,3.56,3.56,0,0,0-.863,2.537v7.665a.671.671,0,0,1-.182.474.633.633,0,0,1-.487.2h-2.482A.643.643,0,0,1,519.351,709.6Z" fill="#398fce"/><path d="M538.263,709.5a4.715,4.715,0,0,1-1.867-1.547,3.784,3.784,0,0,1,.849-5.212,9.212,9.212,0,0,1,4.209-1.589l3.818-.557v-.585a2.5,2.5,0,0,0-.613-1.84,2.716,2.716,0,0,0-1.978-.613,2.838,2.838,0,0,0-1.492.348,4.973,4.973,0,0,0-.906.683c-.222.242-.372.4-.445.474a.422.422,0,0,1-.419.334h-2.146a.612.612,0,0,1-.432-.167.576.576,0,0,1-.181-.446,3.014,3.014,0,0,1,.683-1.589,5.153,5.153,0,0,1,2.02-1.532,7.83,7.83,0,0,1,3.345-.641q3.288,0,4.8,1.477a5.187,5.187,0,0,1,1.5,3.874v8.752a.671.671,0,0,1-.182.474.633.633,0,0,1-.487.2h-2.258a.666.666,0,0,1-.669-.669v-1.087a4.535,4.535,0,0,1-1.742,1.463,6.167,6.167,0,0,1-2.8.572A5.915,5.915,0,0,1,538.263,709.5Zm6.062-3.08a4.03,4.03,0,0,0,.976-2.926v-.586l-2.787.446a6.065,6.065,0,0,0-2.44.809,1.623,1.623,0,0,0-.822,1.365,1.585,1.585,0,0,0,.753,1.394,3.193,3.193,0,0,0,1.811.5A3.348,3.348,0,0,0,544.325,706.42Z" fill="#398fce"/><path d="M552.771,709.6a.642.642,0,0,1-.2-.474V696a.691.691,0,0,1,.2-.488.62.62,0,0,1,.473-.209H555.5a.668.668,0,0,1,.7.7v1.143a4.4,4.4,0,0,1,1.687-1.366,5.447,5.447,0,0,1,2.327-.474h1.142a.623.623,0,0,1,.669.669v2.007a.674.674,0,0,1-.18.474.634.634,0,0,1-.489.2h-2.173a2.6,2.6,0,0,0-2.816,2.815v7.665a.644.644,0,0,1-.194.474.682.682,0,0,1-.5.2h-2.425A.64.64,0,0,1,552.771,709.6Z" fill="#398fce"/><path d="M571.6,709.5a4.725,4.725,0,0,1-1.868-1.547,3.786,3.786,0,0,1,.85-5.212,9.212,9.212,0,0,1,4.209-1.589l3.818-.557v-.585a2.5,2.5,0,0,0-.613-1.84,2.716,2.716,0,0,0-1.978-.613,2.838,2.838,0,0,0-1.492.348,4.973,4.973,0,0,0-.906.683c-.223.242-.372.4-.445.474a.422.422,0,0,1-.419.334h-2.146a.612.612,0,0,1-.432-.167.576.576,0,0,1-.181-.446,3.014,3.014,0,0,1,.683-1.589,5.153,5.153,0,0,1,2.02-1.532,7.83,7.83,0,0,1,3.345-.641q3.288,0,4.8,1.477a5.187,5.187,0,0,1,1.5,3.874v8.752a.671.671,0,0,1-.182.474.633.633,0,0,1-.487.2h-2.258a.666.666,0,0,1-.669-.669v-1.087a4.535,4.535,0,0,1-1.742,1.463,6.167,6.167,0,0,1-2.8.572A5.915,5.915,0,0,1,571.6,709.5Zm6.062-3.08a4.03,4.03,0,0,0,.976-2.926v-.586l-2.787.446a6.06,6.06,0,0,0-2.44.809,1.623,1.623,0,0,0-.822,1.365,1.585,1.585,0,0,0,.753,1.394,3.193,3.193,0,0,0,1.811.5A3.348,3.348,0,0,0,577.661,706.42Z" fill="#398fce"/><path d="M587.89,709.444a5.471,5.471,0,0,1-2.105-1.477,2.517,2.517,0,0,1-.682-1.463.554.554,0,0,1,.2-.446.662.662,0,0,1,.446-.167h2.2a.526.526,0,0,1,.418.2q.112.084.586.5a3.429,3.429,0,0,0,1.114.7,3.861,3.861,0,0,0,1.422.251,3.452,3.452,0,0,0,1.84-.446,1.458,1.458,0,0,0,.4-2.174,2.778,2.778,0,0,0-1.157-.655,20.3,20.3,0,0,0-2.48-.627,7.433,7.433,0,0,1-3.5-1.533,3.52,3.52,0,0,1-1.129-2.731,3.693,3.693,0,0,1,.669-2.105,4.82,4.82,0,0,1,1.993-1.617,7.329,7.329,0,0,1,3.163-.626,7.99,7.99,0,0,1,3.233.6,5.767,5.767,0,0,1,2.078,1.421,2.388,2.388,0,0,1,.71,1.463.618.618,0,0,1-.614.614h-2.062a.783.783,0,0,1-.474-.2,7.018,7.018,0,0,1-.613-.529,3.1,3.1,0,0,0-.976-.613,3.5,3.5,0,0,0-1.309-.223,2.549,2.549,0,0,0-1.6.446,1.409,1.409,0,0,0-.571,1.17,1.311,1.311,0,0,0,.278.865,2.691,2.691,0,0,0,1.087.641,15.539,15.539,0,0,0,2.425.613,7.654,7.654,0,0,1,3.833,1.644,3.652,3.652,0,0,1,1.156,2.732,3.752,3.752,0,0,1-1.7,3.177,8.037,8.037,0,0,1-4.767,1.227A8.682,8.682,0,0,1,587.89,709.444Z" fill="#398fce"/></g><g style="isolation:isolate"><path d="M392.2,743.045a.638.638,0,0,1-.2-.473V729.416a.666.666,0,0,1,.669-.669h2.174a.667.667,0,0,1,.669.669v.947a4.8,4.8,0,0,1,4.042-1.9,4.408,4.408,0,0,1,4.32,2.481,4.97,4.97,0,0,1,1.895-1.8,5.356,5.356,0,0,1,2.648-.683,4.866,4.866,0,0,1,3.734,1.561,6.443,6.443,0,0,1,1.451,4.543v8a.667.667,0,0,1-.182.473.63.63,0,0,1-.487.2h-2.287a.667.667,0,0,1-.668-.669V734.8a3.67,3.67,0,0,0-.739-2.55,2.554,2.554,0,0,0-1.965-.794,2.46,2.46,0,0,0-1.853.808,3.582,3.582,0,0,0-.767,2.536v7.777a.667.667,0,0,1-.669.669H401.7a.669.669,0,0,1-.669-.669V734.8a3.577,3.577,0,0,0-.766-2.55,2.576,2.576,0,0,0-1.937-.794,2.491,2.491,0,0,0-1.882.808,3.591,3.591,0,0,0-.766,2.536v7.777a.669.669,0,0,1-.669.669H392.67A.639.639,0,0,1,392.2,743.045Z" fill="#398fce"/><path d="M417.225,726.155a.645.645,0,0,1-.2-.474v-2.007a.666.666,0,0,1,.669-.669h2.536a.692.692,0,0,1,.488.2.627.627,0,0,1,.209.474v2.007a.645.645,0,0,1-.195.474.682.682,0,0,1-.5.2H417.7A.644.644,0,0,1,417.225,726.155Zm.112,16.89a.638.638,0,0,1-.195-.473V729.416a.666.666,0,0,1,.669-.669h2.313a.625.625,0,0,1,.669.669v13.156a.667.667,0,0,1-.182.473.63.63,0,0,1-.487.2h-2.313A.639.639,0,0,1,417.337,743.045Z" fill="#398fce"/><path d="M424.7,743.045a.638.638,0,0,1-.195-.473V729.416a.666.666,0,0,1,.669-.669h2.285a.666.666,0,0,1,.669.669v1.143a5.58,5.58,0,0,1,4.655-2.091,5.184,5.184,0,0,1,4.07,1.686,6.641,6.641,0,0,1,1.5,4.586v7.832a.67.67,0,0,1-.181.473.632.632,0,0,1-.488.2H435.23a.667.667,0,0,1-.668-.669v-7.665a3.749,3.749,0,0,0-.794-2.551,2.9,2.9,0,0,0-2.3-.9,3.01,3.01,0,0,0-2.327.919,3.589,3.589,0,0,0-.851,2.537v7.665a.67.67,0,0,1-.181.473.631.631,0,0,1-.488.2h-2.452A.639.639,0,0,1,424.7,743.045Z" fill="#398fce"/><path d="M442.115,743.045a.641.641,0,0,1-.195-.473V724.12a.635.635,0,0,1,.195-.488.674.674,0,0,1,.474-.181h2.481a.624.624,0,0,1,.669.669v6.355a5.57,5.57,0,0,1,4.515-2.007,5.27,5.27,0,0,1,4.1,1.686,6.567,6.567,0,0,1,1.533,4.586v7.832a.667.667,0,0,1-.182.473.63.63,0,0,1-.487.2h-2.509a.667.667,0,0,1-.669-.669v-7.665a3.749,3.749,0,0,0-.794-2.551,2.9,2.9,0,0,0-2.3-.9,3.057,3.057,0,0,0-2.341.919,3.554,3.554,0,0,0-.864,2.537v7.665a.666.666,0,0,1-.181.473.632.632,0,0,1-.488.2h-2.481A.642.642,0,0,1,442.115,743.045Z" fill="#398fce"/><path d="M461.027,742.948a4.724,4.724,0,0,1-1.867-1.547,3.786,3.786,0,0,1,.85-5.212,9.207,9.207,0,0,1,4.209-1.589l3.818-.558v-.584a2.5,2.5,0,0,0-.613-1.84,2.715,2.715,0,0,0-1.979-.614,2.837,2.837,0,0,0-1.491.349,4.86,4.86,0,0,0-.906.683c-.223.241-.372.4-.445.474a.424.424,0,0,1-.419.334h-2.146a.616.616,0,0,1-.433-.167.577.577,0,0,1-.18-.446,3.008,3.008,0,0,1,.682-1.589,5.175,5.175,0,0,1,2.021-1.533,7.842,7.842,0,0,1,3.345-.641q3.288,0,4.795,1.477a5.19,5.19,0,0,1,1.5,3.875v8.752a.666.666,0,0,1-.181.473.63.63,0,0,1-.487.2h-2.258a.667.667,0,0,1-.669-.669v-1.087a4.544,4.544,0,0,1-1.742,1.463,6.167,6.167,0,0,1-2.8.572A5.919,5.919,0,0,1,461.027,742.948Zm6.063-3.08a4.035,4.035,0,0,0,.975-2.927v-.585l-2.787.446a6.077,6.077,0,0,0-2.439.808,1.624,1.624,0,0,0-.822,1.366,1.586,1.586,0,0,0,.753,1.394,3.191,3.191,0,0,0,1.811.5A3.349,3.349,0,0,0,467.09,739.868Z" fill="#398fce"/><path d="M477.318,742.892a5.474,5.474,0,0,1-2.1-1.477,2.52,2.52,0,0,1-.683-1.463.555.555,0,0,1,.2-.446.661.661,0,0,1,.446-.168h2.2a.527.527,0,0,1,.418.2c.074.055.27.223.586.5a3.408,3.408,0,0,0,1.114.7,3.882,3.882,0,0,0,1.422.251,3.463,3.463,0,0,0,1.84-.446,1.458,1.458,0,0,0,.4-2.174,2.785,2.785,0,0,0-1.157-.655,20.349,20.349,0,0,0-2.48-.627,7.442,7.442,0,0,1-3.5-1.533,3.525,3.525,0,0,1-1.128-2.732,3.691,3.691,0,0,1,.668-2.1,4.83,4.83,0,0,1,1.994-1.617,7.329,7.329,0,0,1,3.163-.627,8.007,8.007,0,0,1,3.233.6,5.764,5.764,0,0,1,2.077,1.422,2.382,2.382,0,0,1,.71,1.463.616.616,0,0,1-.613.613h-2.063a.787.787,0,0,1-.473-.2,7.2,7.2,0,0,1-.613-.529,3.1,3.1,0,0,0-.976-.613,3.508,3.508,0,0,0-1.31-.224,2.542,2.542,0,0,0-1.6.447,1.409,1.409,0,0,0-.571,1.17,1.3,1.3,0,0,0,.278.864,2.661,2.661,0,0,0,1.087.641,15.376,15.376,0,0,0,2.425.614,7.654,7.654,0,0,1,3.833,1.644,3.651,3.651,0,0,1,1.156,2.732,3.755,3.755,0,0,1-1.7,3.177,8.037,8.037,0,0,1-4.767,1.227A8.691,8.691,0,0,1,477.318,742.892Z" fill="#398fce"/><path d="M498.529,742.892a5.474,5.474,0,0,1-2.1-1.477,2.52,2.52,0,0,1-.683-1.463.555.555,0,0,1,.2-.446.661.661,0,0,1,.446-.168h2.2a.527.527,0,0,1,.418.2c.074.055.269.223.586.5a3.408,3.408,0,0,0,1.114.7,3.878,3.878,0,0,0,1.422.251,3.466,3.466,0,0,0,1.84-.446,1.46,1.46,0,0,0,.4-2.174,2.785,2.785,0,0,0-1.157-.655,20.325,20.325,0,0,0-2.481-.627,7.443,7.443,0,0,1-3.5-1.533,3.522,3.522,0,0,1-1.129-2.732,3.692,3.692,0,0,1,.669-2.1,4.83,4.83,0,0,1,1.994-1.617,7.325,7.325,0,0,1,3.163-.627,8.007,8.007,0,0,1,3.233.6,5.764,5.764,0,0,1,2.077,1.422,2.382,2.382,0,0,1,.71,1.463.616.616,0,0,1-.613.613h-2.063a.787.787,0,0,1-.473-.2,7.2,7.2,0,0,1-.613-.529,3.1,3.1,0,0,0-.976-.613A3.508,3.508,0,0,0,501.9,731a2.542,2.542,0,0,0-1.6.447,1.409,1.409,0,0,0-.571,1.17,1.3,1.3,0,0,0,.278.864,2.661,2.661,0,0,0,1.087.641,15.376,15.376,0,0,0,2.425.614,7.654,7.654,0,0,1,3.833,1.644,3.651,3.651,0,0,1,1.156,2.732,3.755,3.755,0,0,1-1.7,3.177,8.037,8.037,0,0,1-4.767,1.227A8.687,8.687,0,0,1,498.529,742.892Z" fill="#398fce"/><path d="M512.744,741.833a6.5,6.5,0,0,1-1.923-4.613l-.028-1.226.028-1.226a6.457,6.457,0,0,1,1.951-4.6,8.255,8.255,0,0,1,10.035,0,6.461,6.461,0,0,1,1.951,4.6q.027.333.027,1.226t-.027,1.226a6.5,6.5,0,0,1-1.924,4.613,8.387,8.387,0,0,1-10.09,0Zm7.331-2.007a4.416,4.416,0,0,0,.892-2.745c.018-.185.028-.548.028-1.087s-.01-.9-.028-1.087a4.421,4.421,0,0,0-.892-2.746,3.266,3.266,0,0,0-4.571,0,4.415,4.415,0,0,0-.892,2.746l-.028,1.087.028,1.087a4.41,4.41,0,0,0,.892,2.745,3.263,3.263,0,0,0,4.571,0Z" fill="#398fce"/><path d="M528.1,743.045a.642.642,0,0,1-.2-.473V724.12a.636.636,0,0,1,.2-.488.672.672,0,0,1,.473-.181h2.314a.624.624,0,0,1,.669.669v18.452a.67.67,0,0,1-.181.473.632.632,0,0,1-.488.2h-2.314A.64.64,0,0,1,528.1,743.045Z" fill="#398fce"/><path d="M535.349,726.155a.645.645,0,0,1-.2-.474v-2.007a.666.666,0,0,1,.669-.669h2.536a.692.692,0,0,1,.488.2.627.627,0,0,1,.209.474v2.007a.645.645,0,0,1-.2.474.682.682,0,0,1-.5.2h-2.536A.645.645,0,0,1,535.349,726.155Zm.112,16.89a.638.638,0,0,1-.2-.473V729.416a.666.666,0,0,1,.669-.669h2.313a.625.625,0,0,1,.669.669v13.156a.667.667,0,0,1-.182.473.63.63,0,0,1-.487.2h-2.313A.639.639,0,0,1,535.461,743.045Z" fill="#398fce"/><path d="M544,741.819a6.466,6.466,0,0,1-1.938-4.71l-.028-1.115.028-1.115A6.47,6.47,0,0,1,544,730.168a6.892,6.892,0,0,1,4.892-1.7,8.006,8.006,0,0,1,3.692.781,5.741,5.741,0,0,1,2.258,1.909,4.406,4.406,0,0,1,.795,2.132.544.544,0,0,1-.182.474.692.692,0,0,1-.487.195h-2.453a.66.66,0,0,1-.432-.126,1.176,1.176,0,0,1-.293-.432,3.245,3.245,0,0,0-1.1-1.56,2.989,2.989,0,0,0-1.742-.474,2.835,2.835,0,0,0-2.23.906,4.226,4.226,0,0,0-.864,2.745l-.028,1.031.028.92q.111,3.652,3.094,3.652a2.973,2.973,0,0,0,1.756-.474,3.288,3.288,0,0,0,1.087-1.561,1.185,1.185,0,0,1,.293-.432.66.66,0,0,1,.432-.126h2.453a.693.693,0,0,1,.487.2.543.543,0,0,1,.182.473,4.362,4.362,0,0,1-.781,2.091,5.91,5.91,0,0,1-2.23,1.923,7.816,7.816,0,0,1-3.734.809A6.888,6.888,0,0,1,544,741.819Z" fill="#398fce"/><path d="M558.623,726.155a.644.644,0,0,1-.194-.474v-2.007a.664.664,0,0,1,.669-.669h2.536a.692.692,0,0,1,.487.2.623.623,0,0,1,.209.474v2.007a.644.644,0,0,1-.194.474.682.682,0,0,1-.5.2H559.1A.646.646,0,0,1,558.623,726.155Zm.112,16.89a.638.638,0,0,1-.2-.473V729.416a.666.666,0,0,1,.669-.669h2.313a.624.624,0,0,1,.669.669v13.156a.666.666,0,0,1-.181.473.631.631,0,0,1-.488.2h-2.313A.639.639,0,0,1,558.735,743.045Z" fill="#398fce"/><path d="M568.643,741.917a5.412,5.412,0,0,1-1.269-3.889V731.7h-2.2a.622.622,0,0,1-.475-.209A.691.691,0,0,1,564.5,731v-1.588a.664.664,0,0,1,.669-.669h2.2V724.12a.635.635,0,0,1,.195-.488.674.674,0,0,1,.474-.181H570.3a.624.624,0,0,1,.669.669v4.627h3.484a.624.624,0,0,1,.669.669V731a.679.679,0,0,1-.2.5.645.645,0,0,1-.474.2H570.97v6.049a3.223,3.223,0,0,0,.418,1.812,1.566,1.566,0,0,0,1.394.613h1.923a.666.666,0,0,1,.669.669v1.728a.667.667,0,0,1-.182.473.63.63,0,0,1-.487.2h-2.258A5.035,5.035,0,0,1,568.643,741.917Z" fill="#398fce"/><path d="M579.457,742.948a4.724,4.724,0,0,1-1.867-1.547,3.784,3.784,0,0,1,.849-5.212,9.212,9.212,0,0,1,4.209-1.589l3.819-.558v-.584a2.5,2.5,0,0,0-.613-1.84,2.716,2.716,0,0,0-1.979-.614,2.837,2.837,0,0,0-1.491.349,4.86,4.86,0,0,0-.906.683c-.223.241-.373.4-.446.474a.423.423,0,0,1-.419.334h-2.145a.614.614,0,0,1-.433-.167.577.577,0,0,1-.181-.446,3.019,3.019,0,0,1,.683-1.589,5.168,5.168,0,0,1,2.021-1.533,7.84,7.84,0,0,1,3.344-.641q3.289,0,4.795,1.477a5.191,5.191,0,0,1,1.5,3.875v8.752a.666.666,0,0,1-.181.473.634.634,0,0,1-.488.2h-2.258a.669.669,0,0,1-.669-.669v-1.087a4.544,4.544,0,0,1-1.742,1.463,6.164,6.164,0,0,1-2.8.572A5.915,5.915,0,0,1,579.457,742.948Zm6.063-3.08a4.035,4.035,0,0,0,.975-2.927v-.585l-2.787.446a6.071,6.071,0,0,0-2.439.808,1.626,1.626,0,0,0-.823,1.366,1.586,1.586,0,0,0,.753,1.394,3.2,3.2,0,0,0,1.812.5A3.351,3.351,0,0,0,585.52,739.868Z" fill="#398fce"/><path d="M598.383,748.982q-.738-.39-.738-.78a.378.378,0,0,1,.139-.251l.474-.418a.4.4,0,0,1,.278-.139,1.633,1.633,0,0,1,.53.251,1.989,1.989,0,0,0,.948.223,1.059,1.059,0,0,0,.738-.265.88.88,0,0,0,.293-.683.807.807,0,0,0-.293-.641,1.093,1.093,0,0,0-.738-.251,2.549,2.549,0,0,0-.7.112,2.474,2.474,0,0,1-.53.111.481.481,0,0,1-.39-.167l-.5-.5a.477.477,0,0,1-.112-.307,1.318,1.318,0,0,1,.167-.557l.585-1.338a6.126,6.126,0,0,1-3.818-2.007,6.749,6.749,0,0,1-1.5-4.264l-.028-1.115.028-1.115a6.469,6.469,0,0,1,1.937-4.711,6.892,6.892,0,0,1,4.892-1.7,8,8,0,0,1,3.692.781,5.741,5.741,0,0,1,2.258,1.909,4.406,4.406,0,0,1,.8,2.132.542.542,0,0,1-.182.474.688.688,0,0,1-.487.195h-2.453a.662.662,0,0,1-.432-.126,1.188,1.188,0,0,1-.293-.432,3.244,3.244,0,0,0-1.1-1.56,2.989,2.989,0,0,0-1.742-.474,2.836,2.836,0,0,0-2.231.906,4.22,4.22,0,0,0-.863,2.745l-.028,1.031.028.92q.109,3.652,3.094,3.652a2.977,2.977,0,0,0,1.756-.474,3.287,3.287,0,0,0,1.086-1.561,1.2,1.2,0,0,1,.293-.432.662.662,0,0,1,.432-.126h2.453a.689.689,0,0,1,.487.2.541.541,0,0,1,.182.473,4.431,4.431,0,0,1-.766,2.091,5.82,5.82,0,0,1-2.2,1.923,7.67,7.67,0,0,1-3.693.809l-.585,1.2a1.786,1.786,0,0,1,.446-.139,2.649,2.649,0,0,1,.53-.056,2.043,2.043,0,0,1,1.56.655,2.4,2.4,0,0,1,.613,1.714,2.43,2.43,0,0,1-.7,1.77,2.571,2.571,0,0,1-1.924.711A3.545,3.545,0,0,1,598.383,748.982Z" fill="#398fce"/><path d="M611.051,741.833a6.491,6.491,0,0,1-1.923-4.613l-.028-1.226.028-1.226a6.457,6.457,0,0,1,1.951-4.6,8.253,8.253,0,0,1,10.034,0,6.457,6.457,0,0,1,1.951,4.6q.029.333.028,1.226t-.028,1.226a6.5,6.5,0,0,1-1.923,4.613,8.387,8.387,0,0,1-10.09,0Zm5.686-15.19a5.126,5.126,0,0,1-.836-.433q-.057-.027-.39-.223a1.494,1.494,0,0,0-.669-.167.609.609,0,0,0-.391.112,1.884,1.884,0,0,0-.306.334,1.186,1.186,0,0,1-.25.307.511.511,0,0,1-.307.083h-1.282a.476.476,0,0,1-.475-.473,3.453,3.453,0,0,1,.293-1.338,2.854,2.854,0,0,1,.906-1.171,2.384,2.384,0,0,1,1.5-.474,2.573,2.573,0,0,1,.947.154,5.122,5.122,0,0,1,.837.432q.251.14.516.264a1.247,1.247,0,0,0,.543.126.614.614,0,0,0,.4-.126,1.4,1.4,0,0,0,.293-.348,1.755,1.755,0,0,1,.251-.293.449.449,0,0,1,.307-.1h1.282a.425.425,0,0,1,.348.153.534.534,0,0,1,.126.348,3.228,3.228,0,0,1-.307,1.324,3.118,3.118,0,0,1-.92,1.171,2.344,2.344,0,0,1-1.5.488A2.515,2.515,0,0,1,616.737,726.643Zm1.645,13.183a4.41,4.41,0,0,0,.891-2.745c.019-.185.029-.548.029-1.087s-.01-.9-.029-1.087a4.415,4.415,0,0,0-.891-2.746,3.266,3.266,0,0,0-4.571,0,4.409,4.409,0,0,0-.892,2.746l-.028,1.087.028,1.087a4.4,4.4,0,0,0,.892,2.745,3.263,3.263,0,0,0,4.571,0Z" fill="#398fce"/><path d="M627.51,741.722a7.142,7.142,0,0,1-1.937-5.059l-.028-.7.028-.7a7.183,7.183,0,0,1,1.965-4.989,6.639,6.639,0,0,1,4.892-1.812,6.477,6.477,0,0,1,5.087,2.007,7.724,7.724,0,0,1,1.8,5.352v.585a.645.645,0,0,1-.195.474.679.679,0,0,1-.5.2h-9.253v.223a4.409,4.409,0,0,0,.85,2.578,2.6,2.6,0,0,0,2.188,1.045,3.2,3.2,0,0,0,2.648-1.282,1.658,1.658,0,0,1,.4-.39.984.984,0,0,1,.46-.084h2.4a.648.648,0,0,1,.432.154.476.476,0,0,1,.181.376,2.6,2.6,0,0,1-.794,1.575,6.586,6.586,0,0,1-2.272,1.575,8.255,8.255,0,0,1-3.428.669A6.71,6.71,0,0,1,627.51,741.722Zm8.013-6.982v-.084a4.048,4.048,0,0,0-.822-2.648,2.776,2.776,0,0,0-2.271-1,2.738,2.738,0,0,0-2.258,1,4.094,4.094,0,0,0-.808,2.648v.084Z" fill="#398fce"/><path d="M644.247,742.892a5.474,5.474,0,0,1-2.1-1.477,2.52,2.52,0,0,1-.683-1.463.554.554,0,0,1,.195-.446.665.665,0,0,1,.447-.168h2.2a.529.529,0,0,1,.418.2c.074.055.269.223.586.5a3.408,3.408,0,0,0,1.114.7,3.878,3.878,0,0,0,1.422.251,3.466,3.466,0,0,0,1.84-.446,1.46,1.46,0,0,0,.4-2.174,2.792,2.792,0,0,0-1.157-.655,20.325,20.325,0,0,0-2.481-.627,7.443,7.443,0,0,1-3.5-1.533,3.522,3.522,0,0,1-1.129-2.732,3.692,3.692,0,0,1,.669-2.1,4.833,4.833,0,0,1,1.993-1.617,7.332,7.332,0,0,1,3.163-.627,8.009,8.009,0,0,1,3.234.6,5.773,5.773,0,0,1,2.077,1.422,2.382,2.382,0,0,1,.71,1.463.618.618,0,0,1-.613.613h-2.063a.787.787,0,0,1-.473-.2,7.333,7.333,0,0,1-.614-.529,3.079,3.079,0,0,0-.975-.613,3.508,3.508,0,0,0-1.31-.224,2.54,2.54,0,0,0-1.6.447,1.41,1.41,0,0,0-.572,1.17,1.3,1.3,0,0,0,.279.864,2.654,2.654,0,0,0,1.087.641,15.387,15.387,0,0,0,2.424.614,7.646,7.646,0,0,1,3.833,1.644,3.648,3.648,0,0,1,1.157,2.732,3.753,3.753,0,0,1-1.7,3.177,8.031,8.031,0,0,1-4.766,1.227A8.684,8.684,0,0,1,644.247,742.892Z" fill="#398fce"/></g></g><g id="Retângulo_22-2" data-name="Retângulo 22-2"><path d="M321.872,647.079h25.086v133.79H321.872a13.936,13.936,0,0,1-13.936-13.937V661.015A13.936,13.936,0,0,1,321.872,647.079Z" fill="#398fce"/></g><g id="botão-3"><g id="Elipse_1-2" data-name="Elipse 1-2"><circle cx="704.427" cy="711.883" r="28.57" fill="#398fce"/></g><g id="Caminho_37-3" data-name="Caminho 37-3"><path d="M699.32,726.474a1,1,0,0,1-.707-1.707L711.67,711.71l-13.057-13.056a1,1,0,0,1,1.414-1.414L713.791,711a1,1,0,0,1,0,1.414l-13.764,13.764A1,1,0,0,1,699.32,726.474Z" fill="#fff"/></g></g><g id="Retângulo_17-2" data-name="Retângulo 17-2"><rect x="307.936" y="474.267" width="461.296" height="133.79" rx="13.936" fill="#fff"/></g><g id="Retângulo_23-2" data-name="Retângulo 23-2"><path d="M321.872,474.267h25.086v133.79H321.872a13.936,13.936,0,0,1-13.936-13.937V488.2A13.936,13.936,0,0,1,321.872,474.267Z" fill="#ce7e39"/></g><g id="botão-2"><g id="Caminho_38" data-name="Caminho 38"><path d="M704.427,510.5a28.57,28.57,0,1,1-28.57,28.57A28.57,28.57,0,0,1,704.427,510.5Z" fill="#ce7e39"/></g><g id="Caminho_37-2" data-name="Caminho 37-2"><path d="M699.32,553.662a1,1,0,0,1-.707-1.707L711.67,538.9l-13.057-13.057a1,1,0,0,1,1.414-1.414l13.764,13.764a1,1,0,0,1,0,1.414l-13.764,13.763A.993.993,0,0,1,699.32,553.662Z" fill="#fff"/></g></g><g id="Conhecer_sobre_o_uso_da_LGPD" data-name="Conhecer sobre o uso da LGPD" style="isolation:isolate"><g style="isolation:isolate"><path d="M393.91,529.707a7.717,7.717,0,0,1-2.244-5.575q-.029-.751-.027-2.452,0-1.728.027-2.509a7.677,7.677,0,0,1,2.272-5.561,8.338,8.338,0,0,1,5.923-1.992,10.213,10.213,0,0,1,4.321.85,6.823,6.823,0,0,1,2.842,2.313,6.038,6.038,0,0,1,1.059,3.3v.056a.476.476,0,0,1-.181.376.612.612,0,0,1-.4.153h-2.647a.767.767,0,0,1-.5-.139,1.07,1.07,0,0,1-.28-.53,4.07,4.07,0,0,0-1.476-2.466,4.787,4.787,0,0,0-2.76-.711q-4.014,0-4.181,4.488-.027.751-.028,2.313t.028,2.369q.168,4.488,4.181,4.487a4.78,4.78,0,0,0,2.773-.724,3.967,3.967,0,0,0,1.463-2.453.89.89,0,0,1,.266-.53.834.834,0,0,1,.516-.139H407.5a.618.618,0,0,1,.432.167.467.467,0,0,1,.153.418,6.035,6.035,0,0,1-1.059,3.3,6.817,6.817,0,0,1-2.842,2.314,10.213,10.213,0,0,1-4.321.85A8.354,8.354,0,0,1,393.91,529.707Z" fill="#ce7e39"/><path d="M412.431,530a6.493,6.493,0,0,1-1.923-4.613l-.029-1.227.029-1.226a6.453,6.453,0,0,1,1.951-4.6,8.253,8.253,0,0,1,10.034,0,6.453,6.453,0,0,1,1.951,4.6q.029.335.028,1.226t-.028,1.227A6.5,6.5,0,0,1,422.521,530a8.391,8.391,0,0,1-10.09,0Zm7.331-2.007a4.41,4.41,0,0,0,.891-2.745q.029-.279.029-1.088c0-.538-.01-.9-.029-1.087a4.414,4.414,0,0,0-.891-2.745,3.265,3.265,0,0,0-4.572,0,4.408,4.408,0,0,0-.891,2.745l-.028,1.087.028,1.088a4.4,4.4,0,0,0,.891,2.745,3.265,3.265,0,0,0,4.572,0Z" fill="#ce7e39"/><path d="M427.762,531.212a.641.641,0,0,1-.2-.474V517.583a.666.666,0,0,1,.669-.669h2.286a.664.664,0,0,1,.668.669v1.142a5.584,5.584,0,0,1,4.656-2.09,5.182,5.182,0,0,1,4.069,1.686,6.638,6.638,0,0,1,1.5,4.585v7.832a.673.673,0,0,1-.181.474.635.635,0,0,1-.488.2H438.3a.666.666,0,0,1-.669-.669v-7.665a3.746,3.746,0,0,0-.794-2.55,2.894,2.894,0,0,0-2.3-.906,3.012,3.012,0,0,0-2.327.92,3.593,3.593,0,0,0-.851,2.536v7.665a.672.672,0,0,1-.18.474.634.634,0,0,1-.488.2h-2.453A.641.641,0,0,1,427.762,531.212Z" fill="#ce7e39"/><path d="M445.182,531.212a.645.645,0,0,1-.2-.474V512.287a.634.634,0,0,1,.2-.488.669.669,0,0,1,.473-.181h2.482a.625.625,0,0,1,.669.669v6.355a5.568,5.568,0,0,1,4.514-2.007,5.268,5.268,0,0,1,4.1,1.686,6.564,6.564,0,0,1,1.533,4.585v7.832a.668.668,0,0,1-.181.474.637.637,0,0,1-.488.2h-2.509a.667.667,0,0,1-.669-.669v-7.665a3.746,3.746,0,0,0-.793-2.55,2.9,2.9,0,0,0-2.3-.906,3.059,3.059,0,0,0-2.342.92,3.557,3.557,0,0,0-.863,2.536v7.665a.669.669,0,0,1-.182.474.633.633,0,0,1-.487.2h-2.482A.645.645,0,0,1,445.182,531.212Z" fill="#ce7e39"/><path d="M463.814,529.888a7.146,7.146,0,0,1-1.936-5.059l-.028-.7.028-.7a7.184,7.184,0,0,1,1.965-4.99,6.64,6.64,0,0,1,4.891-1.811,6.474,6.474,0,0,1,5.087,2.007,7.715,7.715,0,0,1,1.8,5.351v.586a.645.645,0,0,1-.2.473.676.676,0,0,1-.5.2h-9.253v.222a4.4,4.4,0,0,0,.85,2.578,2.592,2.592,0,0,0,2.188,1.046,3.2,3.2,0,0,0,2.647-1.282,1.63,1.63,0,0,1,.405-.391,1,1,0,0,1,.46-.083h2.4a.649.649,0,0,1,.433.153.477.477,0,0,1,.181.376,2.6,2.6,0,0,1-.794,1.575,6.592,6.592,0,0,1-2.272,1.575,8.24,8.24,0,0,1-3.429.669A6.708,6.708,0,0,1,463.814,529.888Zm8.014-6.982v-.084a4.048,4.048,0,0,0-.822-2.648,2.777,2.777,0,0,0-2.272-1,2.737,2.737,0,0,0-2.257,1,4.094,4.094,0,0,0-.808,2.648v.084Z" fill="#ce7e39"/><path d="M479.953,529.986a6.464,6.464,0,0,1-1.937-4.711l-.029-1.115.029-1.115a6.463,6.463,0,0,1,1.937-4.71,6.892,6.892,0,0,1,4.892-1.7,8.007,8.007,0,0,1,3.692.78,5.758,5.758,0,0,1,2.258,1.909,4.409,4.409,0,0,1,.795,2.133.544.544,0,0,1-.182.474.689.689,0,0,1-.487.194h-2.453a.662.662,0,0,1-.432-.125,1.188,1.188,0,0,1-.293-.432,3.242,3.242,0,0,0-1.1-1.561,2.993,2.993,0,0,0-1.743-.474,2.835,2.835,0,0,0-2.23.906,4.221,4.221,0,0,0-.863,2.746l-.029,1.031.029.92q.109,3.651,3.093,3.651a2.973,2.973,0,0,0,1.756-.474,3.276,3.276,0,0,0,1.087-1.561,1.206,1.206,0,0,1,.293-.432.668.668,0,0,1,.432-.125h2.453a.69.69,0,0,1,.487.195.545.545,0,0,1,.182.474,4.373,4.373,0,0,1-.78,2.091,5.911,5.911,0,0,1-2.231,1.922,7.8,7.8,0,0,1-3.734.809A6.892,6.892,0,0,1,479.953,529.986Z" fill="#ce7e39"/><path d="M495.812,529.888a7.142,7.142,0,0,1-1.937-5.059l-.028-.7.028-.7a7.184,7.184,0,0,1,1.965-4.99,6.642,6.642,0,0,1,4.891-1.811,6.474,6.474,0,0,1,5.087,2.007,7.715,7.715,0,0,1,1.8,5.351v.586a.645.645,0,0,1-.195.473.676.676,0,0,1-.5.2h-9.253v.222a4.4,4.4,0,0,0,.85,2.578,2.592,2.592,0,0,0,2.188,1.046,3.2,3.2,0,0,0,2.648-1.282,1.63,1.63,0,0,1,.4-.391,1,1,0,0,1,.46-.083h2.4a.649.649,0,0,1,.433.153.477.477,0,0,1,.181.376,2.6,2.6,0,0,1-.794,1.575,6.583,6.583,0,0,1-2.272,1.575,8.24,8.24,0,0,1-3.429.669A6.7,6.7,0,0,1,495.812,529.888Zm8.013-6.982v-.084a4.048,4.048,0,0,0-.822-2.648,2.777,2.777,0,0,0-2.272-1,2.737,2.737,0,0,0-2.257,1,4.094,4.094,0,0,0-.808,2.648v.084Z" fill="#ce7e39"/><path d="M510.767,531.212a.641.641,0,0,1-.2-.474V517.61a.688.688,0,0,1,.2-.487.618.618,0,0,1,.473-.209H513.5a.666.666,0,0,1,.7.7v1.143a4.406,4.406,0,0,1,1.687-1.366,5.45,5.45,0,0,1,2.327-.473h1.143a.624.624,0,0,1,.669.669v2.006a.674.674,0,0,1-.181.474.634.634,0,0,1-.488.2h-2.174a2.6,2.6,0,0,0-2.816,2.815v7.665a.643.643,0,0,1-.194.474.682.682,0,0,1-.5.2H511.24A.641.641,0,0,1,510.767,531.212Z" fill="#ce7e39"/><path d="M529.97,531.059a5.482,5.482,0,0,1-2.105-1.477,2.522,2.522,0,0,1-.682-1.464.557.557,0,0,1,.2-.446.667.667,0,0,1,.446-.167h2.2a.526.526,0,0,1,.418.2q.113.084.586.5a3.421,3.421,0,0,0,1.115.7,3.852,3.852,0,0,0,1.421.251,3.461,3.461,0,0,0,1.84-.445,1.461,1.461,0,0,0,.4-2.175,2.779,2.779,0,0,0-1.158-.654,19.886,19.886,0,0,0-2.48-.627,7.443,7.443,0,0,1-3.5-1.534,3.52,3.52,0,0,1-1.129-2.731,3.7,3.7,0,0,1,.669-2.1,4.819,4.819,0,0,1,1.993-1.616,7.332,7.332,0,0,1,3.163-.627,8,8,0,0,1,3.234.6,5.771,5.771,0,0,1,2.077,1.421,2.39,2.39,0,0,1,.71,1.464.618.618,0,0,1-.614.613h-2.062a.787.787,0,0,1-.474-.195,7.079,7.079,0,0,1-.613-.53,3.1,3.1,0,0,0-.976-.613,3.524,3.524,0,0,0-1.309-.223,2.549,2.549,0,0,0-1.6.446,1.413,1.413,0,0,0-.571,1.171,1.309,1.309,0,0,0,.278.864,2.68,2.68,0,0,0,1.087.641,15.314,15.314,0,0,0,2.425.613,7.659,7.659,0,0,1,3.833,1.644,3.654,3.654,0,0,1,1.156,2.732,3.752,3.752,0,0,1-1.7,3.177,8.037,8.037,0,0,1-4.767,1.227A8.7,8.7,0,0,1,529.97,531.059Z" fill="#ce7e39"/><path d="M544.185,530a6.489,6.489,0,0,1-1.923-4.613l-.029-1.227.029-1.226a6.449,6.449,0,0,1,1.951-4.6,8.253,8.253,0,0,1,10.034,0,6.457,6.457,0,0,1,1.951,4.6q.029.335.028,1.226t-.028,1.227A6.5,6.5,0,0,1,554.274,530a8.39,8.39,0,0,1-10.089,0Zm7.331-2.007a4.41,4.41,0,0,0,.891-2.745q.029-.279.029-1.088c0-.538-.01-.9-.029-1.087a4.414,4.414,0,0,0-.891-2.745,3.265,3.265,0,0,0-4.572,0,4.408,4.408,0,0,0-.891,2.745l-.029,1.087.029,1.088a4.4,4.4,0,0,0,.891,2.745,3.265,3.265,0,0,0,4.572,0Z" fill="#ce7e39"/><path d="M562.888,529.707v1.031a.673.673,0,0,1-.181.474.635.635,0,0,1-.488.2h-2.2a.666.666,0,0,1-.669-.669V512.287a.634.634,0,0,1,.2-.488.67.67,0,0,1,.474-.181h2.369a.624.624,0,0,1,.669.669v6.187a5.382,5.382,0,0,1,4.293-1.839,5.264,5.264,0,0,1,4.32,1.839,7.777,7.777,0,0,1,1.616,4.767c.019.222.028.52.028.891q0,.585-.028.92a7.775,7.775,0,0,1-1.616,4.822,5.3,5.3,0,0,1-4.32,1.812A5.4,5.4,0,0,1,562.888,529.707Zm6.633-4.71q.029-.279.029-.837t-.029-.836q-.193-3.707-3.2-3.707a2.921,2.921,0,0,0-2.383.989,3.864,3.864,0,0,0-.878,2.384l-.028,1.059.028,1.087a4.5,4.5,0,0,0,.864,2.536,2.811,2.811,0,0,0,2.4,1.032Q569.326,528.7,569.521,525Z" fill="#ce7e39"/><path d="M576.6,531.212a.641.641,0,0,1-.2-.474V517.61a.688.688,0,0,1,.2-.487.617.617,0,0,1,.473-.209h2.258a.666.666,0,0,1,.7.7v1.143a4.406,4.406,0,0,1,1.687-1.366,5.45,5.45,0,0,1,2.327-.473h1.143a.623.623,0,0,1,.668.669v2.006a.674.674,0,0,1-.18.474.634.634,0,0,1-.488.2h-2.174a2.6,2.6,0,0,0-2.816,2.815v7.665a.643.643,0,0,1-.194.474.682.682,0,0,1-.5.2h-2.425A.64.64,0,0,1,576.6,531.212Z" fill="#ce7e39"/><path d="M589.157,529.888a7.142,7.142,0,0,1-1.936-5.059l-.029-.7.029-.7a7.179,7.179,0,0,1,1.965-4.99,6.639,6.639,0,0,1,4.891-1.811,6.474,6.474,0,0,1,5.087,2.007,7.72,7.72,0,0,1,1.8,5.351v.586a.649.649,0,0,1-.195.473.676.676,0,0,1-.5.2h-9.253v.222a4.4,4.4,0,0,0,.849,2.578,2.6,2.6,0,0,0,2.189,1.046,3.2,3.2,0,0,0,2.647-1.282,1.63,1.63,0,0,1,.4-.391.993.993,0,0,1,.46-.083h2.4a.649.649,0,0,1,.433.153.476.476,0,0,1,.18.376,2.591,2.591,0,0,1-.794,1.575,6.578,6.578,0,0,1-2.271,1.575,8.24,8.24,0,0,1-3.429.669A6.708,6.708,0,0,1,589.157,529.888Zm8.014-6.982v-.084a4.054,4.054,0,0,0-.822-2.648,2.777,2.777,0,0,0-2.272-1,2.737,2.737,0,0,0-2.258,1,4.093,4.093,0,0,0-.807,2.648v.084Z" fill="#ce7e39"/></g><g style="isolation:isolate"><path d="M393.366,563.447a6.5,6.5,0,0,1-1.923-4.613l-.028-1.227.028-1.226a6.457,6.457,0,0,1,1.952-4.6,8.253,8.253,0,0,1,10.034,0,6.46,6.46,0,0,1,1.951,4.6q.027.335.027,1.226c0,.6-.009,1-.027,1.227a6.5,6.5,0,0,1-1.924,4.613,8.391,8.391,0,0,1-10.09,0Zm7.331-2.007a4.416,4.416,0,0,0,.892-2.745c.018-.186.028-.549.028-1.088s-.01-.9-.028-1.086a4.421,4.421,0,0,0-.892-2.746,3.263,3.263,0,0,0-4.571,0,4.415,4.415,0,0,0-.892,2.746l-.028,1.086.028,1.088a4.41,4.41,0,0,0,.892,2.745,3.263,3.263,0,0,0,4.571,0Z" fill="#ce7e39"/><path d="M416.222,563.447a6.711,6.711,0,0,1-1.478-4.585V551.03a.666.666,0,0,1,.669-.669h2.453a.624.624,0,0,1,.669.669V558.7q0,3.456,3.038,3.456a2.977,2.977,0,0,0,2.3-.92,3.593,3.593,0,0,0,.851-2.536V551.03a.666.666,0,0,1,.669-.669h2.453a.625.625,0,0,1,.669.669v13.156a.667.667,0,0,1-.182.473.629.629,0,0,1-.487.2h-2.258a.666.666,0,0,1-.669-.668v-1.143a5.44,5.44,0,0,1-4.655,2.09A5.093,5.093,0,0,1,416.222,563.447Z" fill="#ce7e39"/><path d="M434.171,564.506a5.479,5.479,0,0,1-2.105-1.477,2.519,2.519,0,0,1-.682-1.464.553.553,0,0,1,.195-.445.663.663,0,0,1,.446-.168h2.2a.531.531,0,0,1,.418.2c.074.056.269.224.585.5a3.423,3.423,0,0,0,1.115.7,3.874,3.874,0,0,0,1.422.251,3.46,3.46,0,0,0,1.839-.446,1.46,1.46,0,0,0,.405-2.174,2.781,2.781,0,0,0-1.157-.655,19.958,19.958,0,0,0-2.481-.627,7.453,7.453,0,0,1-3.5-1.533,3.523,3.523,0,0,1-1.129-2.732,3.69,3.69,0,0,1,.669-2.1,4.82,4.82,0,0,1,1.993-1.617,7.332,7.332,0,0,1,3.163-.627,8.012,8.012,0,0,1,3.234.6,5.773,5.773,0,0,1,2.077,1.422,2.388,2.388,0,0,1,.71,1.463.618.618,0,0,1-.613.613h-2.063a.789.789,0,0,1-.474-.195,7.2,7.2,0,0,1-.613-.529,3.082,3.082,0,0,0-.975-.614,3.533,3.533,0,0,0-1.31-.223,2.549,2.549,0,0,0-1.6.446,1.415,1.415,0,0,0-.571,1.171,1.309,1.309,0,0,0,.278.864,2.669,2.669,0,0,0,1.087.641,15.406,15.406,0,0,0,2.425.614A7.65,7.65,0,0,1,442.993,558a3.647,3.647,0,0,1,1.156,2.731,3.755,3.755,0,0,1-1.7,3.178,8.033,8.033,0,0,1-4.766,1.226A8.7,8.7,0,0,1,434.171,564.506Z" fill="#ce7e39"/><path d="M448.387,563.447a6.491,6.491,0,0,1-1.923-4.613l-.028-1.227.028-1.226a6.456,6.456,0,0,1,1.951-4.6,8.253,8.253,0,0,1,10.034,0,6.456,6.456,0,0,1,1.951,4.6q.029.335.028,1.226c0,.6-.009,1-.028,1.227a6.5,6.5,0,0,1-1.923,4.613,8.391,8.391,0,0,1-10.09,0Zm7.331-2.007a4.41,4.41,0,0,0,.891-2.745q.029-.279.029-1.088t-.029-1.086a4.415,4.415,0,0,0-.891-2.746,3.265,3.265,0,0,0-4.572,0,4.415,4.415,0,0,0-.891,2.746l-.028,1.086.028,1.088a4.41,4.41,0,0,0,.891,2.745,3.265,3.265,0,0,0,4.572,0Z" fill="#ce7e39"/><path d="M470.963,563.321a7.774,7.774,0,0,1-1.616-4.821l-.029-.92.029-.892a7.6,7.6,0,0,1,1.6-4.767,5.3,5.3,0,0,1,4.334-1.839,5.382,5.382,0,0,1,4.293,1.839v-6.187a.634.634,0,0,1,.195-.488.668.668,0,0,1,.474-.181h2.369a.624.624,0,0,1,.669.669v18.452a.666.666,0,0,1-.181.473.633.633,0,0,1-.488.2h-2.2a.666.666,0,0,1-.669-.668v-1.032a5.394,5.394,0,0,1-4.46,1.979A5.3,5.3,0,0,1,470.963,563.321Zm7.749-2.2a4.522,4.522,0,0,0,.864-2.537c.018-.223.028-.585.028-1.087,0-.483-.01-.836-.028-1.059a3.865,3.865,0,0,0-.878-2.383,2.927,2.927,0,0,0-2.384-.99q-3.009,0-3.205,3.707l-.027.836.027.837q.195,3.707,3.205,3.707A2.815,2.815,0,0,0,478.712,561.12Z" fill="#ce7e39"/><path d="M488.593,564.562a4.724,4.724,0,0,1-1.867-1.547,3.784,3.784,0,0,1,.849-5.212,9.2,9.2,0,0,1,4.209-1.589l3.819-.558v-.585a2.5,2.5,0,0,0-.614-1.84,2.716,2.716,0,0,0-1.978-.613,2.822,2.822,0,0,0-1.491.349,4.949,4.949,0,0,0-.907.682c-.222.242-.372.4-.445.475a.423.423,0,0,1-.419.334H487.6a.618.618,0,0,1-.433-.167.577.577,0,0,1-.181-.446,3.008,3.008,0,0,1,.683-1.589,5.154,5.154,0,0,1,2.02-1.533,7.848,7.848,0,0,1,3.345-.641q3.288,0,4.8,1.477a5.188,5.188,0,0,1,1.5,3.875v8.752a.667.667,0,0,1-.182.473.629.629,0,0,1-.487.2h-2.258a.667.667,0,0,1-.669-.668V563.1A4.553,4.553,0,0,1,494,564.562a6.18,6.18,0,0,1-2.8.571A5.928,5.928,0,0,1,488.593,564.562Zm6.062-3.08a4.033,4.033,0,0,0,.976-2.927v-.585l-2.787.446a6.082,6.082,0,0,0-2.44.808,1.623,1.623,0,0,0-.822,1.366,1.583,1.583,0,0,0,.753,1.393,3.185,3.185,0,0,0,1.811.5A3.347,3.347,0,0,0,494.655,561.482Z" fill="#ce7e39"/><path d="M509.817,564.659a.645.645,0,0,1-.195-.473V546.012a.636.636,0,0,1,.195-.487.671.671,0,0,1,.474-.182h2.593a.627.627,0,0,1,.669.669v15.526h8.835a.668.668,0,0,1,.7.7v1.952a.631.631,0,0,1-.2.487.707.707,0,0,1-.5.181h-12.1A.641.641,0,0,1,509.817,564.659Z" fill="#ce7e39"/><path d="M527.168,563.154a7.587,7.587,0,0,1-2.272-5.519q-.027-.807-.028-2.592t.028-2.592a7.392,7.392,0,0,1,2.3-5.421,8.477,8.477,0,0,1,5.924-1.965,10.282,10.282,0,0,1,4.4.864,7.087,7.087,0,0,1,2.788,2.16,4.7,4.7,0,0,1,1,2.55v.056a.487.487,0,0,1-.167.376.589.589,0,0,1-.417.154h-2.872a.731.731,0,0,1-.418-.1.828.828,0,0,1-.251-.348,3.959,3.959,0,0,0-1.366-1.77,4.389,4.389,0,0,0-2.7-.739,4.228,4.228,0,0,0-3.053,1.059,4.6,4.6,0,0,0-1.184,3.261q-.028.808-.028,2.453,0,1.617.028,2.453.167,4.433,4.293,4.432a4.586,4.586,0,0,0,3.177-1.073,4.067,4.067,0,0,0,1.2-3.192V556.8h-3.4a.634.634,0,0,1-.488-.195.706.706,0,0,1-.181-.5v-1.478a.706.706,0,0,1,.181-.5.634.634,0,0,1,.488-.2h6.662a.636.636,0,0,1,.488.2.71.71,0,0,1,.18.5v2.927a7.74,7.74,0,0,1-1.017,4.028,6.693,6.693,0,0,1-2.912,2.633,10.033,10.033,0,0,1-4.432.92A8.413,8.413,0,0,1,527.168,563.154Z" fill="#ce7e39"/><path d="M545.243,564.659a.641.641,0,0,1-.2-.473V546.041a.707.707,0,0,1,.181-.5.636.636,0,0,1,.488-.2h7.47a8.082,8.082,0,0,1,5.268,1.575,5.617,5.617,0,0,1,1.923,4.613,5.554,5.554,0,0,1-1.909,4.585,8.169,8.169,0,0,1-5.282,1.547h-4.153v6.523a.666.666,0,0,1-.181.473.633.633,0,0,1-.488.2h-2.648A.641.641,0,0,1,545.243,564.659Zm7.8-10.09a3.62,3.62,0,0,0,2.48-.766,2.879,2.879,0,0,0,.865-2.272,3.045,3.045,0,0,0-.836-2.271,3.447,3.447,0,0,0-2.509-.822h-4.069v6.131Z" fill="#ce7e39"/><path d="M563.611,564.659a.641.641,0,0,1-.195-.473V546.041a.707.707,0,0,1,.182-.5.632.632,0,0,1,.487-.2h6.8q8.2,0,8.362,7.582.055,1.617.056,2.174,0,.529-.056,2.146-.111,3.9-2.091,5.756t-6.132,1.853h-6.94A.641.641,0,0,1,563.611,564.659Zm7.275-3.01a4.6,4.6,0,0,0,3.373-1.045,4.954,4.954,0,0,0,1.087-3.442q.056-1.673.055-2.091,0-.446-.055-2.063a3.983,3.983,0,0,0-4.6-4.459h-3.456v13.1Z" fill="#ce7e39"/></g></g><g opacity="0.15"><path d="M748.032,129.644,337.118,1174.75h-5.147c-31.322,0-56.951-25.82-56.951-57.38V187.023c0-31.563,25.629-57.379,56.951-57.379Z" fill="#fff"/></g><path d="M626.951,164.242H453.061a25.823,25.823,0,0,1-25.75-25.754v-4.049a25.822,25.822,0,0,1,25.75-25.753h173.89a25.829,25.829,0,0,1,25.75,25.753v4.049a25.829,25.829,0,0,1-25.75,25.754Z" fill="#3c3c3b"/></g></svg>