<svg id="Camada_1" data-name="Camada 1" xmlns="http://www.w3.org/2000/svg" xmlns:xlink="http://www.w3.org/1999/xlink" viewBox="0 0 1080 995"><defs><clipPath id="clip-path"><path d="M234.879,846.889C529,834.68,712,952.564,938,934.8c72.6-5.708,151.323-40.174,190.64-59.548V-45H-44.64V931.484C-11.981,896.993,63.019,854.023,234.879,846.889Z" fill="none"/></clipPath></defs><g clip-path="url(#clip-path)"><rect x="-43.847" y="-43" width="1172.695" height="2007" fill="#bcd855"/><path d="M662.884,794.039c-69.313,4.649-145.187-23.413-294.106-79.726-129.527-48.98-194.726-74.078-216.077-103.83C71.276,497.019,147.868,277.348,270.743,234.1c71.226-25.068,115.971,23.936,225.081-8.344,78.378-23.188,79.308-55.581,147.052-72.31,83.987-20.738,191.193,2.224,262.094,63.967,122.209,106.423,78.5,277.5,66.024,326.321-10.272,40.2-28.978,109.329-95.034,167.8C794.236,783.865,694.2,791.939,662.884,794.039Z" fill="#fff" opacity="0.35"/><path d="M764.04,673.875,545.551,544.336a3.7,3.7,0,0,1-1.3-5.065L720.634,241.78a3.7,3.7,0,0,1,5.065-1.294L944.188,370.025a3.7,3.7,0,0,1,1.295,5.065L769.105,672.58A3.7,3.7,0,0,1,764.04,673.875Z" fill="#3e479b" opacity="0.14"/><path d="M758.365,661.955,539.876,532.416a3.7,3.7,0,0,1-1.294-5.065L714.959,229.86a3.7,3.7,0,0,1,5.065-1.294L938.513,358.105a3.7,3.7,0,0,1,1.295,5.065L763.431,660.66A3.7,3.7,0,0,1,758.365,661.955Z" fill="#d6ea7f"/><g opacity="0.14"><path d="M821.126,658.31,571.331,612.265a3.7,3.7,0,0,1-2.966-4.306l62.694-340.115a3.7,3.7,0,0,1,4.306-2.966L885.16,310.923a3.7,3.7,0,0,1,2.965,4.306L825.432,655.345A3.7,3.7,0,0,1,821.126,658.31Z" fill="#3e479b"/></g><rect x="546.286" y="321.329" width="353.239" height="261.397" transform="translate(147.322 1081.014) rotate(-79.556)" fill="#fff"/><path d="M815.787,648.743,565.991,602.7a3.7,3.7,0,0,1-2.965-4.3L625.72,258.277a3.7,3.7,0,0,1,4.3-2.966l249.8,46.045a3.7,3.7,0,0,1,2.965,4.306L820.092,645.778A3.7,3.7,0,0,1,815.787,648.743Z" fill="#d6ea7f"/><g opacity="0.5"><path d="M844.554,342.948a2.081,2.081,0,0,1-.365-.033L781.66,331.39a2,2,0,0,1,.726-3.928l62.528,11.526a2,2,0,0,1-.36,3.96Z" fill="#3c3c3b"/></g><g opacity="0.5"><path d="M840.872,362.923a2.081,2.081,0,0,1-.365-.033l-62.529-11.527a2,2,0,0,1,.726-3.927l62.529,11.527a2,2,0,0,1-.361,3.96Z" fill="#3c3c3b"/></g><g opacity="0.5"><path d="M836.871,384.634a1.99,1.99,0,0,1-.365-.033l-62.529-11.525a2,2,0,0,1,.725-3.928l62.529,11.526a2,2,0,0,1-.36,3.96Z" fill="#3c3c3b"/></g><g opacity="0.14"><path d="M740.128,403.1,633,383.348a4,4,0,0,1-3.211-4.662L651.022,263.47a4,4,0,0,1,4.661-3.21l107.134,19.748a4,4,0,0,1,3.21,4.662L744.79,399.885A4,4,0,0,1,740.128,403.1Z" fill="#3e479b"/></g><path d="M736.192,396.407,634.058,377.581a4,4,0,0,1-3.211-4.662l20.107-109.081a4,4,0,0,1,4.662-3.211L757.75,279.454a4,4,0,0,1,3.21,4.661L740.853,393.2A4,4,0,0,1,736.192,396.407Z" fill="#f2f2f2"/><g opacity="0.07"><path d="M759.063,294.409,649.057,274.131l1.919-10.409a3.884,3.884,0,0,1,4.524-3.116L758,279.5a3.745,3.745,0,0,1,3,4.362Z" fill="#ccc"/></g><path d="M679.834,328.384a12.976,12.976,0,0,1-2.348-.216l-1.522-.281A14.936,14.936,0,0,1,664,310.514l3.842-20.844a3,3,0,0,1,5.893,1.086L669.891,311.6A8.935,8.935,0,0,0,677.05,322l1.523.281a6.94,6.94,0,0,0,8.079-5.567l9.726-52.76a7.168,7.168,0,0,0-5.743-8.34l-2.605-.48a7.609,7.609,0,0,0-8.857,6.1l-.238,1.3a3,3,0,0,1-5.892-1.085l.239-1.3a13.612,13.612,0,0,1,15.832-10.9l2.606.48a13.168,13.168,0,0,1,10.551,15.317l-9.726,52.76A12.955,12.955,0,0,1,679.834,328.384Z" fill="#4d4d4d"/><g opacity="0.07"><path d="M690.232,284.08a1.037,1.037,0,0,1-.183-.016l-39.915-7.358a1,1,0,0,1-.8-1.163.989.989,0,0,1,1.164-.8l39.915,7.357a1,1,0,0,1-.179,1.98Z" fill="#666"/></g><g opacity="0.5"><path d="M812.281,490.425a1.908,1.908,0,0,1-.365-.034L620.854,455.172a2,2,0,1,1,.726-3.927l191.062,35.219a2,2,0,0,1-.361,3.961Z" fill="#3c3c3b"/><path d="M798.621,564.533a1.971,1.971,0,0,1-.364-.033L607.193,529.282a2,2,0,1,1,.725-3.927l191.064,35.217a2,2,0,0,1-.361,3.961Z" fill="#3c3c3b"/><path d="M704.709,508.909a1.908,1.908,0,0,1-.365-.034l-90.321-16.649a2,2,0,0,1,.726-3.927l90.32,16.649a2,2,0,0,1-.36,3.961Z" fill="#3c3c3b"/><path d="M717.154,441.393a1.906,1.906,0,0,1-.365-.033l-90.321-16.648a2,2,0,0,1,.726-3.927l90.32,16.648a2,2,0,0,1-.36,3.96Z" fill="#3c3c3b"/><path d="M805.505,527.19a1.99,1.99,0,0,1-.365-.033l-86.056-15.863a2,2,0,1,1,.726-3.928l86.055,15.864a2,2,0,0,1-.36,3.96Z" fill="#3c3c3b"/></g><path d="M679.082,85.88H785.273a6.655,6.655,0,0,1,6.655,6.655v35.517a6.655,6.655,0,0,1-6.655,6.655H679.082a6.656,6.656,0,0,1-6.656-6.656V92.536a6.656,6.656,0,0,1,6.656-6.656Z" fill="#398fce"/><path d="M716.73,121.8H865.27a6.655,6.655,0,0,1,6.655,6.655v52.821a6.656,6.656,0,0,1-6.656,6.656H716.73a6.656,6.656,0,0,1-6.656-6.656V128.456a6.656,6.656,0,0,1,6.656-6.656Z" fill="#d64933"/><rect x="740.593" y="173.951" width="182.558" height="68.459" rx="9.035" fill="#fff"/><rect x="740.593" y="173.951" width="182.558" height="68.459" rx="9.035" fill="#ce7e39"/><path d="M865.2,216.2a7.931,7.931,0,1,1,7.931-7.93A7.938,7.938,0,0,1,865.2,216.2Zm0-13.864a5.934,5.934,0,1,0,5.934,5.934A5.94,5.94,0,0,0,865.2,202.335Z" fill="#fff"/><path d="M832.481,216.2a7.931,7.931,0,1,1,7.931-7.93A7.938,7.938,0,0,1,832.481,216.2Zm0-13.864a5.934,5.934,0,1,0,5.934,5.934A5.941,5.941,0,0,0,832.481,202.335Z" fill="#fff"/><path d="M801.979,216.2a7.931,7.931,0,1,1,7.931-7.93A7.939,7.939,0,0,1,801.979,216.2Zm0-13.864a5.934,5.934,0,1,0,5.934,5.934A5.941,5.941,0,0,0,801.979,202.335Z" fill="#fff"/><path d="M248.484,311.664H503.361a9.3,9.3,0,0,1,9.3,9.3V696.367a32.066,32.066,0,0,1-32.067,32.066H303.62a68.33,68.33,0,0,1-68.33-68.33V324.858A13.194,13.194,0,0,1,248.484,311.664Z" fill="#fff"/><path d="M238.534,311.664h269.14a4.983,4.983,0,0,1,4.983,4.983V697.86a30.574,30.574,0,0,1-30.574,30.573H297.546a62.256,62.256,0,0,1-62.256-62.255V314.907A3.243,3.243,0,0,1,238.534,311.664Z" fill="#618946"/><path d="M262.129,311.664H508.716a3.941,3.941,0,0,1,3.941,3.94V698.9a29.531,29.531,0,0,1-29.531,29.53H321.14a61.213,61.213,0,0,1-61.213-61.213V313.865A2.2,2.2,0,0,1,262.129,311.664Z" fill="#e7edb0"/><path d="M298.633,728.363v.07H521.414a46.427,46.427,0,0,0,46.428-46.427V664.37h-225.3v17.636A46.428,46.428,0,0,1,298.633,728.363Z" fill="#bfce6a"/><path d="M328.169,728.363v.07H526.508c22.828,0,41.334-20.786,41.334-46.427V664.37H367.26v17.636C367.26,706.8,349.954,727.054,328.169,728.363Z" fill="#618946"/><g opacity="0.5"><path d="M470.558,616.332H310.376a2,2,0,1,1,0-3.993H470.558a2,2,0,1,1,0,3.993Z" fill="#3c3c3b"/><path d="M390.466,582.582h-85.1a2,2,0,1,1,0-3.994h85.1a2,2,0,0,1,0,3.994Z" fill="#fff"/><path d="M384.019,582.582h-72.2a2,2,0,0,1,0-3.994h72.2a2,2,0,0,1,0,3.994Z" fill="#3c3c3b"/><path d="M473.918,548.888H307.381a2,2,0,0,1,0-3.994H473.918a2,2,0,1,1,0,3.994Z" fill="#3c3c3b"/><path d="M418.166,476.776H308.539a2,2,0,0,1,0-3.994H418.166a2,2,0,0,1,0,3.994Z" fill="#3c3c3b"/><path d="M468.988,476.776H435.6a2,2,0,0,1,0-3.994h33.393a2,2,0,0,1,0,3.994Z" fill="#3c3c3b"/><path d="M473.918,510.47H355.208a2,2,0,0,1,0-3.994h118.71a2,2,0,1,1,0,3.994Z" fill="#3c3c3b"/><path d="M343.483,510.47h-36.1a2,2,0,1,1,0-3.994h36.1a2,2,0,0,1,0,3.994Z" fill="#3c3c3b"/><path d="M470.558,448.246H310.376a2,2,0,1,1,0-3.993H470.558a2,2,0,1,1,0,3.993Z" fill="#3c3c3b"/><path d="M470.558,380.8H310.376a2,2,0,1,1,0-3.993H470.558a2,2,0,1,1,0,3.993Z" fill="#3c3c3b"/><path d="M369.165,414.5H308.539a2,2,0,0,1,0-3.993h60.626a2,2,0,1,1,0,3.993Z" fill="#3c3c3b"/><path d="M469.339,414.5h-72.2a2,2,0,0,1,0-3.993h72.2a2,2,0,1,1,0,3.993Z" fill="#3c3c3b"/></g><g opacity="0.21"><circle cx="702.371" cy="358.468" r="126.382" transform="translate(-47.756 601.644) rotate(-45)" fill="#fff"/></g><path d="M702.371,488.843a130.376,130.376,0,1,1,0-260.751c71.888,0,130.375,58.487,130.375,130.376A130.523,130.523,0,0,1,702.371,488.843Zm0-252.764A122.389,122.389,0,1,0,824.759,358.468,122.527,122.527,0,0,0,702.371,236.079Z" fill="#fff" opacity="0.58"/><circle cx="702.371" cy="360.468" r="126.382" fill="none"/><path d="M818.534,451.02a5.432,5.432,0,0,1,.6-.49,147.827,147.827,0,1,0-27.028,26.918l17.062-17.062ZM702.371,486.85A126.382,126.382,0,1,1,828.753,360.468,126.383,126.383,0,0,1,702.371,486.85Z" fill="gray"/><path d="M702.371,509.946c-82.424,0-149.479-67.056-149.479-149.478S619.947,210.99,702.371,210.99s149.478,67.056,149.478,149.478a148.028,148.028,0,0,1-31.136,91.283l-.375.371a3.585,3.585,0,0,0-.388.306l-26.627,26.6A148.041,148.041,0,0,1,702.371,509.946Zm0-294.963c-80.22,0-145.485,65.264-145.485,145.485s65.265,145.484,145.485,145.484a144.077,144.077,0,0,0,88.415-30.009l26.337-26.336a6.012,6.012,0,0,1,.592-.509,144.065,144.065,0,0,0,30.14-88.63C847.855,280.247,782.59,214.983,702.371,214.983Zm0,273.864A128.379,128.379,0,1,1,830.749,360.468,128.524,128.524,0,0,1,702.371,488.847Zm0-252.765A124.386,124.386,0,1,0,826.756,360.468,124.527,124.527,0,0,0,702.371,236.082Z" fill="gray"/><path d="M814.887,474.079l-5.72-5.72a5.637,5.637,0,0,1,0-7.973l-17.062,17.062-.278.278a5.639,5.639,0,0,0,0,7.973l6.943,6.942C801.06,488.8,807.757,481.29,814.887,474.079Z" fill="gray"/><path d="M809.167,460.386a5.637,5.637,0,0,0,0,7.973l5.72,5.72c6.9-6.978,14.182-13.643,18.267-16.412l-6.647-6.647a5.62,5.62,0,0,0-7.374-.49,5.432,5.432,0,0,0-.6.49Z" fill="gray"/><path d="M940.156,561.423,836.3,456.435c-.374-.378-1.511.124-3.145,1.232-4.085,2.769-11.366,9.434-18.267,16.412-7.13,7.211-13.827,14.725-16.117,18.562-.746,1.249-1.034,2.116-.707,2.446L901.92,600.075a26.832,26.832,0,0,0,38.236,0A27.541,27.541,0,0,0,940.156,561.423Z" fill="gray"/><g opacity="0.14"><path d="M940.156,561.423,836.3,456.435c-1.4-1.413-13.233,9.19-23.394,19.666-8.646,8.913,116.693,134.647,127.251,123.974h0A27.541,27.541,0,0,0,940.156,561.423Z" fill="#999"/></g><g opacity="0.14"><path d="M809.167,460.386a5.637,5.637,0,0,0,0,7.973l5.72,5.72c6.9-6.978,14.182-13.643,18.267-16.412l-6.647-6.647a5.62,5.62,0,0,0-7.374-.49,5.432,5.432,0,0,0-.6.49Z" fill="#999"/></g><rect x="121.147" y="504.846" width="413.613" height="72.226" rx="36.113" fill="#fff"/><path d="M498.647,577.072H443.121l-.268-72.226h55.794a36.113,36.113,0,0,1,36.113,36.113h0A36.113,36.113,0,0,1,498.647,577.072Z" fill="#3c3c3b"/><path d="M484.6,553.615a15.8,15.8,0,1,1,11.169-4.626A15.815,15.815,0,0,1,484.6,553.615Zm0-27.6a11.8,11.8,0,1,0,11.8,11.8A11.816,11.816,0,0,0,484.6,526.016Z" fill="#fff"/><path d="M506.817,562.173a1.991,1.991,0,0,1-1.412-.585l-12.532-12.532a2,2,0,1,1,2.825-2.824l12.531,12.532a2,2,0,0,1-1.412,3.409Z" fill="#fff"/></g></svg>