<svg xmlns="http://www.w3.org/2000/svg" xmlns:xlink="http://www.w3.org/1999/xlink" viewBox="0 0 1080 995"><defs><clipPath id="clip-path"><path d="M847.121,833.889C553,821.68,370,939.564,144,921.8,71.4,916.089-7.323,881.623-46.64,862.249V-58H1126.64V918.484C1093.981,883.993,1018.981,841.023,847.121,833.889Z" fill="none"/></clipPath></defs><g style="isolation:isolate"><g id="Camada_1" data-name="Camada 1"><g clip-path="url(#clip-path)"><rect x="-45.64" y="-43" width="1173.279" height="2008" fill="#bcd855"/><path d="M696.692,766.52c-67.383,16.893-147.036,2.763-303.592-26.186-136.17-25.18-204.792-38.29-231.091-63.774C61.715,579.374,98.045,349.587,211.278,285.191c65.637-37.327,118.379,2.944,220.014-48.214,73.01-36.749,68.167-68.792,131.86-97.294,78.964-35.335,188.544-31.792,269.29,16.367C971.62,239.059,959.009,415.184,955.411,465.441c-2.963,41.385-9.085,112.739-63.7,182.015C824.145,733.163,727.136,758.887,696.692,766.52Z" fill="#fff" opacity="0.35"/><path d="M615.7,309.4V285.832a19.373,19.373,0,0,1,19.373-19.378H841.356a19.381,19.381,0,0,1,19.38,19.378v416.6H327.146V309.4H615.7" fill="#618946"/><polyline points="833.839 325.688 833.839 702.439 339.547 702.439 339.547 323.837 833.839 325.688" fill="#bfce6a"/><polyline points="806.702 325.688 806.702 702.439 312.41 702.439 312.41 323.837 806.702 325.688" fill="#618946"/><polygon points="479.08 438.91 749.889 439.668 750.447 240.265 479.638 239.507 479.08 438.91 479.08 438.91" fill="#e7edb0"/><polygon points="441.336 412.294 690.908 413.099 691.483 201.56 441.911 200.756 441.336 412.294 441.336 412.294" fill="#e7edb0"/><g opacity="0.5"><polygon points="567.627 230.763 667.022 230.763 667.022 239.495 567.627 239.495 567.627 230.763 567.627 230.763" fill="#3c3c3b"/></g><g opacity="0.5"><polygon points="464.802 263.077 667.022 263.077 667.022 254.344 464.802 254.344 464.802 263.077 464.802 263.077" fill="#3c3c3b"/></g><g opacity="0.5"><polygon points="464.802 287.086 667.022 287.086 667.022 278.354 464.802 278.354 464.802 287.086 464.802 287.086" fill="#3c3c3b"/></g><path d="M290.133,309.407H778.456A18.548,18.548,0,0,1,797.3,325.568V703.792H264.343V335.129c-.121-13.534,12.1-25.722,25.79-25.722" fill="#bfce6a"/><polygon points="255.837 474.659 861 474.659 861 406.28 255.837 406.28 255.837 474.659 255.837 474.659" fill="#acb557"/><polygon points="255.837 474.659 806.522 474.659 806.522 406.28 255.837 406.28 255.837 474.659 255.837 474.659" fill="#acb557"/><g style="mix-blend-mode:multiply"><path d="M637.747,440.393c0,9.461,1.65,18.02,4.429,24.18,2.71,6.308,6.482,10.063,10.644,10.063h12.708V406.3H652.82c-8.332,0-15.073,15.317-15.073,34.089Z" fill="#bfce6a"/></g><path d="M650.308,440.393c0-5.7,3.6-10.36,6.087-11.111,2.492.751,4.426,5.408,4.426,11.111,0,5.86-1.934,10.513-4.426,11.265-2.489-.752-6.087-5.405-6.087-11.265Z" fill="#3f9ee6"/><g style="mix-blend-mode:multiply"><path d="M655.867,451.658c-2.379-.752-4.229-5.405-4.229-11.265,0-5.7,1.85-10.36,4.229-11.111,2.382.751,4.233,5.408,4.233,11.111,0,5.86-1.851,10.513-4.233,11.265Z" fill="#bfce6a"/></g><path d="M650.3,440.393c0,9.461,1.73,18.02,4.637,24.18,2.836,6.308,6.778,10.063,11.138,10.063h5.535V406.3H666.08c-8.716,0-15.775,15.317-15.775,34.089Z" fill="#bfce6a"/><path d="M660.818,450.743c.6.15,1.049.3,1.65.451-.15.15-.15.15,0,.15a58.6,58.6,0,0,1,42.047,56.011v77.084h19.223V507.355A77.741,77.741,0,0,0,663.07,431.67a12.349,12.349,0,0,0-2.252-.6c-5.559-1.2-6.01,18.772,0,19.671Z" fill="#fff"/><path d="M638.064,430.05v19.116a59.011,59.011,0,0,0-50.105,45.6,6.423,6.423,0,0,0-.3,1.5,35.146,35.146,0,0,0-.6,3.906,58.139,58.139,0,0,0-.451,7.209v87.08H567.534v-87.08c0-40.37,31.025-73.447,70.53-77.322Z" fill="#fff"/><path d="M550.863,683.672V585.187a16.309,16.309,0,0,1,16.31-16.309H723.922a16.309,16.309,0,0,1,16.309,16.309V707.362a16.309,16.309,0,0,1-16.309,16.31H563.968a13.1,13.1,0,0,1-13.1-13.1Z" fill="gray"/><path d="M648.4,607.116a23.313,23.313,0,0,0-21.778,23.345,23.817,23.817,0,0,0,13.82,21.528v39.869a9.743,9.743,0,0,0,7.657,9.551h.448a9.746,9.746,0,0,0,7.664-9.551V651.989a23.658,23.658,0,0,0,13.814-21.528A23.288,23.288,0,0,0,648.4,607.116Z" fill="#fff"/><path d="M320.838,356.744s-.006-.365-.006-.415c0,.027,0,.147.006.415Z" fill="#d9ffff"/></g></g></g></svg>