<svg id="Camada_1" data-name="Camada 1" xmlns="http://www.w3.org/2000/svg" xmlns:xlink="http://www.w3.org/1999/xlink" viewBox="0 0 1080 995"><defs><clipPath id="clip-path"><path d="M847.121,854.889C553,842.68,370,960.564,144,942.8,71.4,937.089-7.323,902.623-46.64,883.249V-37H1126.64V939.484C1093.981,904.993,1018.981,862.023,847.121,854.889Z" fill="none"/></clipPath></defs><g opacity="0.14"><path d="M448.808,647.388a6.294,6.294,0,1,1,10.014-7.626l-17.643-23.17a6.293,6.293,0,0,1,10.014-7.625L461.5,622.5a6.293,6.293,0,0,1,10.874-6.088l3.439,4.516a6.293,6.293,0,0,1,9.1-8.593,6.294,6.294,0,0,1,11.292-4.143l1.953,2.564,9.9,13,.112.147c.037.05.072.1.108.151a30.662,30.662,0,0,1-6.04,42.677h0a30.672,30.672,0,0,1-39.406-1.886,6.254,6.254,0,0,1-2.059-1.748Z" fill="#3e479b"/><line x1="484.913" y1="612.337" x2="493.864" y2="624.091" fill="#3e479b"/><line x1="475.096" y1="619.813" x2="484.046" y2="631.567" fill="#3e479b"/><line x1="461.241" y1="621.987" x2="474.229" y2="639.043" fill="#3e479b"/><line x1="457.46" y1="638.205" x2="470.447" y2="655.261" fill="#3e479b"/><path d="M442.461,624.284a13.567,13.567,0,1,1,15.763-11.537" fill="#3e479b"/><path d="M441.48,630.286a19.488,19.488,0,1,1,22.642-16.572" fill="#3e479b"/></g><path d="M454.808,643.388a6.294,6.294,0,1,1,10.014-7.626l-17.643-23.17a6.293,6.293,0,0,1,10.014-7.625L467.5,618.5a6.293,6.293,0,0,1,10.874-6.088l3.439,4.516a6.293,6.293,0,0,1,9.1-8.593,6.294,6.294,0,0,1,11.292-4.143l1.953,2.564,9.9,13,.112.147c.037.05.072.1.108.151a30.662,30.662,0,0,1-6.04,42.677h0a30.672,30.672,0,0,1-39.406-1.886,6.254,6.254,0,0,1-2.059-1.748Z" fill="#fff" stroke="#a6c83e" stroke-miterlimit="10"/><line x1="490.913" y1="608.337" x2="499.864" y2="620.091" fill="#fff" stroke="#a6c83e" stroke-miterlimit="10"/><line x1="481.096" y1="615.813" x2="490.046" y2="627.567" fill="#fff" stroke="#a6c83e" stroke-miterlimit="10"/><line x1="467.241" y1="617.987" x2="480.229" y2="635.043" fill="#fff" stroke="#a6c83e" stroke-miterlimit="10"/><line x1="463.46" y1="634.205" x2="476.447" y2="651.261" fill="#fff" stroke="#a6c83e" stroke-miterlimit="10"/><path d="M448.461,620.284a13.567,13.567,0,1,1,15.763-11.537" fill="none" stroke="#a6c83e" stroke-miterlimit="10"/><path d="M447.48,626.286a19.488,19.488,0,1,1,22.642-16.572" fill="none" stroke="#a6c83e" stroke-miterlimit="10"/><g clip-path="url(#clip-path)"><rect x="-18.216" y="-43" width="1173.279" height="2008" fill="#bcd855"/><path d="M881.268,1054.332c37.728-46.183,47.874-102.661,68.165-215.617C977.6,681.947,1004.379,532.853,931.875,389,893.309,312.48,831.8,259.27,708.789,152.848,627.06,82.143,586.2,46.79,539.408,31.692,394.733-14.993,189.379,53.132,123.187,185.7,77.422,277.366,107.48,386.792,167.6,605.644c24.39,88.791,48.672,146.553,47.509,245.392-1.275,108.337-31.517,129.8-15.492,174.547C254.123,1177.783,719.641,1252.177,881.268,1054.332Z" fill="#fff" opacity="0.35"/><path d="M756.651,1163.511H323.35a77.719,77.719,0,0,1-77.492-77.49V133.6A77.721,77.721,0,0,1,323.35,56.106h433.3A77.719,77.719,0,0,1,834.142,133.6v952.422a77.717,77.717,0,0,1-77.491,77.49Z" fill="#3c3c3b"/><path d="M804.991,140.934v930.347c0,31.56-25.64,57.38-56.959,57.38H331.971c-31.322,0-56.951-25.82-56.951-57.38V140.934c0-31.563,25.629-57.379,56.951-57.379H748.032c31.319,0,56.959,25.816,56.959,57.379Z" fill="#ebf2c2"/><path d="M328.74,83.411H712a0,0,0,0,1,0,0v1045a0,0,0,0,1,0,0H325.98a50.98,50.98,0,0,1-50.98-50.98V137.151A53.74,53.74,0,0,1,328.74,83.411Z" fill="#a6ce39" opacity="0.5" style="isolation:isolate"/><path d="M748.032,83.555,337.118,1128.661h-5.147c-31.322,0-56.951-25.82-56.951-57.38V140.934c0-31.563,25.629-57.379,56.951-57.379Z" fill="#fff" opacity="0.15"/><path d="M327.68,83.411H712a0,0,0,0,1,0,0v107a0,0,0,0,1,0,0H275a0,0,0,0,1,0,0v-54.32A52.68,52.68,0,0,1,327.68,83.411Z" fill="#a6ce39"/><g id="Menu" style="isolation:isolate"><text transform="translate(308.71 157.041)" font-size="36.776" fill="#fff" font-family="Rubik-Medium, Rubik" font-weight="500" style="isolation:isolate">Menu</text></g><line x1="654.17" y1="137.411" x2="675" y2="158.241" fill="none" stroke="#fff" stroke-linecap="round" stroke-miterlimit="10" stroke-width="2"/><line x1="654.17" y1="158.241" x2="675" y2="137.411" fill="none" stroke="#fff" stroke-linecap="round" stroke-miterlimit="10" stroke-width="2"/><path d="M626.951,118.153H453.061A25.823,25.823,0,0,1,427.311,92.4V88.35A25.822,25.822,0,0,1,453.061,62.6h173.89A25.829,25.829,0,0,1,652.7,88.35V92.4a25.829,25.829,0,0,1-25.75,25.754Z" fill="#3c3c3b"/><g id="Entrar" style="isolation:isolate"><text transform="translate(308.174 264.569)" font-size="30" fill="#3c3c3b" font-family="Rubik-Medium, Rubik" font-weight="500" style="isolation:isolate">E<tspan x="18.689" y="0" letter-spacing="-0.006em">n</tspan><tspan x="37.26" y="0">t</tspan><tspan x="50.189" y="0" letter-spacing="-0.008em">r</tspan><tspan x="62.52" y="0">a</tspan><tspan x="79.68" y="0" letter-spacing="-0.021em">r</tspan></text></g><g id="Minha_Conta" data-name="Minha Conta" style="isolation:isolate"><text transform="translate(308.174 356.128)" font-size="30" fill="#3c3c3b" font-family="Rubik-Medium, Rubik" font-weight="500" style="isolation:isolate">Cria<tspan x="58.229" y="0" letter-spacing="-0.021em">r</tspan><tspan x="70.169" y="0" xml:space="preserve"> Co</tspan><tspan x="115.349" y="0" letter-spacing="-0.006em">n</tspan><tspan x="133.919" y="0">ta</tspan></text></g><line id="Linha_11" data-name="Linha 11" x1="300.861" y1="794.174" x2="663" y2="794.174" fill="none" stroke="#a6ce39" stroke-miterlimit="10" stroke-width="2"/><g id="Dados_da_encarregada" data-name="Dados da encarregada" style="isolation:isolate"><text transform="translate(308.174 559.247)" font-size="30" fill="#3c3c3b" font-family="Rubik-Medium, Rubik" font-weight="500" style="isolation:isolate"><tspan letter-spacing="-0.063em">T</tspan><tspan x="16.29" y="0">utorial</tspan></text></g><line id="Linha_7" data-name="Linha 7" x1="300.861" y1="397.936" x2="663" y2="397.936" fill="none" stroke="#a6ce39" stroke-miterlimit="10" stroke-width="2"/><line id="Linha_7-2" data-name="Linha 7" x1="300.861" y1="298.936" x2="663" y2="298.936" fill="none" stroke="#a6ce39" stroke-miterlimit="10" stroke-width="2"/><line id="Linha_7-3" data-name="Linha 7" x1="300.861" y1="494.936" x2="663" y2="494.936" fill="none" stroke="#a6ce39" stroke-miterlimit="10" stroke-width="2"/><g id="Notificações" style="isolation:isolate"><text transform="translate(308.174 457.688)" font-size="30" fill="#3c3c3b" font-family="Rubik-Medium, Rubik" font-weight="500" style="isolation:isolate">Site da <tspan x="106.769" y="0" letter-spacing="-0.009em">L</tspan><tspan x="123.929" y="0" letter-spacing="0em">GPD no</tspan><tspan x="229.228" y="0" letter-spacing="-0.024em"> </tspan><tspan x="235.348" y="0" letter-spacing="-0.004em">T</tspan><tspan x="253.407" y="0">JSC</tspan></text></g><g id="Tutorial" style="isolation:isolate"><text transform="translate(308.174 650.806)" font-size="30" fill="#3c3c3b" font-family="Rubik-Medium, Rubik" font-weight="500" style="isolation:isolate"><tspan letter-spacing="-0.025em">F</tspan><tspan x="17.31" y="0">ale com a Encar</tspan><tspan x="243.837" y="0" letter-spacing="-0.007em">r</tspan><tspan x="256.196" y="0">egada</tspan></text></g><line id="Linha_9" data-name="Linha 9" x1="300.861" y1="591.055" x2="663" y2="591.055" fill="none" stroke="#a6ce39" stroke-miterlimit="10" stroke-width="2"/><g id="Site_TJSC" data-name="Site TJSC" style="isolation:isolate"><text transform="translate(308.174 752.366)" font-size="30" fill="#3c3c3b" font-family="Rubik-Medium, Rubik" font-weight="500" style="isolation:isolate"><tspan letter-spacing="-0.007em">P</tspan><tspan x="19.59" y="0">olítica de Pri</tspan><tspan x="198.268" y="0" letter-spacing="-0.022em">v</tspan><tspan x="214.857" y="0">acidade</tspan></text></g><g id="Site_TJSC-2" data-name="Site TJSC" style="isolation:isolate"><text transform="translate(308.174 852.366)" font-size="30" fill="#3c3c3b" font-family="Rubik-Medium, Rubik" font-weight="500" style="isolation:isolate"><tspan letter-spacing="-0.092em">T</tspan><tspan x="15.42" y="0">ermos de </tspan><tspan x="155.638" y="0" letter-spacing="-0.003em">U</tspan><tspan x="176.968" y="0">so</tspan></text></g><line id="Linha_10" data-name="Linha 10" x1="300.861" y1="692.614" x2="663" y2="692.614" fill="none" stroke="#a6ce39" stroke-miterlimit="10" stroke-width="2"/><g opacity="0.14"><path d="M471.7,598.219a6.294,6.294,0,1,1,10.014-7.626l-17.643-23.17a6.293,6.293,0,0,1,10.014-7.625l10.307,13.535a6.293,6.293,0,0,1,10.874-6.088l3.439,4.516a6.293,6.293,0,0,1,9.1-8.593,6.294,6.294,0,0,1,11.292-4.143l1.953,2.564,9.9,13,.113.147c.037.05.072.1.108.15a30.664,30.664,0,0,1-6.04,42.678h0a30.672,30.672,0,0,1-39.406-1.887,6.252,6.252,0,0,1-2.06-1.747Z" fill="#3e479b"/><line x1="507.807" y1="563.168" x2="516.758" y2="574.922" fill="#3e479b"/><line x1="497.99" y1="570.644" x2="506.94" y2="582.398" fill="#3e479b"/><line x1="484.135" y1="572.818" x2="497.122" y2="589.874" fill="#3e479b"/><line x1="480.354" y1="589.036" x2="493.341" y2="606.092" fill="#3e479b"/><path d="M465.355,575.115a13.567,13.567,0,1,1,15.763-11.537" fill="#3e479b"/><path d="M464.374,581.117a19.488,19.488,0,1,1,22.642-16.572" fill="#3e479b"/></g><path d="M477.7,594.219a6.294,6.294,0,1,1,10.014-7.626l-17.643-23.17a6.293,6.293,0,0,1,10.014-7.625l10.307,13.535a6.293,6.293,0,0,1,10.874-6.088l3.439,4.516a6.293,6.293,0,0,1,9.1-8.593,6.294,6.294,0,0,1,11.292-4.143l1.953,2.564,9.9,13,.113.147c.037.05.072.1.108.15a30.664,30.664,0,0,1-6.04,42.678h0a30.672,30.672,0,0,1-39.406-1.887,6.252,6.252,0,0,1-2.06-1.747Z" fill="#fff" stroke="#a6c83e" stroke-miterlimit="10"/><line x1="513.807" y1="559.168" x2="522.758" y2="570.922" fill="#fff" stroke="#a6c83e" stroke-miterlimit="10"/><line x1="503.99" y1="566.644" x2="512.94" y2="578.398" fill="#fff" stroke="#a6c83e" stroke-miterlimit="10"/><line x1="490.135" y1="568.818" x2="503.122" y2="585.874" fill="#fff" stroke="#a6c83e" stroke-miterlimit="10"/><line x1="486.354" y1="585.036" x2="499.341" y2="602.092" fill="#fff" stroke="#a6c83e" stroke-miterlimit="10"/><path d="M471.355,571.115a13.567,13.567,0,1,1,15.763-11.537" fill="none" stroke="#a6c83e" stroke-miterlimit="10"/><path d="M470.374,577.117a19.488,19.488,0,1,1,22.642-16.572" fill="none" stroke="#a6c83e" stroke-miterlimit="10"/></g></svg>