<svg id="Layer_1" data-name="Layer 1" xmlns="http://www.w3.org/2000/svg" viewBox="0 0 200 200"><path id="Path_1138" data-name="Path 1138" d="M7.21,151.346s-12.381-16.667,15.941-18.835,61.628,9.123,74.886,7.347,61.41-16.617,75.216-11.242,28.537,22.235,16.818,28.744-73.246,12.47-92.035,9.96S32.409,168.107,23.15,165,7.21,151.346,7.21,151.346Z" fill="#fbf2d1"/><g id="Group_353" data-name="Group 353"><path id="Path_1129" data-name="Path 1129" d="M100.884,30.34a1.884,1.884,0,0,0-2.428,0L41.584,73.363a.626.626,0,0,0-.084.234v73.925c0,2.464,1.729,4.48,3.842,4.48H154c2.113,0,3.842-2.016,3.842-4.48V73.6a.626.626,0,0,0-.084-.234L100.884,30.339Z" fill="#a6ce39"/><path id="Path_1130" data-name="Path 1130" d="M143.056,122.414H57.338V43.269H143.06v79.145Z" fill="#fbf2d1"/><path id="Path_1131" data-name="Path 1131" d="M99.637,117.791,57.319,82.518l-.061,39.355H142.98l.067-40.188L99.633,117.792Z" fill="#e5dcc0"/><path id="Path_1132" data-name="Path 1132" d="M41.605,73.418a.483.483,0,0,0-.057.178v73.925a4.8,4.8,0,0,0,1.367,3.419l45.824-38.258L41.6,73.418Z" fill="#a6ce39"/><path id="Path_1133" data-name="Path 1133" d="M41.605,73.418a.483.483,0,0,0-.057.178v73.925a4.8,4.8,0,0,0,1.367,3.419l45.824-38.258L41.6,73.418Z" fill="#fff" opacity="0.5" style="isolation:isolate"/><path id="Path_1134" data-name="Path 1134" d="M157.811,73.418a.5.5,0,0,1,.057.178v73.925a4.8,4.8,0,0,1-1.367,3.419l-45.824-38.258,47.135-39.264Z" fill="#a6ce39"/><path id="Path_1135" data-name="Path 1135" d="M157.811,73.418a.5.5,0,0,1,.057.178v73.925a4.8,4.8,0,0,1-1.367,3.419l-45.824-38.258,47.135-39.264Z" fill="#fff" opacity="0.5" style="isolation:isolate"/><path id="Path_1136" data-name="Path 1136" d="M106.915,109.511H92.5L42.81,150.883A3.532,3.532,0,0,0,45.341,152H154a3.545,3.545,0,0,0,2.565-1.152l-49.648-41.338Z" fill="#a6ce39"/></g><g id="Group_355" data-name="Group 355"><circle id="Ellipse_69" data-name="Ellipse 69" cx="137.001" cy="48.501" r="19.5" fill="#fbf2d1" stroke="#a6ce39" stroke-miterlimit="10" stroke-width="2"/><g id="Group_354" data-name="Group 354"><path id="Path_1137" data-name="Path 1137" d="M133.748,56.1a3.253,3.253,0,1,1,6.5-.114V56.1a3.106,3.106,0,0,1-2.937,3.266c-.1.006-.2.006-.3,0a3.149,3.149,0,0,1-3.268-3.026C133.745,56.262,133.745,56.182,133.748,56.1Zm1.142-4.442-.825-14.025h5.9l-.823,14.02Z" fill="#a6ce39"/></g></g></svg>