<svg id="Layer_1" data-name="Layer 1" xmlns="http://www.w3.org/2000/svg" viewBox="0 0 200 200"><path id="Path_1138" data-name="Path 1138" d="M7.172,147.743s-12.493-16.819,16.087-19.007,62.19,9.206,75.569,7.414,61.971-16.768,75.9-11.344,28.8,22.438,16.971,29.006-73.914,12.583-92.875,10.05-66.226.8-75.569-2.339S7.172,147.743,7.172,147.743Z" fill="#fbf2d1"/><g id="Group_361" data-name="Group 361"><circle id="Ellipse_75" data-name="Ellipse 75" cx="89.047" cy="65.333" r="30.696" fill="#e5dcc0"/><path id="Rectangle_167" data-name="Rectangle 167" d="M83.682,100.47H94.411a44.1,44.1,0,0,1,44.1,44.1h0a5.364,5.364,0,0,1-5.364,5.364h-88.2a5.363,5.363,0,0,1-5.364-5.364h0a44.1,44.1,0,0,1,44.1-44.1Z" fill="#e5dcc0"/><circle id="Ellipse_71" data-name="Ellipse 71" cx="93.047" cy="63.333" r="30.696" fill="#a6ce39"/><path id="Rectangle_166" data-name="Rectangle 166" d="M87.682,98.47H98.411a44.1,44.1,0,0,1,44.1,44.1h0a5.364,5.364,0,0,1-5.364,5.364h-88.2a5.363,5.363,0,0,1-5.364-5.364h0a44.1,44.1,0,0,1,44.1-44.1Z" fill="#a6ce39"/><circle id="Ellipse_72" data-name="Ellipse 72" cx="133.977" cy="137.729" r="19.302" fill="#fbf2d1" stroke="#a6ce39" stroke-miterlimit="10" stroke-width="2"/><path id="Path_1156" data-name="Path 1156" d="M126.291,133.745l8.3,10.707,22.815-23.567" fill="none" stroke="#a6ce39" stroke-linecap="round" stroke-linejoin="round" stroke-width="7"/></g></svg>