<svg id="Layer_1" data-name="Layer 1" xmlns="http://www.w3.org/2000/svg" viewBox="0 0 100 100"><g id="Group_365" data-name="Group 365"><g id="Ellipse_2" data-name="Ellipse 2"><circle cx="50" cy="50" r="39.5" fill="#fff"/><circle cx="50" cy="50" r="38.5" fill="none" stroke="#398fce" stroke-width="2"/></g><g id="Group_29" data-name="Group 29"><path id="Path_54" data-name="Path 54" d="M70.96,57.95,56.1,32.216a6.322,6.322,0,0,0-10.981,0L30.255,57.95a6.351,6.351,0,0,0,5.491,9.532h29.67A6.384,6.384,0,0,0,70.96,57.95ZM50.6,61.773a2.365,2.365,0,0,1,0-4.73,2.321,2.321,0,0,1,2.316,2.328c0,.033,0,.066,0,.1a2.322,2.322,0,0,1-2.316,2.3ZM52.76,46.479c-.1,1.834-.219,3.658-.323,5.49-.052.594-.052,1.135-.052,1.72A1.782,1.782,0,0,1,50.6,55.408a1.743,1.743,0,0,1-1.781-1.668c-.157-2.854-.323-5.656-.48-8.51-.052-.751-.1-1.51-.165-2.261a2.572,2.572,0,0,1,1.833-2.584,2.375,2.375,0,0,1,2.75,1.345,2.842,2.842,0,0,1,.218,1.187c-.057,1.2-.17,2.386-.219,3.563Z" fill="#398fce"/></g></g></svg>