<svg id="Layer_1" data-name="Layer 1" xmlns="http://www.w3.org/2000/svg" viewBox="0 0 355 355"><g id="Group_373" data-name="Group 373"><path d="M104.206,268.647a4.047,4.047,0,0,1-3.12-1.47l-8.62-10.06a4.113,4.113,0,0,1,5.94-5.69,3.542,3.542,0,0,1,.35.42l5.3,6.2,14.9-19.13a4.141,4.141,0,0,1,7.03,4.38,4.723,4.723,0,0,1-.56.71l-18.01,23.07a4.061,4.061,0,0,1-3.17,1.59Z" fill="#fff"/><path d="M129.106,226.6l-40.48-.02a90.229,90.229,0,0,1,1.21-12.92,18.8,18.8,0,0,1,18.74-14.87h.37a19.062,19.062,0,0,1,18.93,15.08A81.18,81.18,0,0,1,129.106,226.6Z" fill="#fff"/><path d="M308.046,83.817l-1.79,58.92-.17,5.13v.23a196.544,196.544,0,0,1-62.47,140.39c-32.31,30.33-64.63,41.79-71.09,42.35-6.31-.93-37.91-14.31-68.37-46.62-.09-.1-.19-.2-.28-.3h13.19c15.77,0,28.54-11.78,28.54-26.32v-31.02h-5.86v-7.2a35.831,35.831,0,0,0-6.74-21.15,29.341,29.341,0,0,0-48.49,0,35.85,35.85,0,0,0-6.76,21.15v7.2H71.9v12.2a196.4,196.4,0,0,1-21.59-98.52l1.96-64.36a596.584,596.584,0,0,0,129.55-50.6A618.6,618.6,0,0,0,308.046,83.817Z" fill="#fff"/><g id="Group_370" data-name="Group 370" opacity="0.5"><g id="Group_369" data-name="Group 369"><g id="Group_367" data-name="Group 367"><g id="Path_1159" data-name="Path 1159"><path d="M73.016,162.461A1.978,1.978,0,0,1,72.391,161V107.144a2,2,0,0,1,.625-1.508,2.157,2.157,0,0,1,1.443-.582H86.091a2,2,0,0,1,2.09,2.09v43.082H113.1a2.154,2.154,0,0,1,2.154,2.154v8.789a1.9,1.9,0,0,1-.625,1.508,2.154,2.154,0,0,1-1.529.581H74.5A2.022,2.022,0,0,1,73.016,162.461Z" fill="#a6ce39"/></g><g id="Path_1160" data-name="Path 1160"><path d="M123.724,158.045a21.927,21.927,0,0,1-7.217-16.715V126.122a20.812,20.812,0,0,1,7.26-16.221q6.913-5.794,18.805-5.773a35,35,0,0,1,13.916,2.564,22.569,22.569,0,0,1,9.154,6.613,14.34,14.34,0,0,1,3.275,8.25,1.767,1.767,0,0,1-.539,1.292,1.681,1.681,0,0,1-1.292.539H154.161a2.28,2.28,0,0,1-1.292-.28,3.272,3.272,0,0,1-.862-.862,9.63,9.63,0,0,0-3.188-3.985,10.02,10.02,0,0,0-6.182-1.659c-6.463,0-9.759,3.318-9.974,9.952V140.92q.324,10.556,10.124,10.555a11.4,11.4,0,0,0,7.583-2.3,9.1,9.1,0,0,0,2.822-7.3v-1.486H145.8a2.1,2.1,0,0,1-2.154-2.176v-6.462a2.154,2.154,0,0,1,2.154-2.154h21.089a2.151,2.151,0,0,1,1.529.624,2.025,2.025,0,0,1,.625,1.53v9.629a22.256,22.256,0,0,1-3.274,12.106,21.074,21.074,0,0,1-9.263,7.8,33.75,33.75,0,0,1-13.959,2.692Q130.531,163.926,123.724,158.045Z" fill="#a6ce39"/></g><g id="Path_1161" data-name="Path 1161"><path d="M175.573,162.461a2.153,2.153,0,0,1-.625-1.464V107.144a2.065,2.065,0,0,1,2.09-2.176h23.479q10.772,0,16.953,4.912a17.23,17.23,0,0,1,6.139,14.367q0,9.457-6.139,14.153t-16.953,4.7h-9.456v17.922a2.155,2.155,0,0,1-.582,1.465,2.025,2.025,0,0,1-1.486.625H177.038A2.157,2.157,0,0,1,175.573,162.461Zm24.535-31.277a7.626,7.626,0,0,0,5.364-1.767,6.785,6.785,0,0,0,1.939-5.277,7.458,7.458,0,0,0-1.788-5.235,7.09,7.09,0,0,0-5.515-2.046H190.8v14.282Z" fill="#a6ce39"/></g><g id="Path_1162" data-name="Path 1162"><path d="M228.629,162.461A2.148,2.148,0,0,1,228,161V107.144a2.064,2.064,0,0,1,2.089-2.176h21.821q12.279,0,19.107,5.859c4.481,3.878,6.915,9.5,7.13,16.8V140.4q-.8,22.748-25.849,22.748H230.093A2.153,2.153,0,0,1,228.629,162.461Zm23.285-11.847a10.564,10.564,0,0,0,7.734-2.477,11.526,11.526,0,0,0,2.649-7.971c0-1.615.173-3.683.173-6.225s0-4.61-.173-6.161a10.773,10.773,0,0,0-2.865-7.841,11.159,11.159,0,0,0-7.927-2.52h-7.884v33.2Z" fill="#a6ce39"/></g></g><g id="Group_368" data-name="Group 368"><g id="Path_1163" data-name="Path 1163"><path d="M167.215,245.179a1.852,1.852,0,0,1-.517-1.422v-4.825a1.874,1.874,0,0,1,1.784-1.96,1.722,1.722,0,0,1,.176,0h2.154a5.17,5.17,0,0,0,4.61-1.745,9.479,9.479,0,0,0,1.185-5.191v-40.3a1.826,1.826,0,0,1,.56-1.421,1.915,1.915,0,0,1,1.4-.539h7.173a1.853,1.853,0,0,1,1.961,1.738,2.055,2.055,0,0,1,0,.222v40.562a15.531,15.531,0,0,1-3.986,11.374,15.964,15.964,0,0,1-11.847,4.05h-3.231A1.963,1.963,0,0,1,167.215,245.179Zm9.521-64.925a1.872,1.872,0,0,1-.581-1.378v-6.01a2,2,0,0,1,.581-1.422,1.745,1.745,0,0,1,1.379-.6h7.905a1.869,1.869,0,0,1,1.4.56,1.96,1.96,0,0,1,.561,1.465v5.967a1.85,1.85,0,0,1-.561,1.378,1.9,1.9,0,0,1-1.4.582h-7.905a1.874,1.874,0,0,1-1.379-.582Z" fill="#a6ce39"/></g><g id="Path_1164" data-name="Path 1164"><path d="M197.545,226.115a19.558,19.558,0,0,1-4.308-13.463v-22.92a1.913,1.913,0,0,1,.56-1.443,1.981,1.981,0,0,1,1.4-.517h7.345a1.854,1.854,0,0,1,1.379.56,2,2,0,0,1,.582,1.4v22.446c0,6.678,2.908,10.038,8.616,10.038a8.768,8.768,0,0,0,6.721-2.692,10.427,10.427,0,0,0,2.5-7.346V189.732a1.913,1.913,0,0,1,.56-1.443,1.981,1.981,0,0,1,1.4-.517h7.259a1.83,1.83,0,0,1,1.96,1.692,1.713,1.713,0,0,1,0,.268v38.516a1.829,1.829,0,0,1-.538,1.378,1.852,1.852,0,0,1-1.422.582H224.88a1.9,1.9,0,0,1-1.4-.582,1.853,1.853,0,0,1-.56-1.378v-3.339a15.769,15.769,0,0,1-13.549,6.118A14.91,14.91,0,0,1,197.545,226.115Z" fill="#a6ce39"/></g><g id="Path_1165" data-name="Path 1165"><path d="M245.344,229.152a16.448,16.448,0,0,1-6.16-4.308,7.3,7.3,0,0,1-2-4.308,1.7,1.7,0,0,1,.539-1.314,1.746,1.746,0,0,1,1.249-.474h6.7a1.4,1.4,0,0,1,1.142.646c.28.216.883.733,1.831,1.551a11.012,11.012,0,0,0,7.3,2.607,9.914,9.914,0,0,0,5.3-1.271,4.007,4.007,0,0,0,2.154-3.619,3.818,3.818,0,0,0-.926-2.65,8.634,8.634,0,0,0-3.361-1.9,69.377,69.377,0,0,0-7.216-1.917,21.408,21.408,0,0,1-10.232-4.481,10.23,10.23,0,0,1-3.317-7.992,10.891,10.891,0,0,1,1.96-6.16,13.913,13.913,0,0,1,5.837-4.739A21.378,21.378,0,0,1,255.4,187a23.7,23.7,0,0,1,9.543,1.744,16.566,16.566,0,0,1,6.074,4.309,7.1,7.1,0,0,1,2.154,4.308,1.791,1.791,0,0,1-.538,1.271,1.62,1.62,0,0,1-1.249.517H265.27a1.618,1.618,0,0,1-1.4-.646c-.366-.259-.991-.776-1.831-1.508a10.27,10.27,0,0,0-2.822-1.745,9.6,9.6,0,0,0-3.748-.646,7.166,7.166,0,0,0-4.653,1.314,4.3,4.3,0,0,0-1.637,3.425,3.917,3.917,0,0,0,.775,2.434,7.3,7.3,0,0,0,3.145,1.852,50.2,50.2,0,0,0,7.109,1.745Q274.92,208.257,274.9,218.3a11.1,11.1,0,0,1-5.019,9.392,23.694,23.694,0,0,1-14,3.575A25.4,25.4,0,0,1,245.344,229.152Z" fill="#a6ce39"/></g></g></g></g><g id="Group_370-2" data-name="Group 370"><g id="Group_369-2" data-name="Group 369"><g id="Group_367-2" data-name="Group 367"><g id="Path_1159-2" data-name="Path 1159"><path d="M75.318,159.584a1.986,1.986,0,0,1-.625-1.465V104.266a2.006,2.006,0,0,1,.625-1.508,2.156,2.156,0,0,1,1.443-.581H88.393a1.994,1.994,0,0,1,2.09,2.089v43.082h24.923a2.154,2.154,0,0,1,2.154,2.155v8.788a1.9,1.9,0,0,1-.625,1.508,2.151,2.151,0,0,1-1.529.582H76.8A2.027,2.027,0,0,1,75.318,159.584Z" fill="#a6ce39"/></g><g id="Path_1160-2" data-name="Path 1160"><path d="M126.026,155.168a21.93,21.93,0,0,1-7.217-16.716V123.244a20.81,20.81,0,0,1,7.26-16.22q6.913-5.794,18.8-5.773a35,35,0,0,1,13.916,2.563,22.579,22.579,0,0,1,9.154,6.613,14.342,14.342,0,0,1,3.275,8.25,1.767,1.767,0,0,1-.539,1.293,1.68,1.68,0,0,1-1.292.538H156.463a2.272,2.272,0,0,1-1.292-.28,3.268,3.268,0,0,1-.862-.861,9.624,9.624,0,0,0-3.188-3.985,10.013,10.013,0,0,0-6.182-1.659c-6.463,0-9.758,3.317-9.974,9.952v14.368q.324,10.554,10.124,10.555a11.393,11.393,0,0,0,7.583-2.305,9.093,9.093,0,0,0,2.822-7.3V137.5H148.1a2.1,2.1,0,0,1-2.154-2.175v-6.463a2.155,2.155,0,0,1,2.154-2.154h21.089a2.156,2.156,0,0,1,1.529.625,2.025,2.025,0,0,1,.625,1.529V138.5a22.254,22.254,0,0,1-3.274,12.106,21.067,21.067,0,0,1-9.263,7.8,33.735,33.735,0,0,1-13.959,2.693Q132.832,161.049,126.026,155.168Z" fill="#a6ce39"/></g><g id="Path_1161-2" data-name="Path 1161"><path d="M177.875,159.584a2.157,2.157,0,0,1-.625-1.465V104.266a2.064,2.064,0,0,1,2.09-2.175h23.479q10.772,0,16.953,4.911a17.229,17.229,0,0,1,6.139,14.368q0,9.456-6.139,14.152t-16.953,4.7h-9.456v17.923a2.153,2.153,0,0,1-.582,1.464,2.021,2.021,0,0,1-1.486.625H179.34A2.156,2.156,0,0,1,177.875,159.584Zm24.535-31.278a7.63,7.63,0,0,0,5.364-1.766,6.787,6.787,0,0,0,1.939-5.278,7.457,7.457,0,0,0-1.788-5.234,7.087,7.087,0,0,0-5.515-2.047H193.1v14.282Z" fill="#a6ce39"/></g><g id="Path_1162-2" data-name="Path 1162"><path d="M230.931,159.584a2.152,2.152,0,0,1-.625-1.465V104.266a2.062,2.062,0,0,1,2.089-2.175h21.821q12.279,0,19.107,5.859c4.481,3.877,6.915,9.5,7.13,16.8v12.774q-.8,22.748-25.849,22.747H232.4A2.152,2.152,0,0,1,230.931,159.584Zm23.285-11.848a10.555,10.555,0,0,0,7.734-2.477,11.525,11.525,0,0,0,2.649-7.97c0-1.616.173-3.684.173-6.226s0-4.609-.173-6.16a10.77,10.77,0,0,0-2.865-7.841,11.155,11.155,0,0,0-7.927-2.521h-7.884v33.195Z" fill="#a6ce39"/></g></g><g id="Group_368-2" data-name="Group 368"><g id="Path_1163-2" data-name="Path 1163"><path d="M169.517,242.3A1.848,1.848,0,0,1,169,240.88v-4.825a1.875,1.875,0,0,1,1.784-1.961c.059,0,.117,0,.176,0h2.154a5.168,5.168,0,0,0,4.61-1.745,9.477,9.477,0,0,0,1.185-5.191v-40.3a1.83,1.83,0,0,1,.56-1.422,1.914,1.914,0,0,1,1.4-.538h7.173A1.852,1.852,0,0,1,190,186.633a2.055,2.055,0,0,1,0,.222v40.562a15.529,15.529,0,0,1-3.986,11.373,15.96,15.96,0,0,1-11.847,4.05h-3.231A1.959,1.959,0,0,1,169.517,242.3Zm9.521-64.924a1.874,1.874,0,0,1-.581-1.379v-6.01a2,2,0,0,1,.581-1.422,1.748,1.748,0,0,1,1.379-.6h7.905a1.88,1.88,0,0,1,1.4.56,1.963,1.963,0,0,1,.56,1.465v5.967a1.854,1.854,0,0,1-.56,1.379,1.9,1.9,0,0,1-1.4.581h-7.905a1.877,1.877,0,0,1-1.379-.581Z" fill="#a6ce39"/></g><g id="Path_1164-2" data-name="Path 1164"><path d="M199.847,223.238a19.56,19.56,0,0,1-4.308-13.464V186.855a1.91,1.91,0,0,1,.56-1.443,1.976,1.976,0,0,1,1.4-.517h7.345a1.846,1.846,0,0,1,1.379.56,2,2,0,0,1,.582,1.4V209.3c0,6.677,2.908,10.038,8.616,10.038a8.769,8.769,0,0,0,6.721-2.693,10.426,10.426,0,0,0,2.5-7.345V186.855a1.91,1.91,0,0,1,.56-1.443,1.976,1.976,0,0,1,1.4-.517h7.259a1.829,1.829,0,0,1,1.96,1.691,1.726,1.726,0,0,1,0,.269V225.37a1.831,1.831,0,0,1-.538,1.379,1.855,1.855,0,0,1-1.422.581h-6.678a1.894,1.894,0,0,1-1.4-.581,1.854,1.854,0,0,1-.56-1.379v-3.339a15.768,15.768,0,0,1-13.549,6.118A14.906,14.906,0,0,1,199.847,223.238Z" fill="#a6ce39"/></g><g id="Path_1165-2" data-name="Path 1165"><path d="M247.646,226.275a16.46,16.46,0,0,1-6.16-4.308,7.3,7.3,0,0,1-2-4.309,1.7,1.7,0,0,1,.539-1.314,1.741,1.741,0,0,1,1.249-.473h6.7a1.4,1.4,0,0,1,1.141.646c.28.215.883.732,1.831,1.551a11.011,11.011,0,0,0,7.3,2.606,9.9,9.9,0,0,0,5.3-1.271,4.007,4.007,0,0,0,2.154-3.619,3.816,3.816,0,0,0-.926-2.649,8.624,8.624,0,0,0-3.361-1.9,69.88,69.88,0,0,0-7.216-1.917,21.416,21.416,0,0,1-10.232-4.48,10.233,10.233,0,0,1-3.317-7.992,10.892,10.892,0,0,1,1.96-6.161,13.921,13.921,0,0,1,5.837-4.739,21.392,21.392,0,0,1,9.263-1.831,23.685,23.685,0,0,1,9.543,1.745,16.564,16.564,0,0,1,6.074,4.308,7.1,7.1,0,0,1,2.154,4.308,1.787,1.787,0,0,1-.538,1.271,1.613,1.613,0,0,1-1.249.517h-6.118a1.613,1.613,0,0,1-1.4-.646c-.366-.259-.991-.776-1.831-1.508a10.318,10.318,0,0,0-2.822-1.745,9.617,9.617,0,0,0-3.748-.646,7.171,7.171,0,0,0-4.653,1.314,4.307,4.307,0,0,0-1.637,3.425,3.917,3.917,0,0,0,.775,2.434,7.311,7.311,0,0,0,3.145,1.853,50.472,50.472,0,0,0,7.109,1.745q14.712,2.886,14.691,12.924a11.094,11.094,0,0,1-5.019,9.392,23.7,23.7,0,0,1-14,3.576A25.422,25.422,0,0,1,247.646,226.275Z" fill="#a6ce39"/></g></g></g></g><g id="Group_371" data-name="Group 371"><g id="Path_1166" data-name="Path 1166"><path d="M308.966,78.4a611.979,611.979,0,0,1-124.69-57.81,7.544,7.544,0,0,0-7.47-.22A589.341,589.341,0,0,1,48.9,70.327a7.536,7.536,0,0,0-5.63,7.06l-1.95,64.27a204.769,204.769,0,0,0,19.48,96.18v19.67c0,20.64,17.79,37.42,39.64,37.42h.46c30.38,30.71,61.45,43.98,69.08,45.09a7.994,7.994,0,0,0,1.09.08c.22,0,.44-.01.65-.03,8-.69,42.14-12.96,75.58-44.34a205.216,205.216,0,0,0,64.87-145.9l1.95-64.05A7.532,7.532,0,0,0,308.966,78.4Zm-11.71,65.81-.17,5.13v.36A190,190,0,0,1,237,284.717c-30.48,28.6-59.59,38.8-65.69,40.17-4.98-1.45-25.5-9.97-48.74-30.27,19.22-2.56,34.07-18.19,34.07-37.02v-31.02a11.1,11.1,0,0,0-5.92-9.82,46.717,46.717,0,0,0-8.73-25.05,40.394,40.394,0,0,0-66.45,0,46.438,46.438,0,0,0-8.54,21.6,189.169,189.169,0,0,1-10.62-71.09l1.79-58.76a604.289,604.289,0,0,0,121.94-47.78A626.441,626.441,0,0,0,298.876,90.9Zm-196.82,139.71a30.385,30.385,0,0,1-11.71-2.32c-9.7-4.03-16.52-12.9-16.81-23.29-.02-.23-.02-.47-.02-.71v-31.02h5.86v-7.2a35.85,35.85,0,0,1,6.76-21.15,29.341,29.341,0,0,1,48.49,0,35.831,35.831,0,0,1,6.74,21.15v7.2h5.86V257.6c0,14.54-12.77,26.32-28.54,26.32Z" fill="#a6ce39"/><path d="M125.986,243.3a4.723,4.723,0,0,1-.56.71l-18.01,23.07a4.061,4.061,0,0,1-3.17,1.59l-.04-.02a4.047,4.047,0,0,1-3.12-1.47l-8.62-10.06a4.113,4.113,0,0,1,5.94-5.69,3.542,3.542,0,0,1,.35.42l5.3,6.2,14.9-19.13a4.141,4.141,0,0,1,7.03,4.38Z" fill="#a6ce39"/><path d="M129.106,226.6l-40.48-.02a90.229,90.229,0,0,1,1.21-12.92,18.8,18.8,0,0,1,18.74-14.87h.37a19.062,19.062,0,0,1,18.93,15.08A81.18,81.18,0,0,1,129.106,226.6Z" fill="#a6ce39"/></g><path d="M124.656,237.6a4.135,4.135,0,0,0-5.7,1.32l-14.9,19.13-5.3-6.2a3.542,3.542,0,0,0-.35-.42,4.113,4.113,0,0,0-5.94,5.69l8.62,10.06a4.047,4.047,0,0,0,3.12,1.47l.04.02a4.061,4.061,0,0,0,3.17-1.59l18.01-23.07a4.723,4.723,0,0,0,.56-.71A4.147,4.147,0,0,0,124.656,237.6Z" fill="#fff"/><path d="M139.746,226.577v-7.2a35.831,35.831,0,0,0-6.74-21.15,29.341,29.341,0,0,0-48.49,0,35.85,35.85,0,0,0-6.76,21.15v7.2H71.9V257.6c0,.24,0,.48.02.71.29,10.39,7.11,19.26,16.81,23.29a30.385,30.385,0,0,0,11.71,2.32h16.63c15.77,0,28.54-11.78,28.54-26.32v-31.02Zm-13.76,16.72a4.723,4.723,0,0,1-.56.71l-18.01,23.07a4.061,4.061,0,0,1-3.17,1.59l-.04-.02a4.047,4.047,0,0,1-3.12-1.47l-8.62-10.06a4.113,4.113,0,0,1,5.94-5.69,3.542,3.542,0,0,1,.35.42l5.3,6.2,14.9-19.13a4.141,4.141,0,0,1,7.03,4.38Zm-37.36-16.72a90.229,90.229,0,0,1,1.21-12.92,18.8,18.8,0,0,1,18.74-14.87h.37a19.062,19.062,0,0,1,18.93,15.08,81.18,81.18,0,0,1,1.23,12.73Z" fill="#fff"/></g><g id="Group_372" data-name="Group 372"><g id="Path_1168" data-name="Path 1168"><path d="M125.986,243.3a4.723,4.723,0,0,1-.56.71l-18.01,23.07a4.061,4.061,0,0,1-3.17,1.59l-.04-.02a4.047,4.047,0,0,1-3.12-1.47l-8.62-10.06a4.113,4.113,0,0,1,5.94-5.69,3.542,3.542,0,0,1,.35.42l5.3,6.2,14.9-19.13a4.141,4.141,0,0,1,7.03,4.38Z" fill="#a6ce39"/></g></g></g></svg>