<svg version="1.2" baseProfile="tiny-ps" xmlns="http://www.w3.org/2000/svg" viewBox="0 0 1800 1800" width="1024" height="1024">
	<title>logo-LGPDJus-01-ai</title>
	<style>
		tspan { white-space:pre }
		.shp0 { fill: #2872dd } 
		.shp1 { fill: #ffffff } 
	</style>
	<g id="Layer 1">
		<path id="&lt;Path&gt;" class="shp0" d="M1974 1961L-122 1961L-122 -135L1974 -135L1974 1961Z" />
		<g id="&lt;Group&gt;">
			<g id="Group 4 23 ">
				<g id="Group 3 23 ">
					<path id="Path 3 23 " fill-rule="evenodd" class="shp1" d="M1169.41 655.74L1165.49 783.63C1163.61 888.48 1118.64 987.93 1041.16 1058.6C978.49 1116.31 912.1 1142.11 886.96 1141.34C861.83 1140.57 797.13 1110.8 738.12 1049.32C665.11 974.04 626.31 872.03 630.84 767.25L634.76 639.37C635.12 627.59 643.31 617.51 654.77 614.74C737.84 594.79 817.85 563.71 892.61 522.35C900.96 517.76 911.15 518.07 919.2 523.17C991.52 568.6 1069.42 604.49 1150.94 629.93C1162.21 633.4 1169.76 643.97 1169.41 655.74ZM1113.25 782.03L1116.56 673.88C1042.33 649.22 971.14 616.23 904.35 575.51C835.33 612.36 762.21 640.96 686.51 660.73L683.2 768.86C679.28 858.4 711.92 945.68 773.62 1010.68C824.81 1065.02 877.87 1087.49 888.61 1089.02C899.42 1088.11 953.77 1068.96 1008.18 1017.86C1073.75 956.76 1111.67 871.64 1113.24 782.03L1113.25 782.03Z" />
					<path id="Path 4 23 " class="shp1" d="M787.41 808.96C777.51 798.43 760.95 797.93 750.43 807.83C739.9 817.73 739.39 834.29 749.3 844.81L831.72 932.45C841.62 942.98 858.17 943.49 868.69 933.6C868.7 933.59 868.7 933.59 868.71 933.58L1045.17 767.61C1055.69 757.71 1056.2 741.15 1046.3 730.62C1036.4 720.1 1019.84 719.59 1009.32 729.49L851.91 877.54L787.41 808.96Z" />
				</g>
				<g id="Ellipse 1 23 ">
					<g id="&lt;Group&gt;">
						<path id="&lt;Compound Path&gt;" fill-rule="evenodd" class="shp1" d="M899.64 1306.04C894.89 1306.04 890.16 1305.97 885.39 1305.82C761.29 1302.02 646.14 1248.95 561.16 1156.4C476.23 1063.89 431.6 943.01 435.49 816.01C439.38 689.02 491.32 571.09 581.75 483.95C672.24 396.76 790.35 350.81 914.52 354.65C1038.62 358.44 1153.77 411.51 1238.75 504.07C1323.68 596.57 1368.31 717.46 1364.42 844.46C1360.53 971.45 1308.59 1089.38 1218.15 1176.52C1131.14 1260.36 1018.51 1306.04 899.64 1306.04ZM900.28 371.16C785.75 371.16 677.23 415.19 593.36 496C506.09 580.09 455.97 693.92 452.21 816.53C448.46 939.13 491.52 1055.81 573.48 1145.08C655.39 1234.29 766.34 1285.44 885.9 1289.1C1005.55 1292.74 1119.34 1248.5 1206.54 1164.47C1293.81 1080.38 1343.94 966.55 1347.69 843.94C1351.45 721.34 1308.38 604.65 1226.42 515.39C1144.51 426.18 1033.56 375.03 914 371.37C909.42 371.23 904.84 371.16 900.28 371.16Z" />
					</g>
				</g>
				<g id="&lt;Group&gt;" style="opacity: 0.8">
					<path id="&lt;Compound Path&gt;" class="shp1" d="M1185.01 1344.37L1178.92 1333.4C1184.94 1330.05 1190.9 1326.6 1196.79 1323.05L1203.26 1333.8C1197.25 1337.43 1191.17 1340.95 1185.01 1344.37ZM585.09 1326.64C579.13 1322.86 573.25 1318.97 567.44 1314.98L574.55 1304.63C580.23 1308.54 585.99 1312.35 591.82 1316.06L585.09 1326.64ZM1224.66 1320.25L1217.73 1309.79C1223.47 1305.98 1229.14 1302.07 1234.73 1298.06L1242.04 1308.26C1236.33 1312.35 1230.53 1316.35 1224.66 1320.25ZM546.84 1300.15C541.2 1295.91 535.64 1291.58 530.17 1287.14L538.07 1277.39C543.43 1281.73 548.87 1285.98 554.38 1290.13L546.84 1300.15ZM1262.31 1293.05L1254.57 1283.18C1259.99 1278.92 1265.34 1274.58 1270.61 1270.14L1278.69 1279.73C1273.31 1284.27 1267.85 1288.71 1262.31 1293.05ZM510.81 1270.75C505.53 1266.08 500.33 1261.32 495.23 1256.47L503.87 1247.37C508.87 1252.12 513.95 1256.77 519.12 1261.34L510.81 1270.75ZM1297.72 1262.97L1289.22 1253.74C1294.3 1249.07 1299.29 1244.31 1304.2 1239.47L1313.01 1248.4C1308 1253.35 1302.9 1258.2 1297.72 1262.97ZM477.22 1238.61C472.33 1233.55 467.53 1228.4 462.82 1223.16L472.15 1214.77C476.76 1219.89 481.45 1224.94 486.25 1229.9L477.22 1238.61ZM1330.67 1230.19L1321.48 1221.65C1326.17 1216.6 1330.77 1211.46 1335.28 1206.24L1344.77 1214.45C1340.17 1219.78 1335.46 1225.03 1330.67 1230.19ZM446.27 1203.95C441.8 1198.52 437.42 1193.01 433.13 1187.43L443.09 1179.79C447.29 1185.26 451.57 1190.66 455.95 1195.97L446.27 1203.95ZM1360.95 1194.9L1351.12 1187.12C1355.39 1181.71 1359.58 1176.22 1363.67 1170.66L1373.78 1178.1C1369.6 1183.78 1365.33 1189.38 1360.95 1194.9ZM418.15 1166.99C414.11 1161.23 410.18 1155.39 406.35 1149.49L416.88 1142.66C420.63 1148.44 424.48 1154.15 428.43 1159.79L418.15 1166.99ZM1388.37 1157.34L1377.95 1150.34C1381.79 1144.62 1385.54 1138.82 1389.18 1132.95L1399.84 1139.56C1396.12 1145.56 1392.3 1151.49 1388.37 1157.34ZM393.04 1127.94C389.48 1121.88 386.02 1115.76 382.68 1109.57L393.71 1103.6C396.99 1109.66 400.37 1115.65 403.86 1121.57L393.04 1127.94ZM1412.76 1117.69L1401.82 1111.54C1405.2 1105.53 1408.47 1099.45 1411.64 1093.3L1422.79 1099.05C1419.55 1105.33 1416.21 1111.54 1412.76 1117.69ZM371.11 1087.05C368.04 1080.74 365.08 1074.36 362.23 1067.93L373.71 1062.86C376.49 1069.15 379.39 1075.38 382.4 1081.56L371.11 1087.05ZM1433.94 1076.21L1422.54 1070.96C1425.43 1064.7 1428.21 1058.37 1430.88 1051.98L1442.46 1056.83C1439.73 1063.35 1436.88 1069.82 1433.94 1076.21ZM352.5 1044.58C349.93 1038.03 347.48 1031.42 345.15 1024.77L356.99 1020.62C359.27 1027.14 361.67 1033.6 364.18 1040.01L352.5 1044.58ZM1451.75 1033.16L1439.97 1028.84C1442.35 1022.36 1444.63 1015.83 1446.78 1009.24L1458.71 1013.14C1456.5 1019.87 1454.18 1026.55 1451.75 1033.16ZM337.27 1000.66C335.23 993.93 333.32 987.15 331.52 980.32L343.65 977.12C345.42 983.8 347.29 990.44 349.28 997.02L337.27 1000.66ZM1466.06 988.87L1453.98 985.49C1455.83 978.87 1457.57 972.2 1459.19 965.48L1471.38 968.42C1469.73 975.28 1467.95 982.1 1466.06 988.87ZM325.6 955.66C324.11 948.79 322.74 941.88 321.48 934.93L333.84 932.71C335.06 939.51 336.4 946.28 337.86 953L325.6 955.66ZM1476.8 943.63L1464.49 941.23C1465.8 934.49 1467 927.7 1468.08 920.87L1480.47 922.83C1479.37 929.8 1478.14 936.74 1476.8 943.63ZM317.53 909.88C316.59 902.93 315.76 895.93 315.07 888.9L327.56 887.66C328.24 894.54 329.04 901.39 329.96 908.2L317.53 909.88ZM1483.9 897.7L1471.43 896.29C1472.21 889.46 1472.87 882.6 1473.41 875.7L1485.91 876.67C1485.37 883.72 1484.69 890.73 1483.9 897.7ZM313.11 863.62C312.72 856.62 312.46 849.58 312.31 842.5L324.86 842.25C325 849.17 325.26 856.06 325.65 862.92L313.11 863.62ZM1487.35 851.36L1474.81 850.92C1475.05 844.05 1475.18 837.16 1475.18 830.23C1475.17 823.58 1475.06 816.94 1474.83 810.34L1487.37 809.91C1487.61 816.66 1487.72 823.43 1487.72 830.23C1487.72 837.3 1487.6 844.35 1487.35 851.36ZM324.87 817.42L312.33 817.15C312.48 810.08 312.76 803.04 313.16 796.04L325.69 796.76C325.3 803.61 325.02 810.5 324.87 817.42ZM1473.46 785.55C1472.94 778.66 1472.29 771.79 1471.52 764.97L1483.98 763.56C1484.77 770.54 1485.44 777.55 1485.98 784.59L1473.46 785.55ZM327.64 772.01L315.16 770.76C315.86 763.73 316.69 756.74 317.64 749.78L330.08 751.48C329.14 758.29 328.33 765.14 327.64 772.01ZM1468.19 740.37C1467.13 733.54 1465.94 726.75 1464.63 720L1476.95 717.61C1478.28 724.51 1479.51 731.45 1480.6 738.43L1468.19 740.37ZM333.97 726.97L321.63 724.73C322.88 717.78 324.27 710.88 325.76 704.01L338.03 706.69C336.56 713.41 335.2 720.17 333.97 726.97ZM1459.37 695.75C1457.77 689.03 1456.03 682.36 1454.19 675.73L1466.28 672.37C1468.17 679.14 1469.93 685.96 1471.58 692.83L1459.37 695.75ZM343.86 682.57L331.73 679.36C333.54 672.53 335.47 665.76 337.5 659.03L349.51 662.68C347.52 669.26 345.63 675.89 343.86 682.57ZM1447.02 651.97C1444.89 645.41 1442.63 638.89 1440.27 632.43L1452.05 628.11C1454.47 634.72 1456.77 641.38 1458.95 648.09L1447.02 651.97ZM357.27 639.03L345.43 634.86C347.79 628.19 350.26 621.57 352.84 615.01L364.51 619.6C361.99 626.02 359.57 632.5 357.27 639.03ZM1431.25 609.38C1428.6 603.02 1425.85 596.72 1422.98 590.49L1434.39 585.25C1437.32 591.63 1440.13 598.06 1442.84 604.56L1431.25 609.38ZM374.13 596.67L362.67 591.56C365.54 585.11 368.52 578.71 371.62 572.38L382.89 577.89C379.86 584.08 376.94 590.34 374.13 596.67ZM1412.17 568.21C1409.03 562.08 1405.78 556.01 1402.42 550.01L1413.38 543.89C1416.8 550.02 1420.12 556.22 1423.34 562.48L1412.17 568.21ZM394.3 555.8L383.27 549.8C386.64 543.59 390.13 537.46 393.72 531.39L404.52 537.78C401.01 543.72 397.6 549.72 394.3 555.8ZM1389.87 528.64C1386.25 522.78 1382.53 516.99 1378.71 511.27L1389.15 504.3C1393.06 510.15 1396.86 516.07 1400.55 522.06L1389.87 528.64ZM417.63 516.67L407.11 509.83C410.96 503.91 414.92 498.07 418.97 492.31L429.24 499.53C425.27 505.17 421.4 510.89 417.63 516.67ZM1364.51 490.94C1360.44 485.38 1356.28 479.89 1352.02 474.49L1361.87 466.72C1366.23 472.25 1370.48 477.85 1374.64 483.53L1364.51 490.94ZM443.97 479.54L434.02 471.88C438.32 466.29 442.73 460.79 447.22 455.36L456.88 463.38C452.48 468.68 448.18 474.07 443.97 479.54ZM1336.24 455.33C1331.74 450.11 1327.16 444.96 1322.48 439.9L1331.7 431.39C1336.48 436.56 1341.16 441.81 1345.75 447.16L1336.24 455.33ZM473.13 444.6L463.83 436.18C468.56 430.95 473.37 425.81 478.28 420.76L487.28 429.5C482.48 434.45 477.76 439.48 473.13 444.6ZM1305.24 422.04C1300.35 417.19 1295.37 412.41 1290.31 407.73L1298.83 398.52C1304 403.3 1309.08 408.18 1314.08 413.14L1305.24 422.04ZM504.95 412.08L496.33 402.96C501.45 398.12 506.66 393.38 511.94 388.73L520.23 398.15C515.06 402.7 509.96 407.35 504.95 412.08ZM1271.73 391.28C1266.46 386.82 1261.12 382.45 1255.7 378.18L1263.47 368.33C1269.01 372.69 1274.46 377.15 1279.84 381.7L1271.73 391.28ZM539.21 382.16L531.33 372.39C536.81 367.98 542.37 363.66 548 359.44L555.52 369.49C550.01 373.61 544.57 377.84 539.21 382.16ZM1235.87 363.24C1230.27 359.2 1224.6 355.27 1218.86 351.43L1225.83 341C1231.69 344.92 1237.49 348.93 1243.2 353.05L1235.87 363.24ZM575.69 355.05L568.61 344.69C574.41 340.73 580.29 336.86 586.24 333.1L592.94 343.71C587.12 347.39 581.37 351.17 575.69 355.05ZM1197.9 338.09C1192 334.51 1186.04 331.04 1180 327.67L1186.12 316.71C1192.29 320.15 1198.38 323.7 1204.41 327.36L1197.9 338.09ZM614.17 330.91L607.93 320.02C614.03 316.53 620.19 313.14 626.41 309.86L632.26 320.97C626.17 324.18 620.14 327.49 614.17 330.91ZM1158.05 316.02C1151.88 312.92 1145.65 309.93 1139.37 307.05L1144.6 295.64C1151.02 298.58 1157.38 301.64 1163.68 304.81L1158.05 316.02ZM654.42 309.9L649.06 298.55C655.4 295.55 661.8 292.66 668.27 289.89L673.22 301.42C666.89 304.13 660.62 306.96 654.42 309.9ZM1116.54 297.18C1110.15 294.58 1103.7 292.09 1097.19 289.71L1101.5 277.93C1108.14 280.36 1114.73 282.9 1121.26 285.55L1116.54 297.18ZM696.17 292.15L691.72 280.42C698.3 277.92 704.94 275.54 711.62 273.28L715.64 285.17C709.09 287.38 702.61 289.71 696.17 292.15ZM1073.63 281.69C1067.07 279.62 1060.47 277.66 1053.81 275.81L1057.16 263.72C1063.96 265.61 1070.72 267.61 1077.42 269.73L1073.63 281.69ZM739.32 277.74L735.81 265.69C742.57 263.73 749.37 261.88 756.22 260.16L759.27 272.34C752.57 274.02 745.92 275.82 739.32 277.74ZM1029.76 269.71C1023.06 268.17 1016.32 266.74 1009.53 265.43L1011.91 253.11C1018.84 254.45 1025.74 255.9 1032.58 257.49L1029.76 269.71ZM783.47 266.81L780.94 254.52C787.82 253.1 794.75 251.8 801.72 250.63L803.79 263.01C796.98 264.16 790.2 265.42 783.47 266.81ZM985.06 261.26C978.26 260.25 971.43 259.36 964.56 258.6L965.95 246.13C972.97 246.91 979.96 247.82 986.9 248.85L985.06 261.26ZM828.35 259.42L826.8 246.97C833.77 246.1 840.78 245.36 847.82 244.74L848.91 257.24C842.02 257.85 835.17 258.58 828.35 259.42ZM939.83 256.37C932.99 255.9 926.1 255.55 919.19 255.32L919.59 242.78C926.67 243.01 933.7 243.37 940.7 243.85L939.83 256.37ZM873.68 255.6L873.11 243.07C880.12 242.75 887.17 242.56 894.24 242.49L894.35 255.04C887.44 255.1 880.54 255.29 873.68 255.6Z" />
				</g>
				<g id="&lt;Group&gt;" style="opacity: 0.702">
					<path id="&lt;Compound Path&gt;" class="shp1" d="M1227.5 1418.58L1223.42 1411.27C1229.46 1407.9 1235.44 1404.44 1241.37 1400.89L1245.67 1408.06C1239.68 1411.66 1233.61 1415.16 1227.5 1418.58ZM1267.04 1394.69L1262.48 1387.69C1268.28 1383.91 1274.01 1380.04 1279.68 1376.09L1284.47 1382.95C1278.73 1386.95 1272.92 1390.87 1267.04 1394.69ZM503.51 1374.44C497.84 1370.3 492.23 1366.07 486.7 1361.76L491.83 1355.16C497.3 1359.42 502.84 1363.59 508.44 1367.68L503.51 1374.44ZM1304.88 1368.15L1299.85 1361.47C1305.38 1357.3 1310.84 1353.05 1316.22 1348.72L1321.47 1355.24C1316.01 1359.63 1310.48 1363.93 1304.88 1368.15ZM467.06 1345.88C461.68 1341.36 456.38 1336.77 451.15 1332.09L456.73 1325.85C461.9 1330.48 467.13 1335.02 472.44 1339.47L467.06 1345.88ZM1340.84 1339.06L1335.36 1332.74C1340.59 1328.2 1345.75 1323.58 1350.84 1318.89L1356.51 1325.03C1351.36 1329.79 1346.14 1334.47 1340.84 1339.06ZM432.65 1314.9C427.61 1310.04 422.63 1305.09 417.74 1300.06L423.73 1294.23C428.57 1299.19 433.48 1304.07 438.46 1308.88L432.65 1314.9ZM1374.73 1307.57L1368.83 1301.64C1373.74 1296.75 1378.58 1291.79 1383.34 1286.76L1389.42 1292.5C1384.6 1297.6 1379.71 1302.62 1374.73 1307.57ZM400.47 1281.67C395.76 1276.47 391.15 1271.19 386.61 1265.85L392.98 1260.43C397.46 1265.71 402.03 1270.92 406.67 1276.05L400.47 1281.67ZM1406.41 1273.83L1400.12 1268.32C1404.69 1263.1 1409.17 1257.82 1413.58 1252.47L1420.04 1257.79C1415.58 1263.21 1411.04 1268.55 1406.41 1273.83ZM370.64 1246.32C366.31 1240.82 362.05 1235.25 357.89 1229.6L364.62 1224.63C368.74 1230.21 372.93 1235.71 377.21 1241.15L370.64 1246.32ZM1435.72 1237.99L1429.07 1232.92C1433.27 1227.4 1437.39 1221.83 1441.42 1216.19L1448.22 1221.05C1444.14 1226.76 1439.98 1232.41 1435.72 1237.99ZM343.3 1209.04C339.35 1203.25 335.5 1197.4 331.73 1191.5L338.78 1187C342.51 1192.84 346.31 1198.61 350.21 1204.32L343.3 1209.04ZM1462.52 1200.22L1455.54 1195.62C1459.35 1189.82 1463.07 1183.97 1466.71 1178.06L1473.84 1182.45C1470.16 1188.43 1466.38 1194.35 1462.52 1200.22ZM318.59 1169.99C315.06 1163.95 311.61 1157.86 308.26 1151.7L315.61 1147.7C318.92 1153.78 322.32 1159.8 325.81 1165.76L318.59 1169.99ZM1486.67 1160.66L1479.39 1156.55C1482.79 1150.52 1486.11 1144.42 1489.33 1138.27L1496.74 1142.15C1493.48 1148.38 1490.12 1154.55 1486.67 1160.66ZM296.64 1129.36C293.53 1123.1 290.52 1116.79 287.59 1110.42L295.2 1106.93C298.08 1113.22 301.06 1119.46 304.13 1125.63L296.64 1129.36ZM1508.05 1119.53L1500.5 1115.93C1503.49 1109.66 1506.37 1103.35 1509.16 1096.99L1516.83 1100.35C1514 1106.79 1511.08 1113.19 1508.05 1119.53ZM277.54 1087.34C274.86 1080.86 272.28 1074.34 269.8 1067.77L277.63 1064.82C280.08 1071.31 282.62 1077.75 285.26 1084.14L277.54 1087.34ZM1526.55 1076.99L1518.77 1073.91C1521.31 1067.46 1523.76 1060.96 1526.1 1054.41L1533.98 1057.23C1531.6 1063.86 1529.13 1070.45 1526.55 1076.99ZM261.34 1043.98C259.13 1037.34 257 1030.66 254.98 1023.93L262.99 1021.52C264.99 1028.17 267.09 1034.77 269.28 1041.33L261.34 1043.98ZM1542.05 1033.24L1534.08 1030.71C1536.16 1024.13 1538.15 1017.49 1540.02 1010.81L1548.08 1013.07C1546.18 1019.84 1544.17 1026.56 1542.05 1033.24ZM248.19 999.61C246.43 992.83 244.78 986.02 243.23 979.16L251.39 977.31C252.92 984.09 254.55 990.82 256.29 997.51L248.19 999.61ZM1554.46 988.65L1546.33 986.69C1547.95 979.96 1549.47 973.21 1550.88 966.42L1559.07 968.12C1557.64 975 1556.1 981.84 1554.46 988.65ZM238.13 954.44C236.85 947.56 235.67 940.65 234.6 933.69L242.87 932.42C243.93 939.28 245.09 946.11 246.36 952.9L238.13 954.44ZM1563.75 943.31L1555.5 941.91C1556.66 935.1 1557.7 928.25 1558.64 921.37L1566.94 922.51C1565.98 929.48 1564.92 936.41 1563.75 943.31ZM231.22 908.68C230.42 901.74 229.72 894.76 229.12 887.75L237.46 887.04C238.04 893.96 238.73 900.86 239.53 907.72L231.22 908.68ZM1569.88 897.45L1561.56 896.62C1562.25 889.74 1562.82 882.85 1563.29 875.91L1571.64 876.48C1571.16 883.5 1570.58 890.49 1569.88 897.45ZM227.46 862.56C227.14 855.58 226.91 848.57 226.79 841.53L235.16 841.39C235.28 848.34 235.5 855.27 235.82 862.17L227.46 862.56ZM1572.88 851.27L1564.52 851.01C1564.73 844.11 1564.84 837.18 1564.84 830.23C1564.84 824.17 1564.76 818.12 1564.59 812.1L1572.96 811.87C1573.12 817.98 1573.21 824.09 1573.21 830.23C1573.21 837.27 1573.1 844.28 1572.88 851.27ZM235.21 816.46L226.84 816.28C226.99 809.25 227.24 802.24 227.6 795.26L235.95 795.69C235.6 802.58 235.35 809.5 235.21 816.46ZM1563.47 787.19C1563.02 780.25 1562.47 773.35 1561.82 766.47L1570.15 765.68C1570.81 772.63 1571.36 779.63 1571.82 786.65L1563.47 787.19ZM237.68 770.82L229.35 770.08C229.97 763.07 230.7 756.1 231.53 749.16L239.84 750.15C239.02 757.01 238.3 763.9 237.68 770.82ZM1559 741.7C1558.08 734.82 1557.06 727.97 1555.94 721.15L1564.19 719.79C1565.33 726.69 1566.37 733.63 1567.29 740.6L1559 741.7ZM243.27 725.46L235.01 724.15C236.11 717.2 237.31 710.3 238.62 703.42L246.84 704.99C245.55 711.78 244.36 718.6 243.27 725.46ZM1551.42 696.64C1550.03 689.84 1548.54 683.08 1546.94 676.35L1555.08 674.42C1556.7 681.23 1558.21 688.08 1559.62 694.97L1551.42 696.64ZM251.97 680.6L243.82 678.73C245.39 671.88 247.07 665.06 248.86 658.29L256.94 660.43C255.18 667.11 253.53 673.84 251.97 680.6ZM1540.74 652.21C1538.88 645.52 1536.92 638.87 1534.87 632.27L1542.86 629.79C1544.94 636.47 1546.92 643.2 1548.8 649.97L1540.74 652.21ZM263.75 636.44L255.74 634.01C257.79 627.26 259.95 620.56 262.21 613.91L270.13 616.59C267.9 623.17 265.78 629.78 263.75 636.44ZM1527.01 608.62C1524.7 602.08 1522.29 595.58 1519.78 589.14L1527.57 586.1C1530.12 592.63 1532.56 599.2 1534.9 605.83L1527.01 608.62ZM278.61 593.07L270.79 590.09C273.3 583.51 275.92 576.98 278.63 570.5L286.35 573.73C283.67 580.13 281.09 586.57 278.61 593.07ZM1510.32 566.14C1507.58 559.79 1504.73 553.5 1501.8 547.26L1509.36 543.7C1512.34 550.02 1515.22 556.39 1518 562.82L1510.32 566.14ZM296.43 550.87L288.84 547.35C291.8 540.96 294.85 534.64 298.01 528.36L305.48 532.12C302.37 538.31 299.35 544.56 296.43 550.87ZM1490.78 524.96C1487.59 518.82 1484.32 512.73 1480.96 506.7L1488.26 502.62C1491.67 508.73 1494.98 514.89 1498.21 521.12L1490.78 524.96ZM317.11 510.02L309.78 505.98C313.18 499.83 316.66 493.73 320.24 487.68L327.43 491.95C323.91 497.91 320.46 503.94 317.11 510.02ZM1468.42 485.2C1464.83 479.29 1461.14 473.43 1457.37 467.65L1464.38 463.08C1468.2 468.94 1471.93 474.87 1475.57 480.86L1468.42 485.2ZM340.56 470.71L333.53 466.18C337.33 460.27 341.23 454.42 345.21 448.64L352.1 453.4C348.16 459.1 344.32 464.88 340.56 470.71ZM1443.37 447.04C1439.38 441.38 1435.3 435.79 1431.14 430.27L1437.81 425.23C1442.03 430.83 1446.16 436.49 1450.21 442.21L1443.37 447.04ZM366.64 433.12L359.93 428.12C364.13 422.49 368.41 416.93 372.78 411.44L379.33 416.65C375.01 422.07 370.78 427.56 366.64 433.12ZM1415.77 410.67C1411.4 405.3 1406.95 400 1402.41 394.77L1408.73 389.29C1413.32 394.59 1417.83 399.95 1422.26 405.39L1415.77 410.67ZM395.21 397.42L388.87 391.97C393.44 386.65 398.09 381.4 402.82 376.22L409 381.86C404.32 386.98 399.73 392.16 395.21 397.42ZM1385.74 376.26C1381 371.19 1376.19 366.21 1371.31 361.3L1377.24 355.4C1382.18 360.37 1387.05 365.42 1391.85 370.54L1385.74 376.26ZM426.16 363.77L420.19 357.9C425.11 352.9 430.11 347.98 435.19 343.14L440.96 349.19C435.95 353.98 431.01 358.83 426.16 363.77ZM1353.4 343.96C1348.33 339.23 1343.19 334.58 1337.98 330.01L1343.49 323.72C1348.77 328.35 1353.97 333.05 1359.1 337.84L1353.4 343.96ZM459.31 332.32L453.76 326.06C459.01 321.41 464.33 316.84 469.72 312.36L475.07 318.79C469.74 323.23 464.49 327.73 459.31 332.32ZM1318.92 313.93C1313.54 309.55 1308.09 305.27 1302.58 301.07L1307.64 294.41C1313.23 298.67 1318.75 303.01 1324.19 307.43L1318.92 313.93ZM494.52 303.22L489.42 296.59C494.96 292.32 500.58 288.13 506.26 284.02L511.16 290.8C505.55 294.86 500 299 494.52 303.22ZM1282.45 286.32C1276.78 282.32 1271.05 278.42 1265.26 274.6L1269.86 267.62C1275.72 271.48 1281.53 275.44 1287.27 279.48L1282.45 286.32ZM531.62 276.61L526.98 269.65C532.8 265.77 538.69 261.98 544.64 258.27L549.06 265.37C543.18 269.04 537.37 272.78 531.62 276.61ZM1244.17 261.27C1238.23 257.67 1232.25 254.17 1226.2 250.76L1230.31 243.47C1236.43 246.92 1242.5 250.47 1248.5 254.11L1244.17 261.27ZM570.43 252.62L566.28 245.35C572.35 241.89 578.48 238.51 584.67 235.22L588.59 242.6C582.48 245.85 576.43 249.19 570.43 252.62ZM1204.23 238.9C1198.06 235.72 1191.84 232.64 1185.57 229.65L1189.17 222.1C1195.52 225.12 1201.82 228.25 1208.06 231.47L1204.23 238.9ZM610.78 231.36L607.13 223.83C613.43 220.79 619.76 217.84 626.17 214.99L629.57 222.63C623.25 225.44 616.99 228.35 610.78 231.36ZM1162.81 219.33C1156.44 216.58 1150.02 213.94 1143.55 211.39L1146.62 203.6C1153.17 206.18 1159.68 208.86 1166.13 211.65L1162.81 219.33ZM652.47 212.94L649.35 205.18C655.85 202.57 662.4 200.05 669 197.64L671.87 205.5C665.35 207.88 658.88 210.36 652.47 212.94ZM1120.13 202.67C1113.58 200.37 1106.98 198.17 1100.35 196.08L1102.87 188.1C1109.59 190.22 1116.26 192.44 1122.9 194.78L1120.13 202.67ZM695.44 197.4L692.87 189.43C699.54 187.28 706.24 185.23 712.99 183.29L715.31 191.32C708.65 193.25 702.02 195.27 695.44 197.4ZM1076.45 189.02C1069.77 187.19 1063.07 185.47 1056.32 183.84L1058.28 175.71C1065.12 177.35 1071.91 179.11 1078.66 180.96L1076.45 189.02ZM739.4 184.86L737.38 176.74C744.17 175.05 751.01 173.47 757.88 172L759.64 180.18C752.85 181.64 746.1 183.2 739.4 184.86ZM1031.99 178.46C1025.21 177.09 1018.4 175.83 1011.55 174.67L1012.95 166.42C1019.88 167.6 1026.78 168.87 1033.64 170.26L1031.99 178.46ZM784.1 175.41L782.65 167.16C789.54 165.96 796.47 164.85 803.42 163.85L804.62 172.13C797.74 173.12 790.9 174.21 784.1 175.41ZM986.89 170.98C980.04 170.09 973.16 169.3 966.25 168.61L967.07 160.29C974.07 160.98 981.04 161.78 987.97 162.69L986.89 170.98ZM829.36 169.05L828.48 160.73C835.43 160 842.41 159.37 849.43 158.85L850.05 167.19C843.12 167.7 836.22 168.32 829.36 169.05ZM941.4 166.62C934.51 166.2 927.59 165.88 920.65 165.67L920.9 157.3C927.94 157.52 934.94 157.84 941.92 158.27L941.4 166.62ZM874.95 165.81L874.64 157.45C881.62 157.19 888.62 157.04 895.66 157L895.71 165.37C888.76 165.41 881.84 165.56 874.95 165.81Z" />
				</g>
			</g>
			<g id="&lt;Group&gt;">
				<path id="&lt;Compound Path&gt;" class="shp1" d="M383.03 1585.01C381.56 1583.39 380.82 1581.5 380.82 1579.34L380.82 1368.96C380.82 1366.59 381.56 1364.65 383.03 1363.14C384.5 1361.63 386.22 1360.87 388.18 1360.87L429.37 1360.87C431.53 1360.87 433.29 1361.63 434.67 1363.14C436.04 1364.65 436.73 1366.59 436.73 1368.96L436.73 1536.62L525 1536.62C527.16 1536.62 528.97 1537.43 530.44 1539.05C531.91 1540.67 532.65 1542.66 532.65 1545.04L532.65 1579.34C532.65 1581.72 531.91 1583.66 530.44 1585.17C528.97 1586.68 527.16 1587.43 525 1587.43L388.18 1587.43C386.22 1587.43 384.5 1586.63 383.03 1585.01Z" />
				<path id="&lt;Compound Path&gt;" class="shp1" d="M559.72 1567.85C543.63 1552.64 535.1 1530.9 534.12 1502.63C533.92 1496.59 533.83 1486.78 533.83 1473.18C533.83 1459.59 533.92 1449.66 534.12 1443.41C534.9 1416.22 543.49 1395.13 559.87 1380.13C576.24 1365.14 598.45 1357.63 626.51 1357.63C645.34 1357.63 661.77 1360.98 675.8 1367.67C689.82 1374.36 700.51 1382.94 707.87 1393.4C715.22 1403.87 719.09 1414.6 719.49 1425.6C719.49 1427.54 718.85 1429.22 717.58 1430.62C716.3 1432.03 714.78 1432.72 713.01 1432.72L667.41 1432.72C665.45 1432.72 663.92 1432.35 662.85 1431.59C661.77 1430.84 660.74 1429.7 659.76 1428.19C657.41 1422.15 653.62 1416.98 648.43 1412.66C643.23 1408.34 635.93 1406.18 626.51 1406.18C603.75 1406.18 591.98 1419.13 591.2 1445.02C591 1451.07 590.91 1460.35 590.91 1472.86C590.91 1485.38 591 1494.76 591.2 1501.02C591.98 1528.42 603.95 1542.12 627.1 1542.12C638.47 1542.12 647.5 1539 654.17 1532.74C660.84 1526.48 664.17 1516.99 664.17 1504.25L664.17 1498.43L637.98 1498.43C635.82 1498.43 634.01 1497.62 632.54 1496C631.07 1494.38 630.34 1492.39 630.34 1490.01L630.34 1464.77C630.34 1462.4 631.07 1460.4 632.54 1458.78C634.01 1457.16 635.82 1456.35 637.98 1456.35L712.72 1456.35C714.88 1456.35 716.7 1457.16 718.17 1458.78C719.64 1460.4 720.37 1462.4 720.37 1464.77L720.37 1502.31C720.37 1520.65 716.5 1536.46 708.75 1549.73C701 1563 690.07 1573.14 675.94 1580.15C661.82 1587.17 645.34 1590.67 626.51 1590.67C598.06 1590.67 575.8 1583.06 559.72 1567.85Z" />
				<path id="&lt;Compound Path&gt;" fill-rule="evenodd" class="shp1" d="M740.53 1585.01C739.05 1583.39 738.31 1581.5 738.31 1579.34L738.31 1369.29C738.31 1366.91 739 1364.91 740.38 1363.3C741.75 1361.68 743.51 1360.87 745.67 1360.87L828.94 1360.87C854.44 1360.87 874.45 1367.24 888.97 1379.97C903.48 1392.7 910.74 1411.36 910.74 1435.96C910.74 1460.56 903.48 1478.96 888.97 1491.14C874.45 1503.34 854.44 1509.43 828.94 1509.43L795.4 1509.43L795.4 1579.34C795.4 1581.5 794.71 1583.39 793.34 1585.01C791.96 1586.63 790.2 1587.43 788.04 1587.43L745.67 1587.43C743.71 1587.43 742 1586.63 740.53 1585.01ZM827.47 1463.15C835.51 1463.15 841.84 1460.83 846.45 1456.19C851.05 1451.55 853.36 1444.7 853.36 1435.64C853.36 1427.22 851.25 1420.43 847.04 1415.25C842.82 1410.07 836.3 1407.48 827.47 1407.48L794.51 1407.48L794.51 1463.15L827.47 1463.15Z" />
				<path id="&lt;Compound Path&gt;" fill-rule="evenodd" class="shp1" d="M925.6 1585.01C924.12 1583.39 923.39 1581.5 923.39 1579.34L923.39 1369.29C923.39 1366.91 924.07 1364.91 925.45 1363.3C926.82 1361.68 928.58 1360.87 930.74 1360.87L1008.13 1360.87C1037.16 1360.87 1059.72 1368.48 1075.8 1383.69C1091.89 1398.9 1100.32 1420.75 1101.11 1449.23C1101.3 1455.49 1101.4 1463.8 1101.4 1474.15C1101.4 1484.51 1101.3 1492.71 1101.11 1498.75C1099.15 1557.87 1068.64 1587.43 1009.6 1587.43L930.74 1587.43C928.78 1587.43 927.07 1586.63 925.6 1585.01ZM1008.13 1538.89C1020.49 1538.89 1029.61 1535.65 1035.49 1529.18C1041.38 1522.7 1044.51 1512.35 1044.91 1498.1C1045.3 1491.85 1045.5 1483.76 1045.5 1473.83C1045.5 1463.91 1045.3 1455.92 1044.91 1449.88C1044.51 1436.07 1041.13 1425.88 1034.76 1419.29C1028.38 1412.71 1019.02 1409.42 1006.66 1409.42L978.7 1409.42L978.7 1538.89L1008.13 1538.89Z" />
				<path id="&lt;Compound Path&gt;" class="shp1" d="M1089.26 1641.1C1087.99 1639.83 1087.35 1638.13 1087.35 1635.98L1087.35 1618.73C1087.35 1616.78 1087.99 1615.12 1089.26 1613.76C1090.52 1612.39 1092.23 1611.71 1094.37 1611.71L1101.98 1611.71C1110.17 1611.71 1115.67 1609.61 1118.5 1605.42C1121.33 1601.23 1122.74 1595.04 1122.74 1586.85L1122.74 1442.38C1122.74 1440.23 1123.42 1438.52 1124.79 1437.26C1126.15 1435.99 1127.81 1435.35 1129.76 1435.35L1155.5 1435.35C1157.64 1435.35 1159.35 1435.99 1160.61 1437.26C1161.88 1438.52 1162.52 1440.23 1162.52 1442.38L1162.52 1587.73C1162.52 1605.28 1157.74 1618.88 1148.19 1628.53C1138.63 1638.17 1124.5 1643 1105.78 1643L1094.37 1643C1092.23 1643 1090.52 1642.37 1089.26 1641.1ZM1123.33 1408.45C1121.96 1407.09 1121.28 1405.43 1121.28 1403.48L1121.28 1382.13C1121.28 1380.18 1121.96 1378.47 1123.33 1377.01C1124.69 1375.55 1126.35 1374.81 1128.3 1374.81L1156.67 1374.81C1158.61 1374.81 1160.27 1375.5 1161.64 1376.86C1163 1378.23 1163.69 1379.98 1163.69 1382.13L1163.69 1403.48C1163.69 1405.43 1163 1407.09 1161.64 1408.45C1160.27 1409.81 1158.61 1410.5 1156.67 1410.5L1128.3 1410.5C1126.35 1410.5 1124.69 1409.81 1123.33 1408.45Z" />
				<path id="&lt;Compound Path&gt;" class="shp1" d="M1209.6 1572.81C1199.27 1561.11 1194.1 1545.03 1194.1 1524.56L1194.1 1442.38C1194.1 1440.23 1194.78 1438.52 1196.15 1437.26C1197.51 1435.99 1199.17 1435.35 1201.12 1435.35L1227.44 1435.35C1229.39 1435.35 1231.05 1436.04 1232.42 1437.4C1233.78 1438.77 1234.46 1440.43 1234.46 1442.38L1234.46 1522.8C1234.46 1546.78 1244.89 1558.77 1265.76 1558.77C1275.89 1558.77 1283.93 1555.56 1289.89 1549.12C1295.83 1542.69 1298.81 1533.91 1298.81 1522.8L1298.81 1442.38C1298.81 1440.23 1299.49 1438.52 1300.85 1437.26C1302.21 1435.99 1303.87 1435.35 1305.82 1435.35L1331.85 1435.35C1333.99 1435.35 1335.7 1435.99 1336.97 1437.26C1338.24 1438.52 1338.87 1440.23 1338.87 1442.38L1338.87 1580.42C1338.87 1582.37 1338.24 1584.02 1336.97 1585.39C1335.7 1586.75 1333.99 1587.43 1331.85 1587.43L1307.58 1587.43C1305.63 1587.43 1303.97 1586.75 1302.61 1585.39C1301.24 1584.02 1300.56 1582.37 1300.56 1580.42L1300.56 1568.43C1289.83 1583.05 1273.65 1590.36 1252.01 1590.36C1234.07 1590.36 1219.93 1584.51 1209.6 1572.81Z" />
				<path id="&lt;Compound Path&gt;" class="shp1" d="M1392.39 1583.63C1382.44 1579.15 1375.08 1573.94 1370.31 1567.98C1365.53 1562.04 1363.14 1556.92 1363.14 1552.63C1363.14 1550.68 1363.77 1549.12 1365.04 1547.95C1366.31 1546.78 1367.82 1546.2 1369.58 1546.2L1393.56 1546.2C1395.12 1546.2 1396.48 1546.98 1397.65 1548.54C1398.63 1549.32 1400.82 1551.17 1404.23 1554.1C1407.64 1557.02 1411.55 1559.31 1415.93 1560.97C1420.32 1562.63 1425.15 1563.45 1430.41 1563.45C1438.2 1563.45 1444.55 1561.95 1449.42 1558.92C1454.29 1555.9 1456.73 1551.56 1456.73 1545.9C1456.73 1542.01 1455.61 1538.84 1453.36 1536.4C1451.12 1533.96 1447.12 1531.72 1441.37 1529.67C1435.62 1527.63 1426.99 1525.34 1415.49 1522.8C1398.92 1519.29 1386.69 1513.93 1378.79 1506.71C1370.89 1499.5 1366.95 1489.95 1366.95 1478.05C1366.95 1470.26 1369.29 1462.9 1373.96 1455.98C1378.64 1449.05 1385.61 1443.4 1394.88 1439.01C1404.13 1434.62 1415.2 1432.43 1428.07 1432.43C1441.33 1432.43 1452.73 1434.53 1462.29 1438.72C1471.84 1442.91 1479.1 1447.93 1484.08 1453.78C1489.05 1459.63 1491.53 1464.8 1491.53 1469.28C1491.53 1471.04 1490.9 1472.55 1489.63 1473.81C1488.36 1475.09 1486.86 1475.71 1485.1 1475.71L1463.16 1475.71C1461.02 1475.71 1459.36 1474.94 1458.19 1473.38C1456.83 1472.4 1454.63 1470.59 1451.61 1467.97C1448.58 1465.33 1445.23 1463.24 1441.52 1461.67C1437.82 1460.12 1433.34 1459.33 1428.07 1459.33C1420.85 1459.33 1415.3 1460.9 1411.4 1464.02C1407.5 1467.14 1405.55 1471.23 1405.55 1476.3C1405.55 1479.81 1406.47 1482.73 1408.33 1485.07C1410.18 1487.41 1413.93 1489.61 1419.59 1491.65C1425.24 1493.7 1433.72 1495.8 1445.03 1497.94C1480.13 1504.77 1497.67 1520.07 1497.67 1543.86C1497.67 1557.7 1491.68 1568.91 1479.69 1577.49C1467.7 1586.07 1450.97 1590.36 1429.53 1590.36C1414.71 1590.36 1402.33 1588.11 1392.39 1583.63Z" />
			</g>
		</g>
	</g>
</svg>