<svg xmlns="http://www.w3.org/2000/svg" height="30" width="30" viewBox="0 0 30 30"><title>Hotel Bell</title><g fill="#F7F7F7" class="nc-icon-wrapper"><path d="M27.8 24c-2.6 0-4.3-1.6-4.3-4v-2h.5c.3 0 .5-.2.5-.5v-.1c-.1-4.7-3.5-8.5-8-9.2V7c1.1 0 2-.9 2-2s-.9-2-2-2h-3c-1.1 0-2 .9-2 2s.9 2 2 2v1.1c-4.5.7-8 4.6-8 9.4 0 .3.2.5.5.5h.5v1c0 2.4-1.7 5-4.3 5-1 0-1.8.8-1.8 1.8v.8c.1.2.3.4.6.4h28c.3 0 .5-.2.5-.5v-.8c0-.9-.8-1.7-1.7-1.7zM8.6 22.7c-.1.2-.2.3-.4.3-.1 0-.2 0-.2-.1-.2-.1-.4-.4-.2-.7.4-.9.7-1.9.8-2.8-.1-.2.1-.4.4-.4.3 0 .5.3.5.5-.1 1.1-.4 2.2-.9 3.2zM15 11c-2.9 0-5.4 1.9-6.2 4.6-.1.3-.3.4-.5.4h-.1c-.3-.1-.4-.4-.3-.6.9-3.2 3.8-5.4 7.1-5.4.3 0 .5.2.5.5s-.2.5-.5.5z"></path></g></svg>