<svg xmlns="http://www.w3.org/2000/svg" height="30" width="30" viewBox="0 0 30 30"><title>Clipboard</title><g fill="#F7F7F7" class="nc-icon-wrapper"><path d="M9.5 4h11a.5.5 0 0 0 .5-.5v-1A1.5 1.5 0 0 0 19.5 1h-2.51C16.52.377 15.782 0 15 0s-1.52.377-1.99 1H10.5C9.674 1 9 1.672 9 2.5v1a.5.5 0 0 0 .5.5zm14.766-2H22.5a.5.5 0 0 0-.5.5v1c0 .826-.672 1.5-1.5 1.5h-11C8.674 5 8 4.326 8 3.5v-1a.5.5 0 0 0-.5-.5H5.735C4.779 2 4 2.8 4 3.786v24.429C4 29.198 4.779 30 5.735 30h18.529c.957 0 1.736-.8 1.736-1.786V3.786C26 2.8 25.222 2 24.266 2zM7 10.5a.5.5 0 0 1 .5-.5h6a.5.5 0 0 1 .5.5v6a.5.5 0 0 1-.5.5h-6a.5.5 0 0 1-.5-.5v-6zm7 16a.5.5 0 0 1-.5.5h-6a.5.5 0 0 1-.5-.5v-6a.5.5 0 0 1 .5-.5H12a.5.5 0 0 1 0 1H8v5h5v-2a.5.5 0 0 1 1 0v2.5zm.852-5.646l-3.998 4a.498.498 0 0 1-.708 0l-1.5-1.5a.5.5 0 0 1 .707-.707l1.146 1.146 3.646-3.646a.5.5 0 0 1 .707.707zM22.5 24h-7a.5.5 0 0 1 0-1h7a.5.5 0 0 1 0 1zm0-10h-7a.5.5 0 0 1 0-1h7a.5.5 0 0 1 0 1zM13 11H8v5h5v-5z"></path></g></svg>