<svg xmlns="http://www.w3.org/2000/svg" height="30" width="30" viewBox="0 0 30 30"><title>Mail Notification</title><g fill="#F7F7F7" class="nc-icon-wrapper"><path d="M27 1H3C1.6 1 .5 2.1.5 3.5v15C.5 19.9 1.6 21 3 21h3.1c.3 0 .5-.2.5-.4C7 16.2 10.7 13 15 13s8 3.2 8.4 7.6c0 .3.2.4.5.4H27c1.4 0 2.5-1.1 2.5-2.5v-15C29.5 2.1 28.4 1 27 1zM11 11.9l-6.8 6c-.1.1-.2.1-.3.1-.1 0-.3-.1-.4-.2-.2-.2-.2-.5 0-.7l6.8-6c.2-.2.5-.2.7 0 .2.3.2.6 0 .8zm3.8.1c-.7 0-1.4-.2-2-.6L3.6 4.9c-.2-.2-.3-.5-.1-.7.1-.2.4-.3.7-.1l9.2 6.5c.8.5 2 .5 2.8 0l9.7-6.5c.2-.2.5-.1.7.1.2.2.1.5-.1.7l-9.7 6.5c-.6.4-1.3.6-2 .6zm11.7 5.8c-.1.1-.2.2-.4.2-.1 0-.2 0-.3-.1l-6.8-6c-.2-.2-.2-.5 0-.7.2-.2.5-.2.7 0l6.8 6c.1.1.2.4 0 .6z"></path><path d="M15 14c-4.1 0-7.5 3.4-7.5 7.5S10.9 29 15 29s7.5-3.4 7.5-7.5S19.1 14 15 14zm.3 11.8c0 .1-.2.2-.3.2s-.3-.1-.4-.1c-.1-.1-.1-.2-.1-.4s.1-.3.1-.3c.2-.2.5-.2.7 0 .1.1.2.2.2.3s-.1.3-.2.3zm.2-2.3c0 .3-.2.5-.5.5s-.5-.2-.5-.5v-6c0-.3.2-.5.5-.5s.5.2.5.5v6z"></path></g></svg>