<svg width="70.2" height="17.94" data-name="Layer 1" xmlns="http://www.w3.org/2000/svg"><defs/><g data-name="Group 10"><g data-name="Group 4"><g data-name="Group 1"><path class="cls-1" d="M.16 14.29a.46.46 0 01-.16-.36V.72A.47.47 0 01.14.35.43.43 0 01.46.2h2.58a.48.48 0 01.34.14.58.58 0 01.13.37v10.53h5.54a.43.43 0 01.34.15.57.57 0 01.14.38v2.15a.47.47 0 01-.14.37.48.48 0 01-.34.14H.48a.42.42 0 01-.32-.15z" data-name="Path 1"/><path class="cls-1" d="M11.25 13.2a5.64 5.64 0 01-1.6-4.1V5.4a5.35 5.35 0 011.61-4A6 6 0 0115.44 0a7.17 7.17 0 013.1.64 5 5 0 012 1.62 3.68 3.68 0 01.73 2 .45.45 0 01-.12.3.34.34 0 01-.28.14H18a.4.4 0 01-.28-.07.8.8 0 01-.2-.21 2.39 2.39 0 00-.7-1 2.12 2.12 0 00-1.39-.4c-1.42 0-2.16.8-2.2 2.44v3.51q.06 2.58 2.24 2.58a2.13 2.13 0 002.33-2.38V8.8h-1.64a.45.45 0 01-.34-.15.59.59 0 01-.14-.38V6.74a.57.57 0 01.14-.38.45.45 0 01.34-.15h4.7a.45.45 0 01.34.15.57.57 0 01.14.38v2.35a6 6 0 01-.73 3 4.81 4.81 0 01-2.06 1.9 6.92 6.92 0 01-3.1.67 5.86 5.86 0 01-4.2-1.45z" data-name="Path 2"/><path class="cls-1" d="M22.6 14.29a.54.54 0 01-.14-.36V.73a.58.58 0 01.13-.37.43.43 0 01.34-.15h5.22a5.52 5.52 0 013.77 1.2 4.43 4.43 0 011.37 3.52 4.26 4.26 0 01-1.37 3.46 5.67 5.67 0 01-3.77 1.15H26v4.39a.53.53 0 01-.13.36.41.41 0 01-.33.15h-2.62a.44.44 0 01-.32-.15zm5.46-7.66a1.59 1.59 0 001.2-.43 1.76 1.76 0 00.43-1.3 2 2 0 00-.4-1.28 1.5 1.5 0 00-1.23-.48H26v3.5z" data-name="Path 3"/><path class="cls-1" d="M34.22 14.29a.54.54 0 01-.14-.36V.73a.65.65 0 01.13-.37.43.43 0 01.34-.15h4.86a5.93 5.93 0 014.24 1.44 5.57 5.57 0 011.6 4.16V8.92c-.13 3.7-2 5.57-5.75 5.57h-5a.45.45 0 01-.28-.2zm5.2-2.9a2.22 2.22 0 001.7-.58 3 3 0 00.6-2V5.79a2.79 2.79 0 00-.64-1.92 2.36 2.36 0 00-1.77-.62h-1.75v8.13z" data-name="Path 4"/><path class="cls-1" d="M44.5 17.8a.43.43 0 01-.12-.31v-1.1a.45.45 0 01.12-.3.42.42 0 01.32-.13h.48a1.18 1.18 0 001-.4 2 2 0 00.26-1.16V5.33A.42.42 0 0146.7 5a.45.45 0 01.31-.12h1.62a.41.41 0 01.44.38v9.19a3.5 3.5 0 01-.9 2.56 3.61 3.61 0 01-2.66.9h-.7a.48.48 0 01-.3-.11zm2.14-14.6a.42.42 0 01-.13-.31V1.55a.42.42 0 01.13-.32.41.41 0 01.36-.14h1.78a.44.44 0 01.44.46v1.34a.44.44 0 01-.43.44H47a.44.44 0 01-.36-.13z" data-name="Path 5"/><path class="cls-1" d="M52.06 13.52a4.42 4.42 0 01-1-3v-5.2a.42.42 0 01.13-.31.47.47 0 01.31-.12h1.66a.44.44 0 01.44.44v5.05c0 1.5.65 2.26 2 2.26a2 2 0 001.52-.61 2.37 2.37 0 00.56-1.65V5.33a.39.39 0 01.13-.32.43.43 0 01.31-.12h1.63a.42.42 0 01.45.38V14a.47.47 0 01-.12.3.44.44 0 01-.32.14h-1.55a.44.44 0 01-.44-.44v-.76a3.52 3.52 0 01-3 1.38 3.34 3.34 0 01-2.7-1.1z" data-name="Path 6"/><path class="cls-1" d="M63.53 14.2a3.75 3.75 0 01-1.38-1 1.71 1.71 0 01-.45-1 .35.35 0 01.12-.3.41.41 0 01.28-.1h1.51a.29.29 0 01.25.16l.42.34a2.37 2.37 0 00.72.5 2.56 2.56 0 00.91.16 2.29 2.29 0 001.2-.28.91.91 0 00.45-.82.84.84 0 00-.2-.6 1.8 1.8 0 00-.76-.42 13.35 13.35 0 00-1.6-.46 4.83 4.83 0 01-2.3-1 2.33 2.33 0 01-.75-1.8 2.46 2.46 0 01.44-1.4 3.2 3.2 0 011.31-1.07 4.78 4.78 0 012.08-.41 5.27 5.27 0 012.15.4 3.69 3.69 0 011.37.94 1.58 1.58 0 01.46 1 .41.41 0 01-.4.4H68a.39.39 0 01-.32-.15l-.4-.34a2.32 2.32 0 00-.64-.4 2.23 2.23 0 00-.85-.14 1.6 1.6 0 00-1 .29.93.93 0 00-.37.77.84.84 0 00.17.55 1.66 1.66 0 00.71.42 11 11 0 001.6.39q3.3.64 3.3 2.88a2.52 2.52 0 01-1.2 2.1 5.29 5.29 0 01-3.15.8 5.7 5.7 0 01-2.32-.41z" data-name="Path 7"/></g></g></g></svg>